<svg xmlns="http://www.w3.org/2000/svg" viewBox="0 0 69.54 71.38"><defs><style>.cls-1{fill:#fff;}</style></defs><g id="Layer_2" data-name="Layer 2"><g id="Layer_1-2" data-name="Layer 1"><path class="cls-1" d="M55.09,41l-6.85-5a4,4,0,0,0-5.59.87l-2.12,2.9c-.11.15-.07,0-.12.2,0,0-.13.18-.51.24-.64.1-2.56,0-6.71-3.34l-.4-.29c-4.37-2.91-5.07-4.7-5.17-5.34a1.24,1.24,0,0,1,0-.5c.14-.09.1-.09.21-.23L30,27.56a4,4,0,0,0,.72-3A4,4,0,0,0,29.1,22l-7-5.09a4,4,0,0,0-5.59.87L14.4,20.68a10.25,10.25,0,0,0-1.33,9.25c1.65,4.81,5.86,9.92,12.52,15.2a1.72,1.72,0,0,0,.31.29l.51.35.49.38a1.36,1.36,0,0,0,.37.21c7.06,4.73,13.21,7.18,18.3,7.29h.2a10,10,0,0,0,8.08-4.18L56,46.53a4,4,0,0,0,.72-3A4,4,0,0,0,55.09,41Zm-1.55,3.82L51.4,47.71a7.06,7.06,0,0,1-5.8,2.94c-3.23-.07-8.86-1.4-17.45-7.3C19.92,37,16.93,32,15.88,29a7.18,7.18,0,0,1,.92-6.51L19,19.51a1,1,0,0,1,.65-.4,1,1,0,0,1,.75.18l7,5.09a1,1,0,0,1,.4.65,1,1,0,0,1-.18.75l-2.05,2.81a3.63,3.63,0,0,0-.88,2.67c.16,2.41,2.29,4.94,6.47,7.72l.3.21c4,3.17,7,4.43,9.37,3.84A3.62,3.62,0,0,0,43,41.38l2-2.81a1,1,0,0,1,1.4-.22l6.85,5a1,1,0,0,1,.4.65A1.07,1.07,0,0,1,53.54,44.77Z"/><path class="cls-1" d="M34.77,0A34.76,34.76,0,0,0,8.19,57.17L2,69.2a1.5,1.5,0,0,0,1.33,2.18,1.59,1.59,0,0,0,.43-.06L20.33,66.4a34.46,34.46,0,0,0,14.44,3.13A34.77,34.77,0,1,0,34.77,0Zm0,66.53a31.54,31.54,0,0,1-13.68-3.09A1.47,1.47,0,0,0,20,63.36L6.29,67.44l5-9.81a1.51,1.51,0,0,0-.22-1.69A31.76,31.76,0,1,1,34.77,66.53Z"/></g></g></svg>