<svg xmlns="http://www.w3.org/2000/svg" viewBox="0 0 22 20"><defs><style>.cls-1{fill:#285b4d;}</style></defs><title>Ресурс 1</title><g id="Слой_2" data-name="Слой 2"><g id="Слой_1-2" data-name="Слой 1"><path class="cls-1" d="M21,10H1A1,1,0,0,1,0,9V5A1,1,0,0,1,1,4H21a1,1,0,0,1,1,1V9A1,1,0,0,1,21,10ZM2,8H20V6H2Z"/><path class="cls-1" d="M19,20H3a1,1,0,0,1-1-1V9A1,1,0,0,1,3,8H19a1,1,0,0,1,1,1V19A1,1,0,0,1,19,20ZM4,18H18V10H4Z"/><path class="cls-1" d="M11,20a1,1,0,0,1-1-1V5a1,1,0,0,1,2,0V19A1,1,0,0,1,11,20Z"/><path class="cls-1" d="M15,6H11a1,1,0,0,1-1-1,5,5,0,0,1,5-5,3,3,0,0,1,0,6ZM12.17,4H15a1,1,0,0,0,0-2A3,3,0,0,0,12.17,4Z"/><path class="cls-1" d="M11,6H7A3,3,0,0,1,7,0a5,5,0,0,1,5,5A1,1,0,0,1,11,6ZM7,2A1,1,0,0,0,7,4H9.83A3,3,0,0,0,7,2Z"/></g></g></svg>