<svg xmlns="http://www.w3.org/2000/svg" viewBox="0 0 50 50"><defs><style>.cls-1{fill:#295b4d;}.cls-2{fill:#fff;}</style></defs><g id="Layer_2" data-name="Layer 2"><g id="Layer_1-2" data-name="Layer 1"><rect class="cls-1" width="50" height="50" rx="15.98"/><path class="cls-2" d="M17.55,39.2a15.77,15.77,0,0,1-6-5.8A16.16,16.16,0,0,1,9.34,25a16.31,16.31,0,0,1,2.18-8.37,15.93,15.93,0,0,1,6.06-5.83,18.07,18.07,0,0,1,8.67-2.11A18.52,18.52,0,0,1,33.07,10a14.12,14.12,0,0,1,5.27,3.66l-3,2.87a11.76,11.76,0,0,0-9-3.72A12.74,12.74,0,0,0,20,14.39a11.46,11.46,0,0,0-4.49,4.38,13,13,0,0,0,0,12.52A11.39,11.39,0,0,0,20,35.67a13.09,13.09,0,0,0,6.42,1.62,11.87,11.87,0,0,0,9-3.89l3,2.87A14.53,14.53,0,0,1,33,40a17.62,17.62,0,0,1-6.85,1.28A17.52,17.52,0,0,1,17.55,39.2Z"/></g></g></svg>