<svg xmlns="http://www.w3.org/2000/svg" viewBox="0 0 19.22 19.22"><defs><style>.cls-1{fill:#feefe4;}.cls-2{fill:#295b4d;}</style></defs><g id="Layer_2" data-name="Layer 2"><g id="Слой_1" data-name="Слой 1"><rect class="cls-1" x="0.25" y="0.25" width="18.72" height="18.72" rx="9.36"/><path class="cls-2" d="M9.61,19.22a9.61,9.61,0,1,1,9.61-9.61A9.62,9.62,0,0,1,9.61,19.22ZM9.61.5a9.11,9.11,0,1,0,9.11,9.11A9.12,9.12,0,0,0,9.61.5Z"/><path class="cls-2" d="M5.82,9.13a2,2,0,0,1-.39-1.3,3.85,3.85,0,0,1,.08-.68,3.78,3.78,0,0,1,.83-1.73,1.83,1.83,0,0,1,1.37-.7,1.26,1.26,0,0,1,1.06.49,2,2,0,0,1,.38,1.26,4.23,4.23,0,0,1-.07.73,3.51,3.51,0,0,1-.8,1.73,1.85,1.85,0,0,1-1.39.69A1.29,1.29,0,0,1,5.82,9.13Zm1.74-.26A6.53,6.53,0,0,0,7.91,7.3,9.15,9.15,0,0,0,8,6c0-.66-.14-1-.43-1s-.41.15-.55.46a6.49,6.49,0,0,0-.34,1.6A12.33,12.33,0,0,0,6.6,8.38a1.94,1.94,0,0,0,.1.71A.33.33,0,0,0,7,9.31C7.25,9.31,7.43,9.16,7.56,8.87Zm-.29,5.31c-.15-.08-.21-.13-.2-.14l5.07-9.28s.1,0,.25.07.21.13.18.17L7.5,14.26S7.42,14.25,7.27,14.18Zm3.43-.42a2,2,0,0,1-.39-1.3,3.76,3.76,0,0,1,.91-2.4,1.81,1.81,0,0,1,1.37-.71,1.3,1.3,0,0,1,1.06.49A2,2,0,0,1,14,11.11a4.26,4.26,0,0,1-.08.72,3.35,3.35,0,0,1-.8,1.73,1.82,1.82,0,0,1-1.39.7A1.28,1.28,0,0,1,10.7,13.76Zm1.74-.26a6.53,6.53,0,0,0,.34-1.57,9.08,9.08,0,0,0,.11-1.27c0-.66-.15-1-.44-1s-.41.16-.54.46a6.25,6.25,0,0,0-.34,1.61A12.35,12.35,0,0,0,11.48,13a1.83,1.83,0,0,0,.1.72.33.33,0,0,0,.32.22Q12.25,14,12.44,13.5Z"/></g></g></svg>