<svg xmlns="http://www.w3.org/2000/svg" viewBox="0 0 19.22 19.22"><defs><style>.cls-1{fill:#feefe4;}.cls-2{fill:#295b4d;}</style></defs><g id="Layer_2" data-name="Layer 2"><g id="Слой_1" data-name="Слой 1"><rect class="cls-1" x="0.25" y="0.25" width="18.72" height="18.72" rx="9.36"/><path class="cls-2" d="M9.61,19.22a9.61,9.61,0,1,1,9.61-9.61A9.62,9.62,0,0,1,9.61,19.22ZM9.61.5a9.11,9.11,0,1,0,9.11,9.11A9.12,9.12,0,0,0,9.61.5Z"/><path class="cls-2" d="M9.94,10.36C8.85,9.91,8,8,7.53,7c-.45,1.09-1.32,3-2.41,3.41,1.09.45,2,2.32,2.41,3.41.45-1.09,1.32-3,2.41-3.41"/><path class="cls-2" d="M13.71,13.06a3.34,3.34,0,0,1-1.8-1.8,3.37,3.37,0,0,1-1.8,1.8,3.34,3.34,0,0,1,1.8,1.8,3.31,3.31,0,0,1,1.8-1.8"/><path class="cls-2" d="M12.33,5.64c-.7-.29-1.26-1.49-1.55-2.2-.3.71-.85,1.91-1.55,2.2.7.29,1.25,1.49,1.55,2.19.29-.7.85-1.9,1.55-2.19"/></g></g></svg>