<svg width="138" height="20" viewBox="0 0 138 20" fill="none" xmlns="http://www.w3.org/2000/svg">
<g clip-path="url(#clip0_822_7128)">
<path d="M23.6354 -0.384613H20.5857V16.5385H23.6354V-0.384613Z" fill="black"/>
<path d="M3.04972 3.07692H0V20H3.04972V3.07692Z" fill="black"/>
<path d="M9.91154 1.92308H6.86182V18.8462H9.91154V1.92308Z" fill="black"/>
<path d="M16.7736 0.769226H13.7239V17.6923H16.7736V0.769226Z" fill="black"/>
<path d="M111.219 8.87614L105.89 2.90211H102.776V16.734H106.028V7.90901L110.892 13.1375H111.493L116.274 7.90901V16.734H119.526V2.90211H116.411L111.219 8.87614Z" fill="black"/>
<path d="M135.021 2.90211L126.96 11.8924V2.90211H123.708V16.734H126.687L134.748 7.74379V16.734H138V2.90211H135.021Z" fill="black"/>
<path d="M85.2589 7.96341C85.2589 10.1656 86.4531 11.9004 88.2861 12.6278L84.8489 16.734H88.8295L91.9563 12.9985H95.3398V16.734H98.592V2.90211H90.3123C87.2253 2.90211 85.2589 5.03181 85.2589 7.96341ZM95.3418 5.94856V10.0387H90.9153C89.4385 10.0387 88.6464 9.20859 88.6464 7.99162C88.6464 6.77465 89.4664 5.94453 90.9153 5.94453L95.3418 5.94856Z" fill="black"/>
<path d="M70.1464 5.6685C69.9474 10.4256 68.9523 13.4962 67.0037 13.4962H66.5161V16.8167L67.0356 16.8449C70.9426 17.0645 73.102 13.607 73.4563 6.05535H78.5953V16.734H81.8415V2.90211H70.2559L70.1464 5.6685Z" fill="black"/>
<path d="M57.904 2.70877C53.5054 2.70877 50.3408 5.7794 50.3408 9.81715C50.3408 13.9939 53.7841 16.9558 57.904 16.9558C62.1951 16.9558 65.5289 13.8287 65.5289 9.81715C65.5289 5.80559 62.1951 2.70877 57.904 2.70877ZM57.904 13.6353C55.4181 13.6353 53.7243 12.0033 53.7243 9.81715C53.7243 7.57664 55.4201 5.98894 57.904 5.98894C60.3879 5.98894 62.1394 7.64918 62.1394 9.81715C62.1394 11.9851 60.364 13.6353 57.904 13.6353Z" fill="black"/>
<path d="M46.8917 2.92822H35.4135L35.3041 5.69461C35.1409 9.67998 34.1099 13.4699 32.1614 13.5243L31.2598 13.5525V20L34.5398 19.9934V16.736H45.9343V19.9934H49.2422V13.5243H46.8917V2.92822ZM43.6395 13.5243H36.6993C37.8736 11.7271 38.5025 9.12589 38.612 6.08347H43.6395V13.5243Z" fill="black"/>
</g>
<defs>
<clipPath id="clip0_822_7128">
<rect width="138" height="20" fill="white"/>
</clipPath>
</defs>
</svg>
