<svg width="456" height="76" viewBox="0 0 456 76" fill="none" xmlns="http://www.w3.org/2000/svg">
<path d="M2.587 37H1.482V27.25H9.178V37H8.073V28.264H2.587V37ZM10.6904 37.013L10.8204 36.142C10.8724 36.1507 10.9157 36.1594 10.9504 36.168C10.985 36.168 11.0197 36.168 11.0544 36.168C11.4184 36.168 11.6784 35.908 11.8344 35.388C11.999 34.868 12.103 34.0274 12.1464 32.866L12.2374 30.604H16.7224V37H15.6954V31.488H13.1994L13.1474 32.97C13.0867 34.426 12.909 35.479 12.6144 36.129C12.3197 36.779 11.843 37.104 11.1844 37.104C11.089 37.104 11.0067 37.0954 10.9374 37.078C10.868 37.0694 10.7857 37.0477 10.6904 37.013ZM23.7531 37H22.8171L22.7911 35.726C22.5398 36.168 22.2018 36.5104 21.7771 36.753C21.3611 36.987 20.8931 37.104 20.3731 37.104C19.7578 37.104 19.2681 36.9437 18.9041 36.623C18.5401 36.3024 18.3581 35.8734 18.3581 35.336C18.3581 34.816 18.5488 34.3914 18.9301 34.062C19.3115 33.7327 19.9745 33.4467 20.9191 33.204L22.7651 32.762C22.7131 32.3114 22.5441 31.969 22.2581 31.735C21.9808 31.4924 21.5995 31.371 21.1141 31.371C20.6288 31.371 20.2345 31.4794 19.9311 31.696C19.6278 31.9127 19.4198 32.2334 19.3071 32.658L18.3451 32.476C18.4925 31.8607 18.8131 31.3797 19.3071 31.033C19.8011 30.6777 20.4078 30.5 21.1271 30.5C21.9418 30.5 22.5831 30.721 23.0511 31.163C23.5191 31.605 23.7531 32.216 23.7531 32.996V37ZM19.4241 35.245C19.4241 35.5484 19.5238 35.791 19.7231 35.973C19.9225 36.1464 20.1911 36.233 20.5291 36.233C21.1705 36.233 21.7035 36.0034 22.1281 35.544C22.5615 35.076 22.7781 34.4737 22.7781 33.737V33.594L20.9321 34.049C20.3861 34.1877 19.9961 34.3524 19.7621 34.543C19.5368 34.725 19.4241 34.959 19.4241 35.245ZM28.2024 37H27.1754V31.488H24.9524V30.604H30.4254V31.488H28.2024V37ZM34.3418 37.104C33.3625 37.104 32.5695 36.7964 31.9628 36.181C31.3648 35.557 31.0658 34.751 31.0658 33.763C31.0658 32.8184 31.3692 32.0384 31.9758 31.423C32.5825 30.8077 33.3495 30.5 34.2768 30.5C35.1782 30.5 35.9148 30.7817 36.4868 31.345C37.0588 31.9084 37.3448 32.632 37.3448 33.516C37.3448 33.5854 37.3362 33.685 37.3188 33.815C37.3102 33.9364 37.3058 34.01 37.3058 34.036H32.1318C32.1925 34.7034 32.4178 35.232 32.8078 35.622C33.2065 36.0034 33.7178 36.194 34.3418 36.194C34.8445 36.194 35.2605 36.0814 35.5898 35.856C35.9192 35.6307 36.1532 35.3014 36.2918 34.868L37.2798 35.05C37.1238 35.6827 36.7815 36.1854 36.2528 36.558C35.7328 36.922 35.0958 37.104 34.3418 37.104ZM34.2768 31.384C33.7395 31.384 33.2802 31.5487 32.8988 31.878C32.5175 32.1987 32.2748 32.632 32.1708 33.178H36.2528C36.2182 32.6494 36.0145 32.2204 35.6418 31.891C35.2778 31.553 34.8228 31.384 34.2768 31.384ZM38.079 30.604H39.236L41.043 33.191H41.888V30.604H42.863V33.191H43.695L45.528 30.604H46.672L44.475 33.594L46.841 37H45.671L43.656 34.101H42.863V37H41.888V34.101H41.082L39.054 37H37.923L40.263 33.659L38.079 30.604ZM53.574 37.104C52.6467 37.104 51.8753 36.7877 51.26 36.155C50.6533 35.5224 50.35 34.725 50.35 33.763C50.35 32.827 50.6533 32.0514 51.26 31.436C51.8753 30.812 52.6467 30.5 53.574 30.5C54.3367 30.5 54.978 30.7037 55.498 31.111C56.0267 31.5097 56.369 32.0557 56.525 32.749L55.485 32.931C55.3723 32.463 55.147 32.099 54.809 31.839C54.471 31.5704 54.0593 31.436 53.574 31.436C52.9413 31.436 52.4213 31.6527 52.014 32.086C51.6153 32.5194 51.416 33.0784 51.416 33.763C51.416 34.4737 51.6153 35.0544 52.014 35.505C52.4213 35.947 52.9413 36.168 53.574 36.168C54.0853 36.168 54.5143 36.0294 54.861 35.752C55.2077 35.4747 55.433 35.089 55.537 34.595L56.564 34.764C56.4427 35.4574 56.1047 36.0207 55.55 36.454C55.004 36.8874 54.3453 37.104 53.574 37.104ZM60.7862 37.104C59.8068 37.104 59.0138 36.7964 58.4072 36.181C57.8092 35.557 57.5102 34.751 57.5102 33.763C57.5102 32.8184 57.8135 32.0384 58.4202 31.423C59.0268 30.8077 59.7938 30.5 60.7212 30.5C61.6225 30.5 62.3592 30.7817 62.9312 31.345C63.5032 31.9084 63.7892 32.632 63.7892 33.516C63.7892 33.5854 63.7805 33.685 63.7632 33.815C63.7545 33.9364 63.7502 34.01 63.7502 34.036H58.5762C58.6368 34.7034 58.8622 35.232 59.2522 35.622C59.6508 36.0034 60.1622 36.194 60.7862 36.194C61.2888 36.194 61.7048 36.0814 62.0342 35.856C62.3635 35.6307 62.5975 35.3014 62.7362 34.868L63.7242 35.05C63.5682 35.6827 63.2258 36.1854 62.6972 36.558C62.1772 36.922 61.5402 37.104 60.7862 37.104ZM60.7212 31.384C60.1838 31.384 59.7245 31.5487 59.3432 31.878C58.9618 32.1987 58.7192 32.632 58.6152 33.178H62.6972C62.6625 32.6494 62.4588 32.2204 62.0862 31.891C61.7222 31.553 61.2672 31.384 60.7212 31.384ZM66.4452 37H65.4312V30.604H69.6822V31.488H66.4452V37ZM70.4975 33.789C70.4975 32.8357 70.8095 32.0514 71.4335 31.436C72.0575 30.812 72.8461 30.5 73.7995 30.5C74.7528 30.5 75.5415 30.812 76.1655 31.436C76.7895 32.0514 77.1015 32.8357 77.1015 33.789C77.1015 34.751 76.7895 35.544 76.1655 36.168C75.5415 36.792 74.7528 37.104 73.7995 37.104C72.8461 37.104 72.0575 36.792 71.4335 36.168C70.8095 35.544 70.4975 34.751 70.4975 33.789ZM76.0355 33.789C76.0355 33.0957 75.8275 32.5324 75.4115 32.099C74.9955 31.657 74.4581 31.436 73.7995 31.436C73.1408 31.436 72.6035 31.657 72.1875 32.099C71.7715 32.5324 71.5635 33.0957 71.5635 33.789C71.5635 34.491 71.7715 35.063 72.1875 35.505C72.6035 35.947 73.1408 36.168 73.7995 36.168C74.4581 36.168 74.9955 35.947 75.4115 35.505C75.8275 35.063 76.0355 34.491 76.0355 33.789ZM78.7492 39.015H77.7742V36.116H78.3722C78.6236 35.8734 78.8012 35.5137 78.9052 35.037C79.0092 34.5604 79.0829 33.8194 79.1262 32.814L79.2042 30.604H83.7672V36.116H84.6382V39.015H83.6502V37H78.7492V39.015ZM80.1662 31.488L80.1142 32.775C80.0796 33.6417 80.0059 34.3437 79.8932 34.881C79.7892 35.4097 79.6376 35.8214 79.4382 36.116H82.7532V31.488H80.1662ZM87.037 37H86.023V30.604H87.037V33.178H90.404V30.604H91.431V37H90.404V34.075H87.037V37ZM93.226 32.567C93.226 31.9864 93.4124 31.514 93.785 31.15C94.1577 30.786 94.6387 30.604 95.228 30.604H98.335V37H97.334V34.491H95.904L94.032 37H92.888L94.812 34.426C94.3267 34.348 93.941 34.1444 93.655 33.815C93.369 33.477 93.226 33.061 93.226 32.567ZM94.292 32.541C94.292 32.8964 94.396 33.1694 94.604 33.36C94.812 33.542 95.111 33.633 95.501 33.633H97.334V31.449H95.514C95.124 31.449 94.8207 31.5444 94.604 31.735C94.396 31.917 94.292 32.1857 94.292 32.541Z" fill="black" fill-opacity="0.6"/>
<path d="M36.135 13.425H41.115V15H33.81V13.65L36.585 10.86C37.585 9.88003 38.255 9.12503 38.595 8.59503C38.945 8.06503 39.12 7.54003 39.12 7.02003C39.12 6.45003 38.945 5.99503 38.595 5.65503C38.255 5.30503 37.8 5.13003 37.23 5.13003C36.66 5.13003 36.18 5.30503 35.79 5.65503C35.41 5.99503 35.18 6.47003 35.1 7.08003L33.48 6.76503C33.65 5.78503 34.075 5.01503 34.755 4.45503C35.445 3.89503 36.295 3.61503 37.305 3.61503C38.355 3.61503 39.2 3.92503 39.84 4.54503C40.49 5.15503 40.815 5.96503 40.815 6.97503C40.815 7.63503 40.625 8.28003 40.245 8.91003C39.875 9.53003 39.095 10.435 37.905 11.625L36.135 13.425ZM46.4848 7.66503C47.5648 7.66503 48.4398 8.00503 49.1098 8.68503C49.7898 9.35503 50.1298 10.23 50.1298 11.31C50.1298 12.44 49.7598 13.36 49.0198 14.07C48.2898 14.78 47.3298 15.135 46.1398 15.135C45.1098 15.135 44.2448 14.88 43.5448 14.37C42.8548 13.85 42.4248 13.125 42.2548 12.195L43.9048 11.76C43.9948 12.35 44.2398 12.805 44.6398 13.125C45.0398 13.445 45.5398 13.605 46.1398 13.605C46.8298 13.605 47.3848 13.4 47.8048 12.99C48.2248 12.58 48.4348 12.035 48.4348 11.355C48.4348 10.685 48.2248 10.14 47.8048 9.72003C47.3948 9.30003 46.8598 9.09003 46.1998 9.09003C45.7798 9.09003 45.3998 9.17003 45.0598 9.33003C44.7298 9.48003 44.4748 9.69003 44.2948 9.96003L42.9298 9.57003L43.8748 3.75003H49.6498V5.23503H45.2098L44.7298 8.08503C44.9998 7.94503 45.2798 7.84003 45.5698 7.77003C45.8598 7.70003 46.1648 7.66503 46.4848 7.66503ZM57.4129 6.39003C57.4129 7.20003 57.1379 7.87003 56.5879 8.40003C56.0479 8.92003 55.3579 9.18003 54.5179 9.18003C53.6779 9.18003 52.9829 8.91503 52.4329 8.38503C51.8829 7.85503 51.6079 7.19003 51.6079 6.39003C51.6079 5.59003 51.8829 4.93003 52.4329 4.41003C52.9829 3.88003 53.6779 3.61503 54.5179 3.61503C55.3579 3.61503 56.0479 3.87503 56.5879 4.39503C57.1379 4.91503 57.4129 5.58003 57.4129 6.39003ZM54.5179 7.95003C54.9579 7.95003 55.3229 7.80503 55.6129 7.51503C55.9129 7.21503 56.0629 6.84003 56.0629 6.39003C56.0629 5.94003 55.9129 5.57003 55.6129 5.28003C55.3229 4.98003 54.9579 4.83003 54.5179 4.83003C54.0679 4.83003 53.6929 4.98003 53.3929 5.28003C53.1029 5.57003 52.9579 5.94003 52.9579 6.39003C52.9579 6.84003 53.1029 7.21503 53.3929 7.51503C53.6929 7.80503 54.0679 7.95003 54.5179 7.95003ZM64.2829 12.345C64.2829 13.155 64.0079 13.825 63.4579 14.355C62.9179 14.875 62.2279 15.135 61.3879 15.135C60.5479 15.135 59.8529 14.87 59.3029 14.34C58.7529 13.81 58.4779 13.145 58.4779 12.345C58.4779 11.545 58.7529 10.885 59.3029 10.365C59.8529 9.83503 60.5479 9.57003 61.3879 9.57003C62.2279 9.57003 62.9179 9.83003 63.4579 10.35C64.0079 10.87 64.2829 11.535 64.2829 12.345ZM61.3879 13.905C61.8279 13.905 62.1929 13.76 62.4829 13.47C62.7829 13.17 62.9329 12.795 62.9329 12.345C62.9329 11.895 62.7829 11.525 62.4829 11.235C62.1929 10.935 61.8279 10.785 61.3879 10.785C60.9379 10.785 60.5629 10.935 60.2629 11.235C59.9729 11.525 59.8279 11.895 59.8279 12.345C59.8279 12.795 59.9729 13.17 60.2629 13.47C60.5629 13.76 60.9379 13.905 61.3879 13.905ZM62.6029 4.18503L54.2629 15.27L53.2879 14.565L61.6429 3.48003L62.6029 4.18503Z" fill="black"/>
<path d="M126.251 33.217C125.133 33.217 124.279 32.9614 123.69 32.45C123.101 31.93 122.806 31.176 122.806 30.188V27.25H123.911V29.941C123.911 30.7124 124.11 31.28 124.509 31.644C124.916 32.008 125.549 32.19 126.407 32.19C126.823 32.19 127.222 32.151 127.603 32.073C127.984 31.995 128.383 31.8737 128.799 31.709V27.25H129.904V37H128.799V32.723C128.314 32.8964 127.863 33.022 127.447 33.1C127.04 33.178 126.641 33.217 126.251 33.217ZM135.217 37.104C134.238 37.104 133.445 36.7964 132.838 36.181C132.24 35.557 131.941 34.751 131.941 33.763C131.941 32.8184 132.244 32.0384 132.851 31.423C133.458 30.8077 134.225 30.5 135.152 30.5C136.053 30.5 136.79 30.7817 137.362 31.345C137.934 31.9084 138.22 32.632 138.22 33.516C138.22 33.5854 138.211 33.685 138.194 33.815C138.185 33.9364 138.181 34.01 138.181 34.036H133.007C133.068 34.7034 133.293 35.232 133.683 35.622C134.082 36.0034 134.593 36.194 135.217 36.194C135.72 36.194 136.136 36.0814 136.465 35.856C136.794 35.6307 137.028 35.3014 137.167 34.868L138.155 35.05C137.999 35.6827 137.657 36.1854 137.128 36.558C136.608 36.922 135.971 37.104 135.217 37.104ZM135.152 31.384C134.615 31.384 134.155 31.5487 133.774 31.878C133.393 32.1987 133.15 32.632 133.046 33.178H137.128C137.093 32.6494 136.89 32.2204 136.517 31.891C136.153 31.553 135.698 31.384 135.152 31.384ZM139.862 39.86V30.604H140.837L140.863 31.709C141.14 31.319 141.478 31.02 141.877 30.812C142.284 30.604 142.726 30.5 143.203 30.5C144.096 30.5 144.837 30.812 145.426 31.436C146.015 32.06 146.31 32.8444 146.31 33.789C146.31 34.7424 146.015 35.5354 145.426 36.168C144.837 36.792 144.096 37.104 143.203 37.104C142.726 37.104 142.289 37.0044 141.89 36.805C141.491 36.597 141.153 36.3024 140.876 35.921V39.86H139.862ZM145.244 33.789C145.244 33.0957 145.04 32.5324 144.633 32.099C144.226 31.657 143.701 31.436 143.06 31.436C142.419 31.436 141.894 31.657 141.487 32.099C141.08 32.5324 140.876 33.0957 140.876 33.789C140.876 34.491 141.08 35.063 141.487 35.505C141.894 35.947 142.419 36.168 143.06 36.168C143.701 36.168 144.226 35.947 144.633 35.505C145.04 35.063 145.244 34.491 145.244 33.789ZM150.705 37.104C149.726 37.104 148.933 36.7964 148.326 36.181C147.728 35.557 147.429 34.751 147.429 33.763C147.429 32.8184 147.732 32.0384 148.339 31.423C148.946 30.8077 149.713 30.5 150.64 30.5C151.541 30.5 152.278 30.7817 152.85 31.345C153.422 31.9084 153.708 32.632 153.708 33.516C153.708 33.5854 153.699 33.685 153.682 33.815C153.673 33.9364 153.669 34.01 153.669 34.036H148.495C148.556 34.7034 148.781 35.232 149.171 35.622C149.57 36.0034 150.081 36.194 150.705 36.194C151.208 36.194 151.624 36.0814 151.953 35.856C152.282 35.6307 152.516 35.3014 152.655 34.868L153.643 35.05C153.487 35.6827 153.145 36.1854 152.616 36.558C152.096 36.922 151.459 37.104 150.705 37.104ZM150.64 31.384C150.103 31.384 149.643 31.5487 149.262 31.878C148.881 32.1987 148.638 32.632 148.534 33.178H152.616C152.581 32.6494 152.378 32.2204 152.005 31.891C151.641 31.553 151.186 31.384 150.64 31.384ZM160.017 35.167C160.017 35.765 159.775 36.2374 159.289 36.584C158.804 36.9307 158.158 37.104 157.352 37.104C156.642 37.104 156.052 36.961 155.584 36.675C155.116 36.3804 154.8 35.96 154.635 35.414L155.636 35.115C155.74 35.479 155.94 35.7564 156.234 35.947C156.529 36.129 156.906 36.22 157.365 36.22C157.868 36.22 158.258 36.1247 158.535 35.934C158.813 35.7434 158.951 35.4704 158.951 35.115C158.951 34.8117 158.843 34.5734 158.626 34.4C158.41 34.2267 158.119 34.14 157.755 34.14H156.611V33.269H157.729C158.067 33.269 158.34 33.1867 158.548 33.022C158.756 32.8487 158.86 32.619 158.86 32.333C158.86 32.021 158.735 31.7827 158.483 31.618C158.241 31.4534 157.89 31.371 157.43 31.371C156.971 31.371 156.603 31.462 156.325 31.644C156.048 31.826 155.862 32.0947 155.766 32.45L154.804 32.229C154.952 31.683 155.255 31.2584 155.714 30.955C156.182 30.6517 156.767 30.5 157.469 30.5C158.206 30.5 158.795 30.6604 159.237 30.981C159.679 31.3017 159.9 31.7264 159.9 32.255C159.9 32.5844 159.805 32.8704 159.614 33.113C159.424 33.3557 159.155 33.5377 158.808 33.659C159.19 33.7544 159.484 33.9364 159.692 34.205C159.909 34.465 160.017 34.7857 160.017 35.167ZM165.673 35.973H170.379V37H164.178V36.09L167.116 33.048C167.853 32.3027 168.342 31.7177 168.585 31.293C168.836 30.8597 168.962 30.4264 168.962 29.993C168.962 29.447 168.784 29.005 168.429 28.667C168.082 28.329 167.627 28.16 167.064 28.16C166.501 28.16 166.033 28.3247 165.66 28.654C165.287 28.9747 165.058 29.4297 164.971 30.019L163.905 29.798C164.052 28.9747 164.412 28.329 164.984 27.861C165.565 27.3844 166.275 27.146 167.116 27.146C168 27.146 168.715 27.406 169.261 27.926C169.807 28.446 170.08 29.1264 170.08 29.967C170.08 30.4957 169.946 31.007 169.677 31.501C169.417 31.9864 168.854 32.6754 167.987 33.568L165.673 35.973ZM175.788 37H174.774V30.604H175.788V33.178H179.155V30.604H180.182V37H179.155V34.075H175.788V37ZM185.084 37.104C184.105 37.104 183.312 36.7964 182.705 36.181C182.107 35.557 181.808 34.751 181.808 33.763C181.808 32.8184 182.111 32.0384 182.718 31.423C183.325 30.8077 184.092 30.5 185.019 30.5C185.92 30.5 186.657 30.7817 187.229 31.345C187.801 31.9084 188.087 32.632 188.087 33.516C188.087 33.5854 188.078 33.685 188.061 33.815C188.052 33.9364 188.048 34.01 188.048 34.036H182.874C182.935 34.7034 183.16 35.232 183.55 35.622C183.949 36.0034 184.46 36.194 185.084 36.194C185.587 36.194 186.003 36.0814 186.332 35.856C186.661 35.6307 186.895 35.3014 187.034 34.868L188.022 35.05C187.866 35.6827 187.524 36.1854 186.995 36.558C186.475 36.922 185.838 37.104 185.084 37.104ZM185.019 31.384C184.482 31.384 184.022 31.5487 183.641 31.878C183.26 32.1987 183.017 32.632 182.913 33.178H186.995C186.96 32.6494 186.757 32.2204 186.384 31.891C186.02 31.553 185.565 31.384 185.019 31.384ZM189.755 39.015H188.78V36.116H189.378C189.629 35.8734 189.807 35.5137 189.911 35.037C190.015 34.5604 190.089 33.8194 190.132 32.814L190.21 30.604H194.773V36.116H195.644V39.015H194.656V37H189.755V39.015ZM191.172 31.488L191.12 32.775C191.085 33.6417 191.012 34.3437 190.899 34.881C190.795 35.4097 190.643 35.8214 190.444 36.116H193.759V31.488H191.172ZM199.798 37.104C198.819 37.104 198.026 36.7964 197.419 36.181C196.821 35.557 196.522 34.751 196.522 33.763C196.522 32.8184 196.825 32.0384 197.432 31.423C198.039 30.8077 198.806 30.5 199.733 30.5C200.634 30.5 201.371 30.7817 201.943 31.345C202.515 31.9084 202.801 32.632 202.801 33.516C202.801 33.5854 202.792 33.685 202.775 33.815C202.766 33.9364 202.762 34.01 202.762 34.036H197.588C197.649 34.7034 197.874 35.232 198.264 35.622C198.663 36.0034 199.174 36.194 199.798 36.194C200.301 36.194 200.717 36.0814 201.046 35.856C201.375 35.6307 201.609 35.3014 201.748 34.868L202.736 35.05C202.58 35.6827 202.238 36.1854 201.709 36.558C201.189 36.922 200.552 37.104 199.798 37.104ZM199.733 31.384C199.196 31.384 198.736 31.5487 198.355 31.878C197.974 32.1987 197.731 32.632 197.627 33.178H201.709C201.674 32.6494 201.471 32.2204 201.098 31.891C200.734 31.553 200.279 31.384 199.733 31.384ZM203.416 37.013L203.546 36.142C203.598 36.1507 203.641 36.1594 203.676 36.168C203.711 36.168 203.745 36.168 203.78 36.168C204.144 36.168 204.404 35.908 204.56 35.388C204.725 34.868 204.829 34.0274 204.872 32.866L204.963 30.604H209.448V37H208.421V31.488H205.925L205.873 32.97C205.812 34.426 205.635 35.479 205.34 36.129C205.045 36.779 204.569 37.104 203.91 37.104C203.815 37.104 203.732 37.0954 203.663 37.078C203.594 37.0694 203.511 37.0477 203.416 37.013ZM212.553 37H211.578V30.604H212.553V35.505L215.959 30.604H216.934V37H215.959V32.099L212.553 37Z" fill="black" fill-opacity="0.6"/>
<path d="M157.135 13.425H162.115V15H154.81V13.65L157.585 10.86C158.585 9.88003 159.255 9.12503 159.595 8.59503C159.945 8.06503 160.12 7.54003 160.12 7.02003C160.12 6.45003 159.945 5.99503 159.595 5.65503C159.255 5.30503 158.8 5.13003 158.23 5.13003C157.66 5.13003 157.18 5.30503 156.79 5.65503C156.41 5.99503 156.18 6.47003 156.1 7.08003L154.48 6.76503C154.65 5.78503 155.075 5.01503 155.755 4.45503C156.445 3.89503 157.295 3.61503 158.305 3.61503C159.355 3.61503 160.2 3.92503 160.84 4.54503C161.49 5.15503 161.815 5.96503 161.815 6.97503C161.815 7.63503 161.625 8.28003 161.245 8.91003C160.875 9.53003 160.095 10.435 158.905 11.625L157.135 13.425ZM167.485 7.66503C168.565 7.66503 169.44 8.00503 170.11 8.68503C170.79 9.35503 171.13 10.23 171.13 11.31C171.13 12.44 170.76 13.36 170.02 14.07C169.29 14.78 168.33 15.135 167.14 15.135C166.11 15.135 165.245 14.88 164.545 14.37C163.855 13.85 163.425 13.125 163.255 12.195L164.905 11.76C164.995 12.35 165.24 12.805 165.64 13.125C166.04 13.445 166.54 13.605 167.14 13.605C167.83 13.605 168.385 13.4 168.805 12.99C169.225 12.58 169.435 12.035 169.435 11.355C169.435 10.685 169.225 10.14 168.805 9.72003C168.395 9.30003 167.86 9.09003 167.2 9.09003C166.78 9.09003 166.4 9.17003 166.06 9.33003C165.73 9.48003 165.475 9.69003 165.295 9.96003L163.93 9.57003L164.875 3.75003H170.65V5.23503H166.21L165.73 8.08503C166 7.94503 166.28 7.84003 166.57 7.77003C166.86 7.70003 167.165 7.66503 167.485 7.66503ZM178.413 6.39003C178.413 7.20003 178.138 7.87003 177.588 8.40003C177.048 8.92003 176.358 9.18003 175.518 9.18003C174.678 9.18003 173.983 8.91503 173.433 8.38503C172.883 7.85503 172.608 7.19003 172.608 6.39003C172.608 5.59003 172.883 4.93003 173.433 4.41003C173.983 3.88003 174.678 3.61503 175.518 3.61503C176.358 3.61503 177.048 3.87503 177.588 4.39503C178.138 4.91503 178.413 5.58003 178.413 6.39003ZM175.518 7.95003C175.958 7.95003 176.323 7.80503 176.613 7.51503C176.913 7.21503 177.063 6.84003 177.063 6.39003C177.063 5.94003 176.913 5.57003 176.613 5.28003C176.323 4.98003 175.958 4.83003 175.518 4.83003C175.068 4.83003 174.693 4.98003 174.393 5.28003C174.103 5.57003 173.958 5.94003 173.958 6.39003C173.958 6.84003 174.103 7.21503 174.393 7.51503C174.693 7.80503 175.068 7.95003 175.518 7.95003ZM185.283 12.345C185.283 13.155 185.008 13.825 184.458 14.355C183.918 14.875 183.228 15.135 182.388 15.135C181.548 15.135 180.853 14.87 180.303 14.34C179.753 13.81 179.478 13.145 179.478 12.345C179.478 11.545 179.753 10.885 180.303 10.365C180.853 9.83503 181.548 9.57003 182.388 9.57003C183.228 9.57003 183.918 9.83003 184.458 10.35C185.008 10.87 185.283 11.535 185.283 12.345ZM182.388 13.905C182.828 13.905 183.193 13.76 183.483 13.47C183.783 13.17 183.933 12.795 183.933 12.345C183.933 11.895 183.783 11.525 183.483 11.235C183.193 10.935 182.828 10.785 182.388 10.785C181.938 10.785 181.563 10.935 181.263 11.235C180.973 11.525 180.828 11.895 180.828 12.345C180.828 12.795 180.973 13.17 181.263 13.47C181.563 13.76 181.938 13.905 182.388 13.905ZM183.603 4.18503L175.263 15.27L174.288 14.565L182.643 3.48003L183.603 4.18503Z" fill="black"/>
<path d="M245.251 33.217C244.133 33.217 243.279 32.9614 242.69 32.45C242.101 31.93 241.806 31.176 241.806 30.188V27.25H242.911V29.941C242.911 30.7124 243.11 31.28 243.509 31.644C243.916 32.008 244.549 32.19 245.407 32.19C245.823 32.19 246.222 32.151 246.603 32.073C246.984 31.995 247.383 31.8737 247.799 31.709V27.25H248.904V37H247.799V32.723C247.314 32.8964 246.863 33.022 246.447 33.1C246.04 33.178 245.641 33.217 245.251 33.217ZM254.217 37.104C253.238 37.104 252.445 36.7964 251.838 36.181C251.24 35.557 250.941 34.751 250.941 33.763C250.941 32.8184 251.244 32.0384 251.851 31.423C252.458 30.8077 253.225 30.5 254.152 30.5C255.053 30.5 255.79 30.7817 256.362 31.345C256.934 31.9084 257.22 32.632 257.22 33.516C257.22 33.5854 257.211 33.685 257.194 33.815C257.185 33.9364 257.181 34.01 257.181 34.036H252.007C252.068 34.7034 252.293 35.232 252.683 35.622C253.082 36.0034 253.593 36.194 254.217 36.194C254.72 36.194 255.136 36.0814 255.465 35.856C255.794 35.6307 256.028 35.3014 256.167 34.868L257.155 35.05C256.999 35.6827 256.657 36.1854 256.128 36.558C255.608 36.922 254.971 37.104 254.217 37.104ZM254.152 31.384C253.615 31.384 253.155 31.5487 252.774 31.878C252.393 32.1987 252.15 32.632 252.046 33.178H256.128C256.093 32.6494 255.89 32.2204 255.517 31.891C255.153 31.553 254.698 31.384 254.152 31.384ZM258.862 39.86V30.604H259.837L259.863 31.709C260.14 31.319 260.478 31.02 260.877 30.812C261.284 30.604 261.726 30.5 262.203 30.5C263.096 30.5 263.837 30.812 264.426 31.436C265.015 32.06 265.31 32.8444 265.31 33.789C265.31 34.7424 265.015 35.5354 264.426 36.168C263.837 36.792 263.096 37.104 262.203 37.104C261.726 37.104 261.289 37.0044 260.89 36.805C260.491 36.597 260.153 36.3024 259.876 35.921V39.86H258.862ZM264.244 33.789C264.244 33.0957 264.04 32.5324 263.633 32.099C263.226 31.657 262.701 31.436 262.06 31.436C261.419 31.436 260.894 31.657 260.487 32.099C260.08 32.5324 259.876 33.0957 259.876 33.789C259.876 34.491 260.08 35.063 260.487 35.505C260.894 35.947 261.419 36.168 262.06 36.168C262.701 36.168 263.226 35.947 263.633 35.505C264.04 35.063 264.244 34.491 264.244 33.789ZM269.705 37.104C268.726 37.104 267.933 36.7964 267.326 36.181C266.728 35.557 266.429 34.751 266.429 33.763C266.429 32.8184 266.732 32.0384 267.339 31.423C267.946 30.8077 268.713 30.5 269.64 30.5C270.541 30.5 271.278 30.7817 271.85 31.345C272.422 31.9084 272.708 32.632 272.708 33.516C272.708 33.5854 272.699 33.685 272.682 33.815C272.673 33.9364 272.669 34.01 272.669 34.036H267.495C267.556 34.7034 267.781 35.232 268.171 35.622C268.57 36.0034 269.081 36.194 269.705 36.194C270.208 36.194 270.624 36.0814 270.953 35.856C271.282 35.6307 271.516 35.3014 271.655 34.868L272.643 35.05C272.487 35.6827 272.145 36.1854 271.616 36.558C271.096 36.922 270.459 37.104 269.705 37.104ZM269.64 31.384C269.103 31.384 268.643 31.5487 268.262 31.878C267.881 32.1987 267.638 32.632 267.534 33.178H271.616C271.581 32.6494 271.378 32.2204 271.005 31.891C270.641 31.553 270.186 31.384 269.64 31.384ZM279.017 35.167C279.017 35.765 278.775 36.2374 278.289 36.584C277.804 36.9307 277.158 37.104 276.352 37.104C275.642 37.104 275.052 36.961 274.584 36.675C274.116 36.3804 273.8 35.96 273.635 35.414L274.636 35.115C274.74 35.479 274.94 35.7564 275.234 35.947C275.529 36.129 275.906 36.22 276.365 36.22C276.868 36.22 277.258 36.1247 277.535 35.934C277.813 35.7434 277.951 35.4704 277.951 35.115C277.951 34.8117 277.843 34.5734 277.626 34.4C277.41 34.2267 277.119 34.14 276.755 34.14H275.611V33.269H276.729C277.067 33.269 277.34 33.1867 277.548 33.022C277.756 32.8487 277.86 32.619 277.86 32.333C277.86 32.021 277.735 31.7827 277.483 31.618C277.241 31.4534 276.89 31.371 276.43 31.371C275.971 31.371 275.603 31.462 275.325 31.644C275.048 31.826 274.862 32.0947 274.766 32.45L273.804 32.229C273.952 31.683 274.255 31.2584 274.714 30.955C275.182 30.6517 275.767 30.5 276.469 30.5C277.206 30.5 277.795 30.6604 278.237 30.981C278.679 31.3017 278.9 31.7264 278.9 32.255C278.9 32.5844 278.805 32.8704 278.614 33.113C278.424 33.3557 278.155 33.5377 277.808 33.659C278.19 33.7544 278.484 33.9364 278.692 34.205C278.909 34.465 279.017 34.7857 279.017 35.167ZM288.638 37H287.546V34.647H282.801V33.698L287.208 27.25H288.638V33.646H289.977V34.647H288.638V37ZM287.546 28.446L283.958 33.646H287.546V28.446ZM295.245 37H294.231V30.604H295.245V33.178H298.612V30.604H299.639V37H298.612V34.075H295.245V37ZM304.541 37.104C303.562 37.104 302.769 36.7964 302.162 36.181C301.564 35.557 301.265 34.751 301.265 33.763C301.265 32.8184 301.568 32.0384 302.175 31.423C302.782 30.8077 303.549 30.5 304.476 30.5C305.377 30.5 306.114 30.7817 306.686 31.345C307.258 31.9084 307.544 32.632 307.544 33.516C307.544 33.5854 307.535 33.685 307.518 33.815C307.509 33.9364 307.505 34.01 307.505 34.036H302.331C302.392 34.7034 302.617 35.232 303.007 35.622C303.406 36.0034 303.917 36.194 304.541 36.194C305.044 36.194 305.46 36.0814 305.789 35.856C306.118 35.6307 306.352 35.3014 306.491 34.868L307.479 35.05C307.323 35.6827 306.981 36.1854 306.452 36.558C305.932 36.922 305.295 37.104 304.541 37.104ZM304.476 31.384C303.939 31.384 303.479 31.5487 303.098 31.878C302.717 32.1987 302.474 32.632 302.37 33.178H306.452C306.417 32.6494 306.214 32.2204 305.841 31.891C305.477 31.553 305.022 31.384 304.476 31.384ZM309.212 39.015H308.237V36.116H308.835C309.086 35.8734 309.264 35.5137 309.368 35.037C309.472 34.5604 309.546 33.8194 309.589 32.814L309.667 30.604H314.23V36.116H315.101V39.015H314.113V37H309.212V39.015ZM310.629 31.488L310.577 32.775C310.542 33.6417 310.469 34.3437 310.356 34.881C310.252 35.4097 310.1 35.8214 309.901 36.116H313.216V31.488H310.629ZM319.255 37.104C318.276 37.104 317.483 36.7964 316.876 36.181C316.278 35.557 315.979 34.751 315.979 33.763C315.979 32.8184 316.282 32.0384 316.889 31.423C317.496 30.8077 318.263 30.5 319.19 30.5C320.091 30.5 320.828 30.7817 321.4 31.345C321.972 31.9084 322.258 32.632 322.258 33.516C322.258 33.5854 322.249 33.685 322.232 33.815C322.223 33.9364 322.219 34.01 322.219 34.036H317.045C317.106 34.7034 317.331 35.232 317.721 35.622C318.12 36.0034 318.631 36.194 319.255 36.194C319.758 36.194 320.174 36.0814 320.503 35.856C320.832 35.6307 321.066 35.3014 321.205 34.868L322.193 35.05C322.037 35.6827 321.695 36.1854 321.166 36.558C320.646 36.922 320.009 37.104 319.255 37.104ZM319.19 31.384C318.653 31.384 318.193 31.5487 317.812 31.878C317.431 32.1987 317.188 32.632 317.084 33.178H321.166C321.131 32.6494 320.928 32.2204 320.555 31.891C320.191 31.553 319.736 31.384 319.19 31.384ZM322.873 37.013L323.003 36.142C323.055 36.1507 323.098 36.1594 323.133 36.168C323.168 36.168 323.202 36.168 323.237 36.168C323.601 36.168 323.861 35.908 324.017 35.388C324.182 34.868 324.286 34.0274 324.329 32.866L324.42 30.604H328.905V37H327.878V31.488H325.382L325.33 32.97C325.269 34.426 325.092 35.479 324.797 36.129C324.502 36.779 324.026 37.104 323.367 37.104C323.272 37.104 323.189 37.0954 323.12 37.078C323.051 37.0694 322.968 37.0477 322.873 37.013ZM332.01 37H331.035V30.604H332.01V35.505L335.416 30.604H336.391V37H335.416V32.099L332.01 37Z" fill="black" fill-opacity="0.6"/>
<path d="M276.135 13.425H281.115V15H273.81V13.65L276.585 10.86C277.585 9.88003 278.255 9.12503 278.595 8.59503C278.945 8.06503 279.12 7.54003 279.12 7.02003C279.12 6.45003 278.945 5.99503 278.595 5.65503C278.255 5.30503 277.8 5.13003 277.23 5.13003C276.66 5.13003 276.18 5.30503 275.79 5.65503C275.41 5.99503 275.18 6.47003 275.1 7.08003L273.48 6.76503C273.65 5.78503 274.075 5.01503 274.755 4.45503C275.445 3.89503 276.295 3.61503 277.305 3.61503C278.355 3.61503 279.2 3.92503 279.84 4.54503C280.49 5.15503 280.815 5.96503 280.815 6.97503C280.815 7.63503 280.625 8.28003 280.245 8.91003C279.875 9.53003 279.095 10.435 277.905 11.625L276.135 13.425ZM286.485 7.66503C287.565 7.66503 288.44 8.00503 289.11 8.68503C289.79 9.35503 290.13 10.23 290.13 11.31C290.13 12.44 289.76 13.36 289.02 14.07C288.29 14.78 287.33 15.135 286.14 15.135C285.11 15.135 284.245 14.88 283.545 14.37C282.855 13.85 282.425 13.125 282.255 12.195L283.905 11.76C283.995 12.35 284.24 12.805 284.64 13.125C285.04 13.445 285.54 13.605 286.14 13.605C286.83 13.605 287.385 13.4 287.805 12.99C288.225 12.58 288.435 12.035 288.435 11.355C288.435 10.685 288.225 10.14 287.805 9.72003C287.395 9.30003 286.86 9.09003 286.2 9.09003C285.78 9.09003 285.4 9.17003 285.06 9.33003C284.73 9.48003 284.475 9.69003 284.295 9.96003L282.93 9.57003L283.875 3.75003H289.65V5.23503H285.21L284.73 8.08503C285 7.94503 285.28 7.84003 285.57 7.77003C285.86 7.70003 286.165 7.66503 286.485 7.66503ZM297.413 6.39003C297.413 7.20003 297.138 7.87003 296.588 8.40003C296.048 8.92003 295.358 9.18003 294.518 9.18003C293.678 9.18003 292.983 8.91503 292.433 8.38503C291.883 7.85503 291.608 7.19003 291.608 6.39003C291.608 5.59003 291.883 4.93003 292.433 4.41003C292.983 3.88003 293.678 3.61503 294.518 3.61503C295.358 3.61503 296.048 3.87503 296.588 4.39503C297.138 4.91503 297.413 5.58003 297.413 6.39003ZM294.518 7.95003C294.958 7.95003 295.323 7.80503 295.613 7.51503C295.913 7.21503 296.063 6.84003 296.063 6.39003C296.063 5.94003 295.913 5.57003 295.613 5.28003C295.323 4.98003 294.958 4.83003 294.518 4.83003C294.068 4.83003 293.693 4.98003 293.393 5.28003C293.103 5.57003 292.958 5.94003 292.958 6.39003C292.958 6.84003 293.103 7.21503 293.393 7.51503C293.693 7.80503 294.068 7.95003 294.518 7.95003ZM304.283 12.345C304.283 13.155 304.008 13.825 303.458 14.355C302.918 14.875 302.228 15.135 301.388 15.135C300.548 15.135 299.853 14.87 299.303 14.34C298.753 13.81 298.478 13.145 298.478 12.345C298.478 11.545 298.753 10.885 299.303 10.365C299.853 9.83503 300.548 9.57003 301.388 9.57003C302.228 9.57003 302.918 9.83003 303.458 10.35C304.008 10.87 304.283 11.535 304.283 12.345ZM301.388 13.905C301.828 13.905 302.193 13.76 302.483 13.47C302.783 13.17 302.933 12.795 302.933 12.345C302.933 11.895 302.783 11.525 302.483 11.235C302.193 10.935 301.828 10.785 301.388 10.785C300.938 10.785 300.563 10.935 300.263 11.235C299.973 11.525 299.828 11.895 299.828 12.345C299.828 12.795 299.973 13.17 300.263 13.47C300.563 13.76 300.938 13.905 301.388 13.905ZM302.603 4.18503L294.263 15.27L293.288 14.565L301.643 3.48003L302.603 4.18503Z" fill="black"/>
<path d="M364.251 33.217C363.133 33.217 362.279 32.9614 361.69 32.45C361.101 31.93 360.806 31.176 360.806 30.188V27.25H361.911V29.941C361.911 30.7124 362.11 31.28 362.509 31.644C362.916 32.008 363.549 32.19 364.407 32.19C364.823 32.19 365.222 32.151 365.603 32.073C365.984 31.995 366.383 31.8737 366.799 31.709V27.25H367.904V37H366.799V32.723C366.314 32.8964 365.863 33.022 365.447 33.1C365.04 33.178 364.641 33.217 364.251 33.217ZM373.217 37.104C372.238 37.104 371.445 36.7964 370.838 36.181C370.24 35.557 369.941 34.751 369.941 33.763C369.941 32.8184 370.244 32.0384 370.851 31.423C371.458 30.8077 372.225 30.5 373.152 30.5C374.053 30.5 374.79 30.7817 375.362 31.345C375.934 31.9084 376.22 32.632 376.22 33.516C376.22 33.5854 376.211 33.685 376.194 33.815C376.185 33.9364 376.181 34.01 376.181 34.036H371.007C371.068 34.7034 371.293 35.232 371.683 35.622C372.082 36.0034 372.593 36.194 373.217 36.194C373.72 36.194 374.136 36.0814 374.465 35.856C374.794 35.6307 375.028 35.3014 375.167 34.868L376.155 35.05C375.999 35.6827 375.657 36.1854 375.128 36.558C374.608 36.922 373.971 37.104 373.217 37.104ZM373.152 31.384C372.615 31.384 372.155 31.5487 371.774 31.878C371.393 32.1987 371.15 32.632 371.046 33.178H375.128C375.093 32.6494 374.89 32.2204 374.517 31.891C374.153 31.553 373.698 31.384 373.152 31.384ZM377.862 39.86V30.604H378.837L378.863 31.709C379.14 31.319 379.478 31.02 379.877 30.812C380.284 30.604 380.726 30.5 381.203 30.5C382.096 30.5 382.837 30.812 383.426 31.436C384.015 32.06 384.31 32.8444 384.31 33.789C384.31 34.7424 384.015 35.5354 383.426 36.168C382.837 36.792 382.096 37.104 381.203 37.104C380.726 37.104 380.289 37.0044 379.89 36.805C379.491 36.597 379.153 36.3024 378.876 35.921V39.86H377.862ZM383.244 33.789C383.244 33.0957 383.04 32.5324 382.633 32.099C382.226 31.657 381.701 31.436 381.06 31.436C380.419 31.436 379.894 31.657 379.487 32.099C379.08 32.5324 378.876 33.0957 378.876 33.789C378.876 34.491 379.08 35.063 379.487 35.505C379.894 35.947 380.419 36.168 381.06 36.168C381.701 36.168 382.226 35.947 382.633 35.505C383.04 35.063 383.244 34.491 383.244 33.789ZM388.705 37.104C387.726 37.104 386.933 36.7964 386.326 36.181C385.728 35.557 385.429 34.751 385.429 33.763C385.429 32.8184 385.732 32.0384 386.339 31.423C386.946 30.8077 387.713 30.5 388.64 30.5C389.541 30.5 390.278 30.7817 390.85 31.345C391.422 31.9084 391.708 32.632 391.708 33.516C391.708 33.5854 391.699 33.685 391.682 33.815C391.673 33.9364 391.669 34.01 391.669 34.036H386.495C386.556 34.7034 386.781 35.232 387.171 35.622C387.57 36.0034 388.081 36.194 388.705 36.194C389.208 36.194 389.624 36.0814 389.953 35.856C390.282 35.6307 390.516 35.3014 390.655 34.868L391.643 35.05C391.487 35.6827 391.145 36.1854 390.616 36.558C390.096 36.922 389.459 37.104 388.705 37.104ZM388.64 31.384C388.103 31.384 387.643 31.5487 387.262 31.878C386.881 32.1987 386.638 32.632 386.534 33.178H390.616C390.581 32.6494 390.378 32.2204 390.005 31.891C389.641 31.553 389.186 31.384 388.64 31.384ZM398.017 35.167C398.017 35.765 397.775 36.2374 397.289 36.584C396.804 36.9307 396.158 37.104 395.352 37.104C394.642 37.104 394.052 36.961 393.584 36.675C393.116 36.3804 392.8 35.96 392.635 35.414L393.636 35.115C393.74 35.479 393.94 35.7564 394.234 35.947C394.529 36.129 394.906 36.22 395.365 36.22C395.868 36.22 396.258 36.1247 396.535 35.934C396.813 35.7434 396.951 35.4704 396.951 35.115C396.951 34.8117 396.843 34.5734 396.626 34.4C396.41 34.2267 396.119 34.14 395.755 34.14H394.611V33.269H395.729C396.067 33.269 396.34 33.1867 396.548 33.022C396.756 32.8487 396.86 32.619 396.86 32.333C396.86 32.021 396.735 31.7827 396.483 31.618C396.241 31.4534 395.89 31.371 395.43 31.371C394.971 31.371 394.603 31.462 394.325 31.644C394.048 31.826 393.862 32.0947 393.766 32.45L392.804 32.229C392.952 31.683 393.255 31.2584 393.714 30.955C394.182 30.6517 394.767 30.5 395.469 30.5C396.206 30.5 396.795 30.6604 397.237 30.981C397.679 31.3017 397.9 31.7264 397.9 32.255C397.9 32.5844 397.805 32.8704 397.614 33.113C397.424 33.3557 397.155 33.5377 396.808 33.659C397.19 33.7544 397.484 33.9364 397.692 34.205C397.909 34.465 398.017 34.7857 398.017 35.167ZM408.639 33.893C408.639 34.8377 408.323 35.609 407.69 36.207C407.057 36.805 406.251 37.104 405.272 37.104C404.319 37.104 403.534 36.818 402.919 36.246C402.312 35.674 402.009 34.9374 402.009 34.036C402.009 33.6374 402.07 33.243 402.191 32.853C402.321 32.463 402.512 32.0817 402.763 31.709L405.701 27.25H406.949L404.453 30.994C404.618 30.942 404.787 30.903 404.96 30.877C405.133 30.8424 405.302 30.825 405.467 30.825C406.394 30.825 407.153 31.111 407.742 31.683C408.34 32.255 408.639 32.9917 408.639 33.893ZM403.127 33.971C403.127 34.5864 403.326 35.0934 403.725 35.492C404.132 35.882 404.652 36.077 405.285 36.077C405.935 36.077 406.468 35.8734 406.884 35.466C407.3 35.0587 407.508 34.5344 407.508 33.893C407.508 33.269 407.3 32.7577 406.884 32.359C406.477 31.9604 405.948 31.761 405.298 31.761C404.995 31.761 404.709 31.813 404.44 31.917C404.171 32.021 403.937 32.1727 403.738 32.372C403.539 32.58 403.387 32.8184 403.283 33.087C403.179 33.3557 403.127 33.6504 403.127 33.971ZM414.067 37H413.053V30.604H414.067V33.178H417.434V30.604H418.461V37H417.434V34.075H414.067V37ZM423.363 37.104C422.384 37.104 421.591 36.7964 420.984 36.181C420.386 35.557 420.087 34.751 420.087 33.763C420.087 32.8184 420.391 32.0384 420.997 31.423C421.604 30.8077 422.371 30.5 423.298 30.5C424.2 30.5 424.936 30.7817 425.508 31.345C426.08 31.9084 426.366 32.632 426.366 33.516C426.366 33.5854 426.358 33.685 426.34 33.815C426.332 33.9364 426.327 34.01 426.327 34.036H421.153C421.214 34.7034 421.439 35.232 421.829 35.622C422.228 36.0034 422.739 36.194 423.363 36.194C423.866 36.194 424.282 36.0814 424.611 35.856C424.941 35.6307 425.175 35.3014 425.313 34.868L426.301 35.05C426.145 35.6827 425.803 36.1854 425.274 36.558C424.754 36.922 424.117 37.104 423.363 37.104ZM423.298 31.384C422.761 31.384 422.302 31.5487 421.92 31.878C421.539 32.1987 421.296 32.632 421.192 33.178H425.274C425.24 32.6494 425.036 32.2204 424.663 31.891C424.299 31.553 423.844 31.384 423.298 31.384ZM428.034 39.015H427.059V36.116H427.657C427.909 35.8734 428.086 35.5137 428.19 35.037C428.294 34.5604 428.368 33.8194 428.411 32.814L428.489 30.604H433.052V36.116H433.923V39.015H432.935V37H428.034V39.015ZM429.451 31.488L429.399 32.775C429.365 33.6417 429.291 34.3437 429.178 34.881C429.074 35.4097 428.923 35.8214 428.723 36.116H432.038V31.488H429.451ZM438.077 37.104C437.098 37.104 436.305 36.7964 435.698 36.181C435.1 35.557 434.801 34.751 434.801 33.763C434.801 32.8184 435.105 32.0384 435.711 31.423C436.318 30.8077 437.085 30.5 438.012 30.5C438.914 30.5 439.65 30.7817 440.222 31.345C440.794 31.9084 441.08 32.632 441.08 33.516C441.08 33.5854 441.072 33.685 441.054 33.815C441.046 33.9364 441.041 34.01 441.041 34.036H435.867C435.928 34.7034 436.153 35.232 436.543 35.622C436.942 36.0034 437.453 36.194 438.077 36.194C438.58 36.194 438.996 36.0814 439.325 35.856C439.655 35.6307 439.889 35.3014 440.027 34.868L441.015 35.05C440.859 35.6827 440.517 36.1854 439.988 36.558C439.468 36.922 438.831 37.104 438.077 37.104ZM438.012 31.384C437.475 31.384 437.016 31.5487 436.634 31.878C436.253 32.1987 436.01 32.632 435.906 33.178H439.988C439.954 32.6494 439.75 32.2204 439.377 31.891C439.013 31.553 438.558 31.384 438.012 31.384ZM441.695 37.013L441.825 36.142C441.877 36.1507 441.921 36.1594 441.955 36.168C441.99 36.168 442.025 36.168 442.059 36.168C442.423 36.168 442.683 35.908 442.839 35.388C443.004 34.868 443.108 34.0274 443.151 32.866L443.242 30.604H447.727V37H446.7V31.488H444.204L444.152 32.97C444.092 34.426 443.914 35.479 443.619 36.129C443.325 36.779 442.848 37.104 442.189 37.104C442.094 37.104 442.012 37.0954 441.942 37.078C441.873 37.0694 441.791 37.0477 441.695 37.013ZM452.587 37H449.857V30.604H450.871V32.749H452.587C453.263 32.749 453.805 32.944 454.212 33.334C454.628 33.724 454.836 34.2397 454.836 34.881C454.836 35.5137 454.628 36.025 454.212 36.415C453.805 36.805 453.263 37 452.587 37ZM453.77 34.881C453.77 34.4737 453.653 34.166 453.419 33.958C453.194 33.75 452.856 33.646 452.405 33.646H450.871V36.116H452.405C452.847 36.116 453.185 36.012 453.419 35.804C453.653 35.5874 453.77 35.2797 453.77 34.881Z" fill="black" fill-opacity="0.6"/>
<path d="M394.135 13.425H399.115V15H391.81V13.65L394.585 10.86C395.585 9.88003 396.255 9.12503 396.595 8.59503C396.945 8.06503 397.12 7.54003 397.12 7.02003C397.12 6.45003 396.945 5.99503 396.595 5.65503C396.255 5.30503 395.8 5.13003 395.23 5.13003C394.66 5.13003 394.18 5.30503 393.79 5.65503C393.41 5.99503 393.18 6.47003 393.1 7.08003L391.48 6.76503C391.65 5.78503 392.075 5.01503 392.755 4.45503C393.445 3.89503 394.295 3.61503 395.305 3.61503C396.355 3.61503 397.2 3.92503 397.84 4.54503C398.49 5.15503 398.815 5.96503 398.815 6.97503C398.815 7.63503 398.625 8.28003 398.245 8.91003C397.875 9.53003 397.095 10.435 395.905 11.625L394.135 13.425ZM404.485 7.66503C405.565 7.66503 406.44 8.00503 407.11 8.68503C407.79 9.35503 408.13 10.23 408.13 11.31C408.13 12.44 407.76 13.36 407.02 14.07C406.29 14.78 405.33 15.135 404.14 15.135C403.11 15.135 402.245 14.88 401.545 14.37C400.855 13.85 400.425 13.125 400.255 12.195L401.905 11.76C401.995 12.35 402.24 12.805 402.64 13.125C403.04 13.445 403.54 13.605 404.14 13.605C404.83 13.605 405.385 13.4 405.805 12.99C406.225 12.58 406.435 12.035 406.435 11.355C406.435 10.685 406.225 10.14 405.805 9.72003C405.395 9.30003 404.86 9.09003 404.2 9.09003C403.78 9.09003 403.4 9.17003 403.06 9.33003C402.73 9.48003 402.475 9.69003 402.295 9.96003L400.93 9.57003L401.875 3.75003H407.65V5.23503H403.21L402.73 8.08503C403 7.94503 403.28 7.84003 403.57 7.77003C403.86 7.70003 404.165 7.66503 404.485 7.66503ZM415.413 6.39003C415.413 7.20003 415.138 7.87003 414.588 8.40003C414.048 8.92003 413.358 9.18003 412.518 9.18003C411.678 9.18003 410.983 8.91503 410.433 8.38503C409.883 7.85503 409.608 7.19003 409.608 6.39003C409.608 5.59003 409.883 4.93003 410.433 4.41003C410.983 3.88003 411.678 3.61503 412.518 3.61503C413.358 3.61503 414.048 3.87503 414.588 4.39503C415.138 4.91503 415.413 5.58003 415.413 6.39003ZM412.518 7.95003C412.958 7.95003 413.323 7.80503 413.613 7.51503C413.913 7.21503 414.063 6.84003 414.063 6.39003C414.063 5.94003 413.913 5.57003 413.613 5.28003C413.323 4.98003 412.958 4.83003 412.518 4.83003C412.068 4.83003 411.693 4.98003 411.393 5.28003C411.103 5.57003 410.958 5.94003 410.958 6.39003C410.958 6.84003 411.103 7.21503 411.393 7.51503C411.693 7.80503 412.068 7.95003 412.518 7.95003ZM422.283 12.345C422.283 13.155 422.008 13.825 421.458 14.355C420.918 14.875 420.228 15.135 419.388 15.135C418.548 15.135 417.853 14.87 417.303 14.34C416.753 13.81 416.478 13.145 416.478 12.345C416.478 11.545 416.753 10.885 417.303 10.365C417.853 9.83503 418.548 9.57003 419.388 9.57003C420.228 9.57003 420.918 9.83003 421.458 10.35C422.008 10.87 422.283 11.535 422.283 12.345ZM419.388 13.905C419.828 13.905 420.193 13.76 420.483 13.47C420.783 13.17 420.933 12.795 420.933 12.345C420.933 11.895 420.783 11.525 420.483 11.235C420.193 10.935 419.828 10.785 419.388 10.785C418.938 10.785 418.563 10.935 418.263 11.235C417.973 11.525 417.828 11.895 417.828 12.345C417.828 12.795 417.973 13.17 418.263 13.47C418.563 13.76 418.938 13.905 419.388 13.905ZM420.603 4.18503L412.263 15.27L411.288 14.565L419.643 3.48003L420.603 4.18503Z" fill="black"/>
<rect width="90" height="1" transform="matrix(1 0 0 -1 65 68)" fill="#C7C9CC"/>
<rect width="89" height="1" transform="matrix(1 0 0 -1 185 68)" fill="#C7C9CC"/>
<rect width="89" height="1" transform="matrix(1 0 0 -1 304 68.001)" fill="#C7C9CC"/>
<circle cx="50" cy="67.001" r="8.25" stroke="#6FADAA" stroke-width="1.5"/>
<circle cx="50" cy="67.001" r="8.25" stroke="#6FADAA" stroke-width="1.5"/>
<rect x="41" y="67.001" width="18" height="9" fill="#F6F7F8"/>
<rect x="41" y="58.001" width="9" height="18" fill="#F6F7F8"/>
<circle cx="50" cy="67.001" r="4" fill="#242424"/>
<circle cx="170" cy="67.001" r="8.25" stroke="#6FADAA" stroke-width="1.5"/>
<rect x="161" y="58.001" width="9" height="18" fill="#F6F7F8"/>
<circle cx="170" cy="67.001" r="4" fill="#242424"/>
<circle cx="289" cy="67.001" r="8.25" stroke="#6FADAA" stroke-width="1.5"/>
<rect x="280" y="58.001" width="9" height="9" fill="#F6F7F8"/>
<circle cx="289" cy="67.001" r="4" fill="#242424"/>
<circle cx="408" cy="67.001" r="8.25" stroke="#6FADAA" stroke-width="1.5"/>
<path fill-rule="evenodd" clip-rule="evenodd" d="M407.114 68.175L405.331 66.6895C405.001 66.4143 404.496 66.4422 404.202 66.7518C403.909 67.0613 403.938 67.5354 404.269 67.8106L406.669 69.8106C407.006 70.092 407.525 70.0556 407.815 69.7302L411.815 65.2302C412.097 64.912 412.052 64.4391 411.712 64.1739C411.373 63.9087 410.868 63.9517 410.585 64.2699L407.114 68.175Z" fill="#6FADAA"/>
</svg>
