<svg xmlns="http://www.w3.org/2000/svg" viewBox="0 0 836.92 836.92"><defs><style>.cls-1{fill:#c70321;}.cls-2{fill:#fff;}.cls-3{fill:#fff6f5;}</style></defs><g id="Layer_2" data-name="Layer 2"><g id="КОЛЕСО"><circle class="cls-1" cx="418.46" cy="418.46" r="418.46"/><path class="cls-2" d="M412.72,819.17a6,6,0,0,1,5.94-5.95h0a5.94,5.94,0,0,1,5.94,5.95h0a5.94,5.94,0,0,1-5.94,5.94h0A6,6,0,0,1,412.72,819.17Z"/><path class="cls-2" d="M313.35,811.4h0a5.89,5.89,0,0,1-4.2-7.24h0a5.89,5.89,0,0,1,7.25-4.2h0a5.94,5.94,0,0,1,4.24,7.24h0a6,6,0,0,1-5.74,4.4h0A5.16,5.16,0,0,1,313.35,811.4Z"/><path class="cls-2" d="M516.71,807.09a5.89,5.89,0,0,1,4.2-7.25h0a5.94,5.94,0,0,1,7.28,4.2h0a6,6,0,0,1-4.23,7.28h0v0h0a5.22,5.22,0,0,1-1.55.24h0A5.94,5.94,0,0,1,516.71,807.09Z"/><path class="cls-2" d="M215.18,770.81a6,6,0,0,1-2.18-8.12h0a5.93,5.93,0,0,1,8.12-2.18h0a6,6,0,0,1,2.18,8.12h0a6,6,0,0,1-5.15,3h0A6.12,6.12,0,0,1,215.18,770.81Z"/><path class="cls-2" d="M614,768.43a5.93,5.93,0,0,1,2.14-8.11h0a5.92,5.92,0,0,1,8.12,2.14h0a5.93,5.93,0,0,1-2.14,8.11h0a5.86,5.86,0,0,1-3,.83h0A6,6,0,0,1,614,768.43Z"/><path class="cls-2" d="M130.91,706.14a5.9,5.9,0,0,1,0-8.4h0a5.91,5.91,0,0,1,8.39,0h0a5.94,5.94,0,0,1,0,8.4h0a6,6,0,0,1-4.2,1.74h0A5.87,5.87,0,0,1,130.91,706.14Z"/><path class="cls-2" d="M697.89,705.86a5.89,5.89,0,0,1,0-8.39h0a5.9,5.9,0,0,1,8.4,0h0a6,6,0,0,1,0,8.39h0a6,6,0,0,1-4.2,1.75h0A5.91,5.91,0,0,1,697.89,705.86Z"/><path class="cls-2" d="M66.12,622a5.91,5.91,0,0,1,2.17-8.12h0A5.94,5.94,0,0,1,76.41,616h0a5.92,5.92,0,0,1-2.18,8.11h0a5.71,5.71,0,0,1-3,.84h0A6,6,0,0,1,66.12,622Z"/><path class="cls-2" d="M762.88,623.77a6,6,0,0,1-2.18-8.12h0a6,6,0,0,1,8.12-2.14h0a6,6,0,0,1,2.18,8.12h0a6,6,0,0,1-5.15,3h0A6.15,6.15,0,0,1,762.88,623.77Z"/><path class="cls-2" d="M25.37,523.89a5.94,5.94,0,0,1,4.19-7.29h0a5.92,5.92,0,0,1,7.25,4.2h0a5.92,5.92,0,0,1-4.16,7.29h0a7.08,7.08,0,0,1-1.54.2h0A5.92,5.92,0,0,1,25.37,523.89Z"/><path class="cls-2" d="M804.38,527.65a5.91,5.91,0,0,1-4.2-7.24h0a6,6,0,0,1,7.29-4.24h0a6,6,0,0,1,4.2,7.29h0a6,6,0,0,1-5.75,4.39h0A5.14,5.14,0,0,1,804.38,527.65Z"/><path class="cls-2" d="M11.51,418.59a5.86,5.86,0,0,1,5.9-5.94h0a5.93,5.93,0,0,1,5.94,5.94h0a5.93,5.93,0,0,1-5.9,5.94h0A5.93,5.93,0,0,1,11.51,418.59Z"/><path class="cls-2" d="M813.53,418.15a1.43,1.43,0,0,1,0-.39h0a1.64,1.64,0,0,1,0-.44h0a6,6,0,0,1,5.94-6h0a5.93,5.93,0,0,1,5.94,5.94h0v.44h0v.43h0a5.93,5.93,0,0,1-5.94,5.94h0A5.93,5.93,0,0,1,813.53,418.15Z"/><path class="cls-2" d="M29.33,320.53a5.91,5.91,0,0,1-4.2-7.24h0a5.91,5.91,0,0,1,7.25-4.24h0a6,6,0,0,1,4.23,7.28h0a6,6,0,0,1-5.74,4.4h0A5.1,5.1,0,0,1,29.33,320.53Z"/><path class="cls-2" d="M800,315.07h0a5.9,5.9,0,0,1,4.19-7.25h0a5.92,5.92,0,0,1,7.29,4.16h0a6,6,0,0,1-4.2,7.29h0a5.42,5.42,0,0,1-1.54.19h0A5.94,5.94,0,0,1,800,315.07Z"/><path class="cls-2" d="M67.86,223.19a6,6,0,0,1-2.18-8.12h0a6,6,0,0,1,8.12-2.18h0A6,6,0,0,1,76,221h0a6,6,0,0,1-5.15,3h0A6.23,6.23,0,0,1,67.86,223.19Z"/><path class="cls-2" d="M760.26,219.9a6,6,0,0,1,2.18-8.11h0a6,6,0,0,1,8.12,2.17h0a6,6,0,0,1-2.18,8.12h0a6,6,0,0,1-3,.79h0A6,6,0,0,1,760.26,219.9Z"/><path class="cls-2" d="M130.31,139.16a6,6,0,0,1,0-8.4h0a5.9,5.9,0,0,1,8.4,0h0a5.92,5.92,0,0,1,0,8.4h0a6,6,0,0,1-4.2,1.74h0A6,6,0,0,1,130.31,139.16Z"/><path class="cls-2" d="M697.3,138.28a5.93,5.93,0,0,1,0-8.39h0a5.93,5.93,0,0,1,8.39,0h0a5.89,5.89,0,0,1,0,8.39h0A5.74,5.74,0,0,1,701.5,140h0A5.93,5.93,0,0,1,697.3,138.28Z"/><path class="cls-2" d="M212.29,74.05a6,6,0,0,1,2.14-8.12h0a6,6,0,0,1,8.12,2.18h0a6,6,0,0,1-2.14,8.12h0a6.35,6.35,0,0,1-3,.79h0A6,6,0,0,1,212.29,74.05Z"/><path class="cls-2" d="M615.4,75.59a6,6,0,0,1-2.18-8.12h0a5.91,5.91,0,0,1,8.12-2.17h0a5.91,5.91,0,0,1,2.18,8.12h0a6,6,0,0,1-5.15,3h0A6.25,6.25,0,0,1,615.4,75.59Z"/><path class="cls-2" d="M308.32,32.39a6,6,0,0,1,4.16-7.29h0a6,6,0,0,1,7.29,4.2h0a6,6,0,0,1-4.2,7.29h0a5.42,5.42,0,0,1-1.54.19h0A5.92,5.92,0,0,1,308.32,32.39Z"/><path class="cls-2" d="M520.08,36.27A6,6,0,0,1,515.84,29h0a6,6,0,0,1,7.29-4.2h0A5.89,5.89,0,0,1,527.32,32h0a5.92,5.92,0,0,1-5.74,4.44h0A6.73,6.73,0,0,1,520.08,36.27Z"/><path class="cls-2" d="M411.88,17.14a5.88,5.88,0,0,1,5.9-5.94h0a5.87,5.87,0,0,1,5.94,5.9h0a6,6,0,0,1-5.9,6h0A5.93,5.93,0,0,1,411.88,17.14Z"/><circle class="cls-3" cx="418.46" cy="418.46" r="379.15"/></g></g></svg>