<svg xmlns="http://www.w3.org/2000/svg" viewBox="0 0 50.02 50.02"><defs><style>.cls-1{fill:#fff;}</style></defs><title>Ресурс 1512</title><g id="Слой_2" data-name="Слой 2"><g id="Слой_1-2" data-name="Слой 1"><path class="cls-1" d="M25,0H0V25A25,25,0,0,1,25,0Z"/><path class="cls-1" d="M35,41h.1a3.29,3.29,0,0,0,2.32-1L40,37.47a3.4,3.4,0,0,0,1-2.35v-1A3.34,3.34,0,0,0,38.9,31l-6-2.28a3.32,3.32,0,0,0-3.44.7l-1,1a1.31,1.31,0,0,1-1.62.15,28.59,28.59,0,0,1-7.26-7.29,1.3,1.3,0,0,1,.13-1.65l.94-1a3.34,3.34,0,0,0,.7-3.45l-2.28-6A3.33,3.33,0,0,0,15.91,9h-1a3.37,3.37,0,0,0-2.36,1L10,12.54A3.26,3.26,0,0,0,9,15,27.32,27.32,0,0,0,35,41Z"/><path class="cls-1" d="M25,0A25,25,0,1,1,12,46.38L1.34,50A.86.86,0,0,1,1,50a1,1,0,0,1-.95-1.31L3.65,38A25,25,0,0,1,0,25V50H50V0Z"/></g></g></svg>