<svg width="249" height="38" viewBox="0 0 249 38" fill="none" xmlns="http://www.w3.org/2000/svg">
<path d="M64.2774 12.2374H53.8075V28.6463H50.2988V9.01172H67.786V28.6463H64.2774V12.2374ZM81.419 17.5107H76.8718L76.7876 19.2778C76.694 21.4656 76.4975 23.1953 76.1981 24.4669C75.9174 25.7385 75.5618 26.7015 75.1315 27.356C74.701 27.9917 74.2239 28.3938 73.7 28.5621C73.1759 28.7304 72.6426 28.8146 72.1 28.8146C71.838 28.8146 71.5759 28.7959 71.3141 28.7585C71.0707 28.7398 70.8742 28.7118 70.7246 28.6743V25.2803C70.9492 25.3551 71.1924 25.3925 71.4544 25.3925C71.7538 25.3925 72.0345 25.3364 72.2965 25.2242C72.5772 25.0934 72.8204 24.7755 73.0263 24.2706C73.232 23.7657 73.4005 22.999 73.5315 21.9705C73.6811 20.942 73.7842 19.5115 73.8403 17.679L73.9526 14.6216H84.6751V28.6463H81.419V17.5107ZM89.0259 15.6033C89.4937 15.248 90.1393 14.9488 90.9627 14.7057C91.8048 14.4626 92.834 14.3411 94.0504 14.3411C96.1088 14.3411 97.6432 14.7244 98.6537 15.4911C99.6642 16.2578 100.169 17.5574 100.169 19.39V28.6463H97.0818V26.1218C96.745 26.9447 96.165 27.6084 95.3415 28.1133C94.5369 28.6182 93.5732 28.8707 92.4504 28.8707C91.0283 28.8707 89.9148 28.4966 89.1102 27.7487C88.3242 26.982 87.9312 25.9068 87.9312 24.523C87.9312 23.719 88.0716 23.0551 88.3523 22.5315C88.633 22.0079 89.0259 21.5965 89.5312 21.2973C90.0364 20.9794 90.6446 20.755 91.3557 20.6242C92.0668 20.4933 92.8528 20.4278 93.7135 20.4278H96.8854V19.8107C96.8854 18.8196 96.6421 18.1371 96.1556 17.7631C95.6878 17.3891 94.9861 17.2021 94.0504 17.2021C92.7592 17.2021 91.7206 17.4359 90.9347 17.9034C90.1487 18.3522 89.5125 18.9505 89.0259 19.6985V15.6033ZM93.489 25.9255C94.0504 25.9255 94.5275 25.86 94.9205 25.7291C95.3321 25.5795 95.6784 25.4019 95.9591 25.1962C96.2398 24.9718 96.4549 24.7288 96.6047 24.4669C96.7544 24.2051 96.8479 23.9526 96.8854 23.7096V22.5596H94.1065C93.1335 22.5596 92.4129 22.6718 91.9452 22.8962C91.4774 23.1205 91.2434 23.5507 91.2434 24.1864C91.2434 24.7288 91.4305 25.1588 91.8048 25.4767C92.1978 25.7758 92.7592 25.9255 93.489 25.9255ZM107.157 17.5107H102.666V14.6216H114.96V17.5107H110.413V28.6463H107.157V17.5107ZM117.691 14.6216H120.947V24.1303L127.684 14.6216H130.799V28.6463H127.543V19.0253L120.807 28.6463H117.691V14.6216ZM148.769 23.7096C148.282 23.9901 147.721 24.1958 147.085 24.3267C146.448 24.4575 145.803 24.523 145.148 24.523C143.464 24.523 142.144 24.1303 141.19 23.3449C140.236 22.5596 139.759 21.3254 139.759 19.6424V14.6216H143.043V19.1375C143.043 19.979 143.267 20.6055 143.716 21.0168C144.184 21.4095 144.858 21.6059 145.737 21.6059C146.897 21.6059 147.908 21.3908 148.769 20.9607V14.6216H152.053V28.6463H148.769V23.7096ZM156.362 15.6033C156.83 15.248 157.476 14.9488 158.299 14.7057C159.141 14.4626 160.17 14.3411 161.387 14.3411C163.445 14.3411 164.979 14.7244 165.99 15.4911C167 16.2578 167.506 17.5574 167.506 19.39V28.6463H164.418V26.1218C164.081 26.9447 163.501 27.6084 162.678 28.1133C161.873 28.6182 160.909 28.8707 159.787 28.8707C158.364 28.8707 157.251 28.4966 156.446 27.7487C155.66 26.982 155.267 25.9068 155.267 24.523C155.267 23.719 155.408 23.0551 155.689 22.5315C155.969 22.0079 156.362 21.5965 156.867 21.2973C157.373 20.9794 157.981 20.755 158.692 20.6242C159.403 20.4933 160.189 20.4278 161.05 20.4278H164.222V19.8107C164.222 18.8196 163.978 18.1371 163.492 17.7631C163.024 17.3891 162.322 17.2021 161.387 17.2021C160.095 17.2021 159.057 17.4359 158.271 17.9034C157.485 18.3522 156.849 18.9505 156.362 19.6985V15.6033ZM160.825 25.9255C161.387 25.9255 161.864 25.86 162.257 25.7291C162.669 25.5795 163.015 25.4019 163.295 25.1962C163.576 24.9718 163.791 24.7288 163.941 24.4669C164.091 24.2051 164.184 23.9526 164.222 23.7096V22.5596H161.443C160.47 22.5596 159.749 22.6718 159.281 22.8962C158.814 23.1205 158.58 23.5507 158.58 24.1864C158.58 24.7288 158.767 25.1588 159.141 25.4767C159.534 25.7758 160.095 25.9255 160.825 25.9255ZM182.465 27.2438C182.147 27.6365 181.576 28.0198 180.753 28.3938C179.93 28.7679 178.947 28.9548 177.806 28.9548C176.683 28.9548 175.663 28.8052 174.746 28.506C173.829 28.1881 173.043 27.7206 172.388 27.1036C171.733 26.4865 171.228 25.7197 170.872 24.8035C170.517 23.8873 170.339 22.812 170.339 21.5778C170.339 20.3811 170.517 19.3339 170.872 18.4363C171.247 17.52 171.761 16.7627 172.416 16.1643C173.071 15.5472 173.857 15.0891 174.774 14.7899C175.691 14.472 176.711 14.313 177.834 14.313C178.788 14.3317 179.658 14.4626 180.444 14.7057C181.23 14.9488 181.857 15.248 182.325 15.6033V19.6985C181.838 18.9505 181.221 18.3522 180.472 17.9034C179.742 17.4359 178.863 17.1928 177.834 17.1741C176.486 17.1741 175.457 17.5294 174.746 18.24C174.035 18.9505 173.679 20.0164 173.679 21.4376V21.8583C173.679 23.3169 174.044 24.3922 174.774 25.084C175.523 25.7572 176.561 26.0938 177.89 26.0938C179.069 26.0938 180.032 25.8788 180.781 25.4486C181.548 25.0185 182.11 24.495 182.465 23.8779V27.2438ZM188.967 17.5107H184.476V14.6216H196.77V17.5107H192.223V28.6463H188.967V17.5107ZM208.005 24.0181H204.749L201.914 28.6463H198.293L201.549 23.5693C200.707 23.2327 200.071 22.7372 199.64 22.0827C199.211 21.4095 198.995 20.6148 198.995 19.6985C198.995 17.9408 199.5 16.6598 200.51 15.8558C201.521 15.033 203.121 14.6216 205.31 14.6216H211.289V28.6463H208.005V24.0181ZM205.395 17.5107C204.291 17.5107 203.496 17.6696 203.009 17.9875C202.523 18.3054 202.279 18.8757 202.279 19.6985C202.298 20.2782 202.503 20.727 202.896 21.0449C203.289 21.3441 203.917 21.4937 204.777 21.4937H208.005V17.5107H205.395ZM227.724 19.2217L223.682 25.1681H222.643L218.573 19.1936V28.6463H215.289V14.6216H218.685L223.261 21.1851L227.696 14.6216H231.008V28.6463H227.724V19.2217ZM235.026 14.6216H238.282V24.1303L245.019 14.6216H248.134V28.6463H244.878V19.0253L238.142 28.6463H235.026V14.6216Z" fill="#353F47"/>
<path fill-rule="evenodd" clip-rule="evenodd" d="M17.1435 8.8413C17.1435 13.5754 13.3058 17.4131 8.57177 17.4131C3.83771 17.4131 0 13.5754 0 8.8413C0 4.10724 3.83771 0.269531 8.57177 0.269531C13.3058 0.269531 17.1435 4.10724 17.1435 8.8413ZM17.2842 29.0778C17.2842 33.8118 13.4465 37.6495 8.71239 37.6495C3.97834 37.6495 0.140625 33.8118 0.140625 29.0778C0.140625 24.3437 3.97834 20.506 8.71239 20.506C13.4465 20.506 17.2842 24.3437 17.2842 29.0778ZM28.8218 37.6962C33.5558 37.6962 37.3935 33.8585 37.3935 29.1244C37.3935 24.3904 33.5558 20.5526 28.8218 20.5526C24.0877 20.5526 20.25 24.3904 20.25 29.1244C20.25 33.8585 24.0877 37.6962 28.8218 37.6962Z" fill="url(#paint0_linear_196_830)"/>
<path d="M37.251 8.9685C37.251 13.7026 33.4132 17.5403 28.6792 17.5403C23.9451 17.5403 20.1074 13.7026 20.1074 8.9685C20.1074 4.23444 23.9451 0.396729 28.6792 0.396729C33.4132 0.396729 37.251 4.23444 37.251 8.9685ZM23.4103 8.9685C23.4103 11.8784 25.7693 14.2373 28.6792 14.2373C31.5891 14.2373 33.948 11.8784 33.948 8.9685C33.948 6.05859 31.5891 3.69965 28.6792 3.69965C25.7693 3.69965 23.4103 6.05859 23.4103 8.9685Z" fill="url(#paint1_linear_196_830)"/>
<defs>
<linearGradient id="paint0_linear_196_830" x1="-1.00076e-07" y1="33.6649" x2="37.2221" y2="22.5748" gradientUnits="userSpaceOnUse">
<stop stop-color="#F8EC4F"/>
<stop offset="0.567624" stop-color="#4DE544"/>
<stop offset="1" stop-color="#49C8FF"/>
</linearGradient>
<linearGradient id="paint1_linear_196_830" x1="33.6376" y1="0.39673" x2="23.254" y2="17.3881" gradientUnits="userSpaceOnUse">
<stop stop-color="#CDEFFD"/>
<stop offset="1" stop-color="#91E5CB"/>
</linearGradient>
</defs>
</svg>
