<svg xmlns="http://www.w3.org/2000/svg" viewBox="0 0 502.94 463.34"><defs><style>.cls-1{fill:#37ac09;}</style></defs><g id="Layer_2" data-name="Layer 2"><g id="Layer_1-2" data-name="Layer 1"><path class="cls-1" d="M481.07,51h-363A81.18,81.18,0,0,0,42.27,0H21.87a21.88,21.88,0,0,0,0,43.75h20.4A37.84,37.84,0,0,1,79.86,75.94L97.17,259.81V306a66.24,66.24,0,0,0,32.92,57.16,67.34,67.34,0,1,0,121.79,9.08h80.93a67.3,67.3,0,1,0,123.35-6,21.82,21.82,0,0,0-15-37.77H163.42A22.52,22.52,0,0,1,140.92,306V279.48L429.8,263.15h0a21.84,21.84,0,0,0,19.65-15.33L502,79.42A21.87,21.87,0,0,0,481.07,51ZM212.46,395.77a23.59,23.59,0,1,1-6.91-16.64,23.55,23.55,0,0,1,6.91,16.64Zm183.32,23.56a23.58,23.58,0,1,1,16.64-6.91,23.57,23.57,0,0,1-16.64,6.91Zm16.41-199L138.84,235.77l-13.27-141H451.33Z"/></g></g></svg>