<svg xmlns="http://www.w3.org/2000/svg" viewBox="0 0 250.52 59.74"><defs><style>.cls-1{fill:#295b4d;}</style></defs><g id="Layer_2" data-name="Layer 2"><g id="Слой_1" data-name="Слой 1"><path class="cls-1" d="M144.33,33.71H123.79V4.26h19.75V8.44H127.92v8.2a7.11,7.11,0,0,0,2.44.47,9,9,0,0,0,2.91-.47,8.47,8.47,0,0,1,2.76-.47,5,5,0,0,1,2.21.52V21a7.06,7.06,0,0,0-2.3-.42,10.47,10.47,0,0,0-2.81.38,10.94,10.94,0,0,1-2.91.37,8.47,8.47,0,0,1-2.3-.33v8.63h16.41Z"/><path class="cls-1" d="M163.64,4.22q2.73,6.84,5.11,12.75,1,2.54,2,5.09t1.94,4.81c.62,1.5,1.16,2.84,1.65,4s.85,2.11,1.1,2.77H171.1c-.66-1.69-1.32-3.37-2-5s-1.35-3.4-2-5.19a11.47,11.47,0,0,0-3.23-.47,16.1,16.1,0,0,0-2.41.19l-2.42.38-3.61.56-3.9,9.57h-4.4L151,23.91a13.23,13.23,0,0,1-1.71-.42,10.82,10.82,0,0,1-1.81-.75V18.05a14.22,14.22,0,0,0,2.65,1.36,10.23,10.23,0,0,0,2.42.61l6.38-15.8ZM158.2,19.59a.29.29,0,0,0,.12,0s.05,0,.12,0c.81-.15,1.65-.3,2.53-.44a18.14,18.14,0,0,1,2.67-.2c.25,0,.52,0,.8,0s.55,0,.8.07l-.29-.9-3.6-9L157,19.77a1.92,1.92,0,0,1,.59-.09A1.9,1.9,0,0,0,158.2,19.59Z"/><path class="cls-1" d="M181.28,4.22V24.34a4.54,4.54,0,0,0,.72,2.58,6.52,6.52,0,0,0,1.9,1.83,8.63,8.63,0,0,0,2.67,1.1,13.59,13.59,0,0,0,3.05.35,12.19,12.19,0,0,0,2.84-.33,7.75,7.75,0,0,0,2.46-1A5.44,5.44,0,0,0,196.66,27a5.18,5.18,0,0,0,.65-2.67l0-10h4l0,10.58a7.88,7.88,0,0,1-1,4,9.29,9.29,0,0,1-2.67,2.91,12.22,12.22,0,0,1-3.83,1.76,16.93,16.93,0,0,1-4.45.59,16.42,16.42,0,0,1-4.48-.62A12.22,12.22,0,0,1,181,31.75a9.35,9.35,0,0,1-2.75-3.08,8.83,8.83,0,0,1-1-4.33V4.22Z"/><path class="cls-1" d="M225.29,4.38a10.22,10.22,0,0,1-.5,2.89,7,7,0,0,1-1.29,2.34,5.82,5.82,0,0,1-2.13,1.6,7.14,7.14,0,0,1-3,.58,15.55,15.55,0,0,1-5.39-1V33.84h-4V9.12a15.7,15.7,0,0,0-2.2-.61,12.28,12.28,0,0,0-2.3-.23,5.75,5.75,0,0,0-2.23.42,1.87,1.87,0,0,0-1.05,1.87h-4a6,6,0,0,1,.59-2.72,5.54,5.54,0,0,1,1.57-1.94,6.67,6.67,0,0,1,2.32-1.17,9.88,9.88,0,0,1,2.88-.4,15,15,0,0,1,4.2.54,33.14,33.14,0,0,1,3.42,1.19c1.05.44,2.07.84,3.05,1.2a8.92,8.92,0,0,0,3.08.54,4.55,4.55,0,0,0,1.45-.19,1.81,1.81,0,0,0,.87-.58A2.51,2.51,0,0,0,221.09,6a12.47,12.47,0,0,0,.16-1.6Z"/><path class="cls-1" d="M238.58,19.86l.24.75.23-.75,7.2-15.52h4.27l-9.66,20.54v9h-4.13v-9L227.16,4.34h4.27Z"/><path class="cls-1" d="M118.45,20.27A6.81,6.81,0,0,0,115,17.44L113.9,17l1.27-.84a8.73,8.73,0,0,0,1.12-1.71,5.75,5.75,0,0,0,.52-2.6,7.41,7.41,0,0,0-.9-3.85,6.43,6.43,0,0,0-2.32-2.34,12.33,12.33,0,0,0-2.32-.91,14.76,14.76,0,0,0-3.87,3.4c.56,0,1.11.06,1.65.13a7.43,7.43,0,0,1,1.73.47,3.74,3.74,0,0,1,1.31.92,2.66,2.66,0,0,1,.68,1.43,1.22,1.22,0,0,0,0,.37,1,1,0,0,1,.05.28,2.56,2.56,0,0,1-.22,1.18,2.29,2.29,0,0,1-.44.65A4.79,4.79,0,0,1,110.12,15a12.89,12.89,0,0,1-3,.57h-5.82v-2.7a14.62,14.62,0,0,0-3-2.74c-.22-.15-.59-.36-1-.59V33.66H107a26.41,26.41,0,0,0,4.69-.4,11.8,11.8,0,0,0,4-1.43A7.83,7.83,0,0,0,118.52,29a9,9,0,0,0,1-4.6A8,8,0,0,0,118.45,20.27Zm-3.9,7.16A5.24,5.24,0,0,1,112.49,29a10.86,10.86,0,0,1-2.91.75,27.6,27.6,0,0,1-3.51.21c-.38,0-.79,0-1.22,0l-1.32-.07c-.43,0-.85-.06-1.24-.07l-1,0V19.5h5.82a16.64,16.64,0,0,1,2.83.26,9.74,9.74,0,0,1,2.72.87,5.81,5.81,0,0,1,2.07,1.66,4.08,4.08,0,0,1,.82,2.6A4.85,4.85,0,0,1,114.55,27.43Z"/><path class="cls-1" d="M7.49,32.33A14.11,14.11,0,0,1,2,27,14.69,14.69,0,0,1,0,19.4a14.68,14.68,0,0,1,2-7.61A14.19,14.19,0,0,1,7.51,6.47,16.26,16.26,0,0,1,15.4,4.54a16.53,16.53,0,0,1,6.23,1.15,12.67,12.67,0,0,1,4.81,3.38l-2.7,2.61a10.83,10.83,0,0,0-8.17-3.44A11.87,11.87,0,0,0,9.71,9.69a10.58,10.58,0,0,0-4.09,4,11.21,11.21,0,0,0-1.47,5.7,11.22,11.22,0,0,0,1.47,5.71,10.65,10.65,0,0,0,4.09,4,11.87,11.87,0,0,0,5.86,1.45,10.82,10.82,0,0,0,8.17-3.49l2.7,2.62a12.89,12.89,0,0,1-4.84,3.4,16.2,16.2,0,0,1-6.24,1.16A16,16,0,0,1,7.49,32.33Z"/><path class="cls-1" d="M31.77,4.55h4.15V30L38,29.78a15.49,15.49,0,0,1,5.08.31l2.48.56a15.69,15.69,0,0,0,6.58.08L55.82,30l1.1,3.26s-3.85,1-5.14,1.26a14.55,14.55,0,0,1-5.84-.11l-3.51-.73a13.85,13.85,0,0,0-3.74-.31c-1.74.12-6.92.71-6.92.71Z"/><path class="cls-1" d="M56.55,19.75H46.71l-2.09,4.82h-4l9.1-20h3.89l9.17,20H58.62ZM55.1,16.63,51.61,8.55l-3.56,8.08Z"/><path class="cls-1" d="M91.37,4.55V33.6H88L70.53,11.94V33.6H66.38v-29h3.41L87.22,26.22V4.55Z"/><path class="cls-1" d="M106.42,4.55a10.92,10.92,0,0,1-2.54-1.64,17,17,0,0,1-2-2.91A14.41,14.41,0,0,1,99.7,2.91a21.11,21.11,0,0,1-2.38,1.64h0A9.11,9.11,0,0,1,99.7,6.19a14.41,14.41,0,0,1,2.17,2.91,17,17,0,0,1,2-2.91,10.92,10.92,0,0,1,2.54-1.64Z"/><path class="cls-1" d="M26.09,55.87C26,55.08,26,54,26,53.46h0c-.22.58-.47,1.2-.81,2l-1.25,3H23.6l-1.17-2.91c-.34-.84-.58-1.47-.76-2h0c0,.62-.06,1.61-.13,2.49l-.19,2.47h-.39L21.37,53h.45l1.3,3.21c.27.67.48,1.23.64,1.72h0c.15-.45.36-1,.67-1.71L25.8,53h.46l.38,5.39h-.38Z"/><path class="cls-1" d="M31.64,56.52l-.75,1.9h-.4L32.66,53h.39l2.15,5.39h-.4L34,56.52Zm2.27-.33-.76-1.89c-.14-.36-.22-.59-.3-.86h0a7.87,7.87,0,0,1-.3.84l-.77,1.91Z"/><path class="cls-1" d="M42.14,53v.33H39.66v5.06h-.39V53Z"/><path class="cls-1" d="M45.85,56.52l-.74,1.9H44.7L46.88,53h.38l2.16,5.39H49l-.76-1.9Zm2.27-.33-.76-1.89c-.14-.36-.21-.59-.29-.86h0a7.69,7.69,0,0,1-.29.84L46,56.19Z"/><path class="cls-1" d="M53.43,53.34a2.35,2.35,0,0,1,1.34-.41c.8,0,1.47.4,1.47,1.28a1.43,1.43,0,0,1-1.19,1.35v0A1.36,1.36,0,0,1,56.47,57c0,1.11-.92,1.54-1.89,1.54a2.55,2.55,0,0,1-1.37-.35l.14-.3a2.57,2.57,0,0,0,1.25.34c1,0,1.46-.55,1.46-1.23,0-1-1-1.22-1.78-1.22h-.21v-.31h.22a1.4,1.4,0,0,0,1.55-1.18,1,1,0,0,0-1.11-1,2.08,2.08,0,0,0-1.17.4Z"/><path class="cls-1" d="M61.13,53v2.78c0,.83,0,1.47-.06,2.1h0a17,17,0,0,1,1.1-1.57L64.63,53H65v5.39H64.6V55.54c0-.8,0-1.38.05-2l0,0c-.29.48-.71,1.05-1.17,1.67L61.1,58.42h-.35V53Z"/><path class="cls-1" d="M70,53v2.36h3.37V53h.4v5.39h-.4V55.71H70v2.71H69.6V53Z"/><path class="cls-1" d="M83.21,53l1.42,2.62c.14.26.29.57.43.87h0c.13-.31.25-.57.39-.89L86.62,53H87l-1.43,3.11a7.78,7.78,0,0,1-1,1.8,1.48,1.48,0,0,1-1.12.57.89.89,0,0,1-.29,0l.07-.33a.66.66,0,0,0,.19,0c.71,0,1.1-.68,1.34-1.15a.33.33,0,0,0,0-.39l-2-3.6Z"/><path class="cls-1" d="M94.24,58.42l-.9-1.27c-.41-.58-.63-.9-.82-1.19h0c-.18.3-.37.59-.78,1.19l-.84,1.27h-.47l1.89-2.73L90.49,53H91l1,1.45.62,1h0c.17-.28.37-.54.64-.94l1-1.46h.47l-1.93,2.64,1.93,2.75Z"/><path class="cls-1" d="M100.94,58.51a2.62,2.62,0,0,1-2.68-2.71A2.72,2.72,0,0,1,101,52.93a2.61,2.61,0,0,1,2.68,2.72A2.69,2.69,0,0,1,101,58.51Zm0-.32a2.48,2.48,0,1,0-2.29-2.41A2.3,2.3,0,0,0,101,58.19Z"/><path class="cls-1" d="M111.39,53v5.06h.47l0,1.65h-.32l0-1.32h-3.92l0,1.32h-.32l0-1.65h.39a5.74,5.74,0,0,0,.56-1.05,7.91,7.91,0,0,0,.32-2.62V53Zm-2.63,1.61a7.16,7.16,0,0,1-.34,2.51,4.8,4.8,0,0,1-.49.94H111V53.36h-2.24Z"/><path class="cls-1" d="M118.3,58.51a2.62,2.62,0,0,1-2.68-2.71,2.72,2.72,0,0,1,2.74-2.87A2.61,2.61,0,0,1,121,55.65a2.69,2.69,0,0,1-2.73,2.86Zm0-.32A2.48,2.48,0,1,0,116,55.78a2.3,2.3,0,0,0,2.29,2.41Z"/><path class="cls-1" d="M125.25,53.1a5.93,5.93,0,0,1,1.2-.12,2,2,0,0,1,1.52.47,1.18,1.18,0,0,1,.34.89,1.34,1.34,0,0,1-1,1.2v0a1.4,1.4,0,0,1,1.17,1.35,1.38,1.38,0,0,1-.41,1,2.57,2.57,0,0,1-1.86.53c-.41,0-.77,0-1,0Zm.39,2.31h.94c.85,0,1.33-.47,1.33-1,0-.83-.68-1-1.48-1a3.75,3.75,0,0,0-.79.06Zm0,2.68a3.88,3.88,0,0,0,.76,0c.84,0,1.72-.25,1.72-1.21s-.76-1.2-1.67-1.2h-.81Z"/><path class="cls-1" d="M135,58.51a2.61,2.61,0,0,1-2.68-2.71A2.72,2.72,0,0,1,135,52.93a2.61,2.61,0,0,1,2.68,2.72A2.68,2.68,0,0,1,135,58.51Zm0-.32a2.48,2.48,0,1,0-2.28-2.41A2.31,2.31,0,0,0,135,58.19Z"/><path class="cls-1" d="M142.32,53v2.78c0,.83,0,1.47-.07,2.1h0c.28-.48.61-.9,1.1-1.57L145.81,53h.36v5.39h-.38V55.54c0-.8,0-1.38.05-2l0,0c-.29.48-.71,1.05-1.16,1.67l-2.36,3.21h-.36V53Zm1.15-1.13c.05.22.11.52.59.52a.51.51,0,0,0,.58-.52H145c0,.44-.26.82-1,.82a.82.82,0,0,1-.94-.82Z"/><path class="cls-1" d="M156.3,53v2.48h.32L158.94,53h.47L157,55.54A2,2,0,0,1,158.89,57c.25.55.41,1,.65,1.41h-.41a10.49,10.49,0,0,1-.61-1.31,1.84,1.84,0,0,0-2-1.29h-.25v2.6h-.4V53Z"/><path class="cls-1" d="M165.61,58.51a2.61,2.61,0,0,1-2.68-2.71,2.72,2.72,0,0,1,2.73-2.87,2.61,2.61,0,0,1,2.68,2.72,2.69,2.69,0,0,1-2.73,2.86Zm0-.32a2.48,2.48,0,1,0-2.29-2.41,2.3,2.3,0,0,0,2.29,2.41Z"/><path class="cls-1" d="M176.68,58.2a4.07,4.07,0,0,1-1.68.31,2.66,2.66,0,0,1-2.85-2.76,2.84,2.84,0,0,1,3.06-2.82,3.49,3.49,0,0,1,1.46.27l-.13.33a3.06,3.06,0,0,0-1.3-.27,2.41,2.41,0,0,0-2.68,2.52,2.34,2.34,0,0,0,2.58,2.4,3.35,3.35,0,0,0,1.42-.29Z"/><path class="cls-1" d="M185.85,55.87c0-.79-.13-1.83-.13-2.41h0c-.22.58-.47,1.2-.81,2l-1.25,3h-.29l-1.17-2.91c-.34-.84-.58-1.47-.76-2h0c0,.62-.06,1.61-.13,2.49l-.19,2.47h-.39l.43-5.39h.45l1.3,3.21c.27.67.48,1.23.64,1.72h0c.15-.45.36-1,.67-1.71L185.56,53H186l.38,5.39H186Z"/><path class="cls-1" d="M193.62,55.74h-2.4v2.35h2.67v.33h-3.06V53h2.93v.33h-2.54v2h2.4Z"/><path class="cls-1" d="M199.36,53.36h-2V53h4.41v.33h-2v5.06h-.39Z"/><path class="cls-1" d="M205.88,53v2.78c0,.83,0,1.47-.07,2.1h0c.28-.48.61-.9,1.1-1.57L209.37,53h.36v5.39h-.38V55.54c0-.8,0-1.38.05-2l0,0c-.29.48-.71,1.05-1.17,1.67l-2.35,3.21h-.36V53Z"/><path class="cls-1" d="M214.73,53v2.48h.33L217.38,53h.46l-2.39,2.51A2,2,0,0,1,217.33,57c.25.55.41,1,.65,1.41h-.42a12.11,12.11,0,0,1-.6-1.31,1.84,1.84,0,0,0-2-1.29h-.26v2.6h-.39V53Z"/><path class="cls-1" d="M222.35,53v2.78c0,.83,0,1.47-.06,2.1h0c.28-.48.61-.9,1.1-1.57L225.84,53h.36v5.39h-.38V55.54c0-.8,0-1.38.05-2l0,0c-.28.48-.71,1.05-1.16,1.67l-2.36,3.21H222V53Z"/></g></g></svg>