<?xml version="1.0" encoding="UTF-8"?> <svg xmlns="http://www.w3.org/2000/svg" width="1692" height="709" viewBox="0 0 1692 709" fill="none"> <path fill-rule="evenodd" clip-rule="evenodd" d="M135.282 362.848L28.9958 371.684L0 22.8869L262.266 1.08445C421.884 -12.1848 531.76 98.2668 556.353 225.5L671.192 177.659C789.158 128.514 895.627 178.542 951.151 262.389L1225.83 97.3983C1313.68 44.6323 1405.7 63.2118 1468.12 116.443L1529.9 84.1815L1691.91 394.428L1485.87 502.021C1404.13 544.707 1321.58 529.182 1262.64 483.574L948.465 672.289C812.911 753.711 678.424 685.021 623.284 576.774L467.251 641.778C261.465 727.508 98.0449 532.374 135.282 362.848Z" fill="url(#paint0_radial_1840_983)"></path> <path fill-rule="evenodd" clip-rule="evenodd" d="M135.282 362.848L28.9958 371.684L0 22.8869L262.266 1.08445C421.884 -12.1848 531.76 98.2668 556.353 225.5L671.192 177.659C789.158 128.514 895.627 178.542 951.151 262.389L1225.83 97.3983C1313.68 44.6323 1405.7 63.2118 1468.12 116.443L1529.9 84.1815L1691.91 394.428L1485.87 502.021C1404.13 544.707 1321.58 529.182 1262.64 483.574L948.465 672.289C812.911 753.711 678.424 685.021 623.284 576.774L467.251 641.778C261.465 727.508 98.0449 532.374 135.282 362.848Z" fill="url(#paint1_linear_1840_983)"></path> <defs> <radialGradient id="paint0_radial_1840_983" cx="0" cy="0" r="1" gradientUnits="userSpaceOnUse" gradientTransform="translate(532.13 416.172) rotate(61.139) scale(581.27 1222.16)"> <stop stop-color="#FAE6A3"></stop> <stop offset="0.546875" stop-color="#FBE3CA"></stop> <stop offset="0.926299" stop-color="#FBF8EF"></stop> </radialGradient> <linearGradient id="paint1_linear_1840_983" x1="20.5" y1="260" x2="106.5" y2="253.5" gradientUnits="userSpaceOnUse"> <stop stop-color="#FBF8EF"></stop> <stop offset="1" stop-color="#FBF8EF" stop-opacity="0"></stop> </linearGradient> </defs> </svg> 