<svg xmlns="http://www.w3.org/2000/svg" viewBox="0 0 59.76 59.76"><defs><style>.cls-1{fill:#295b4d;}.cls-2{fill:#fff4e6;}</style></defs><g id="Layer_2" data-name="Layer 2"><g id="Слой_1" data-name="Слой 1"><circle class="cls-1" cx="29.88" cy="29.88" r="29.88"/><path class="cls-2" d="M12.91,28.75a2.16,2.16,0,0,1,1.24-1c2-.79,4.06-1.56,6.09-2.34l20.89-8a2.13,2.13,0,0,1,.51-.14,1.29,1.29,0,0,1,1.57,1.41,10.37,10.37,0,0,1-.3,1.92Q40.77,30.71,38.6,40.81a4.4,4.4,0,0,1-.35,1,1.18,1.18,0,0,1-1.49.63,3.12,3.12,0,0,1-.9-.43c-2.17-1.57-4.33-3.16-6.5-4.75l-.28-.2-.24.22-3.32,3.17a1.63,1.63,0,0,1-1.21.49l.09-1.27c.13-1.85.26-3.7.4-5.54a.67.67,0,0,1,.2-.4c4.19-3.77,8.34-7.56,12.53-11.35.12-.1.44-.48.37-.63s-.59.05-1.08.33c-5.23,3.27-10.49,6.52-15.71,9.78a.55.55,0,0,1-.43.08c-2.22-.68-4.44-1.38-6.66-2.07a1.79,1.79,0,0,1-1.11-.77Z"/></g></g></svg>