<svg xmlns="http://www.w3.org/2000/svg" viewBox="0 0 59.76 59.76"><defs><style>.cls-1{fill:#295b4d;}.cls-2{fill:#fff4e6;}</style></defs><g id="Layer_2" data-name="Layer 2"><g id="Слой_1" data-name="Слой 1"><circle class="cls-1" cx="29.88" cy="29.88" r="29.88"/><path class="cls-2" d="M44.42,38.05a1.08,1.08,0,0,1-1.08.65H39.79a1.92,1.92,0,0,1-1.35-.65c-.51-.51-1-1-1.49-1.57A16.85,16.85,0,0,0,34.21,34a2.65,2.65,0,0,0-1.66-.61c-.43,0-.62.17-.67.6s-.05.73-.06,1.09c0,.79,0,1.58,0,2.37s-.23,1-.88,1.08a10.83,10.83,0,0,1-2.41.09,12.26,12.26,0,0,1-7.61-4,26.35,26.35,0,0,1-3.51-4.81,27.2,27.2,0,0,1-3-6.52,8.56,8.56,0,0,1-.25-1.09c-.12-.74.2-1.16.95-1.17,1.2,0,2.4,0,3.61,0a1.15,1.15,0,0,1,1.14.74c.24.56.44,1.13.67,1.7a26.11,26.11,0,0,0,3.14,5.84,10,10,0,0,0,.9,1.05,2.53,2.53,0,0,0,.6.48c.51.3.88.11,1-.47a.76.76,0,0,0,0-.15c0-1.82,0-3.65,0-5.47a3.26,3.26,0,0,0-.8-2.09,4.17,4.17,0,0,1-.36-.47.74.74,0,0,1,.58-1.16h5.23c.75,0,1,.26,1,1,0,2.13,0,4.26,0,6.39a3.43,3.43,0,0,0,0,.56c.1.58.48.79,1,.46a6,6,0,0,0,1.16-1,23.25,23.25,0,0,0,3.37-5.23c.21-.42.4-.85.6-1.29a1.4,1.4,0,0,1,1.38-.92h3.46a1.59,1.59,0,0,1,.43.06c.42.11.65.4.53.81a9.74,9.74,0,0,1-.69,1.82,49,49,0,0,1-3.68,5.77c-.64.92-.61,1.17.16,2,1.09,1.14,2.18,2.28,3.23,3.46a7.87,7.87,0,0,1,1.62,2.54Z"/></g></g></svg>