<svg xmlns="http://www.w3.org/2000/svg" viewBox="0 0 59.76 59.76"><defs><style>.cls-1{fill:#295b4d;}.cls-2{fill:#fff4e6;}</style></defs><g id="Layer_2" data-name="Layer 2"><g id="Слой_1" data-name="Слой 1"><circle class="cls-1" cx="29.88" cy="29.88" r="29.88"/><path class="cls-2" d="M15,45.09c.24-.86.46-1.67.68-2.48.46-1.68.92-3.35,1.37-5a.8.8,0,0,0-.06-.53,15.1,15.1,0,1,1,17.68,7.11,14.89,14.89,0,0,1-11.44-1,.78.78,0,0,0-.5,0c-2.46.63-4.92,1.28-7.38,1.92Zm3.62-3.57L23,40.36a.76.76,0,0,1,.65.1,12.32,12.32,0,0,0,9,1.59A12.54,12.54,0,1,0,19.31,35.9a2.48,2.48,0,0,1,.26,2.22C19.2,39.22,18.94,40.35,18.62,41.52Z"/><path class="cls-2" d="M25.34,22.81c.64-.16.95.22,1.17.8.34.89.72,1.76,1.09,2.63a.78.78,0,0,1-.07.83c-.3.4-.59.81-.9,1.19a.58.58,0,0,0-.06.78,10.35,10.35,0,0,0,5.18,4.45.59.59,0,0,0,.76-.19c.37-.46.75-.92,1.11-1.38s.43-.43.82-.25c1.06.48,2.12,1,3.16,1.52a.56.56,0,0,1,.24.46c0,1.6-.49,2.37-2.21,3.09a4.42,4.42,0,0,1-3,0,15.38,15.38,0,0,1-8.45-6.31,8.37,8.37,0,0,1-1.52-3,4.27,4.27,0,0,1,1.23-4.23A1.61,1.61,0,0,1,25.34,22.81Z"/></g></g></svg>