<svg xmlns="http://www.w3.org/2000/svg" viewBox="0 0 513.33 513.33"><g id="Layer_2" data-name="Layer 2"><g id="Layer_1-2" data-name="Layer 1"><path d="M343.24,170.1a23.32,23.32,0,0,0-32.9,0l-53.67,53.67L203.24,170.1a23.43,23.43,0,0,0-33.14,33.13l53.67,53.43L170.1,310.1A23.33,23.33,0,1,0,203,343l53.67-53.44L310.1,343A23.33,23.33,0,0,0,343,310.1l-53.43-53.44L343,203.23a23.33,23.33,0,0,0,.24-33.13Z"/><path d="M256.67,0A256.66,256.66,0,1,0,438.16,75.18,256.64,256.64,0,0,0,256.67,0Zm0,466.67a210,210,0,1,1,148.49-61.51A210,210,0,0,1,256.67,466.67Z"/></g></g></svg>