<svg xmlns="http://www.w3.org/2000/svg" xmlns:xlink="http://www.w3.org/1999/xlink" viewBox="0 0 836.92 836.92"><defs><style>.cls-1{fill:#97bf9b;}.cls-2{fill:url(#linear-gradient);}.cls-3{fill:url(#linear-gradient-2);}.cls-4{fill:url(#linear-gradient-3);}.cls-5{fill:url(#linear-gradient-4);}.cls-6{fill:url(#linear-gradient-5);}.cls-7{fill:url(#linear-gradient-6);}.cls-8{fill:url(#linear-gradient-7);}.cls-9{fill:url(#linear-gradient-8);}.cls-10{fill:url(#linear-gradient-9);}.cls-11{fill:url(#linear-gradient-10);}.cls-12{fill:url(#linear-gradient-11);}.cls-13{fill:url(#linear-gradient-12);}.cls-14{fill:url(#linear-gradient-13);}.cls-15{fill:url(#linear-gradient-14);}.cls-16{fill:url(#linear-gradient-15);}.cls-17{fill:url(#linear-gradient-16);}.cls-18{fill:url(#linear-gradient-17);}.cls-19{fill:url(#linear-gradient-18);}.cls-20{fill:url(#linear-gradient-19);}.cls-21{fill:url(#linear-gradient-20);}.cls-22{fill:url(#linear-gradient-21);}.cls-23{fill:url(#linear-gradient-22);}.cls-24{fill:url(#linear-gradient-23);}.cls-25{fill:url(#linear-gradient-24);}</style><linearGradient id="linear-gradient" x1="-51.79" y1="348.71" x2="436.57" y2="837.07" gradientUnits="userSpaceOnUse"><stop offset="0" stop-color="#fffa8f"/><stop offset="0.14" stop-color="#fae877"/><stop offset="0.24" stop-color="#f7db65"/><stop offset="0.27" stop-color="#e6c759"/><stop offset="0.34" stop-color="#c4a041"/><stop offset="0.4" stop-color="#ac8330"/><stop offset="0.45" stop-color="#9d7226"/><stop offset="0.49" stop-color="#986c22"/><stop offset="0.52" stop-color="#9c7126"/><stop offset="0.56" stop-color="#a98131"/><stop offset="0.6" stop-color="#bd9b43"/><stop offset="0.64" stop-color="#d9be5b"/><stop offset="0.69" stop-color="#fae778"/><stop offset="0.77" stop-color="#ffffa9"/><stop offset="0.83" stop-color="#fae778"/><stop offset="1" stop-color="#a3631b"/></linearGradient><linearGradient id="linear-gradient-2" x1="-96.95" y1="393.85" x2="391.42" y2="882.22" xlink:href="#linear-gradient"/><linearGradient id="linear-gradient-3" x1="6.9" y1="290.02" x2="495.26" y2="778.38" xlink:href="#linear-gradient"/><linearGradient id="linear-gradient-4" x1="-125.3" y1="422.21" x2="363.07" y2="910.57" xlink:href="#linear-gradient"/><linearGradient id="linear-gradient-5" x1="75.28" y1="221.62" x2="563.65" y2="709.99" xlink:href="#linear-gradient"/><linearGradient id="linear-gradient-6" x1="-134.96" y1="431.87" x2="353.4" y2="920.24" xlink:href="#linear-gradient"/><linearGradient id="linear-gradient-7" x1="148.68" y1="148.26" x2="637.03" y2="636.61" xlink:href="#linear-gradient"/><linearGradient id="linear-gradient-8" x1="-125.41" y1="422.33" x2="362.95" y2="910.69" xlink:href="#linear-gradient"/><linearGradient id="linear-gradient-9" x1="222.06" y1="74.85" x2="710.42" y2="563.21" xlink:href="#linear-gradient"/><linearGradient id="linear-gradient-10" x1="-97.17" y1="394.08" x2="391.19" y2="882.45" xlink:href="#linear-gradient"/><linearGradient id="linear-gradient-11" x1="290.45" y1="6.45" x2="778.82" y2="494.82" xlink:href="#linear-gradient"/><linearGradient id="linear-gradient-12" x1="-52.13" y1="349.04" x2="436.24" y2="837.4" xlink:href="#linear-gradient"/><linearGradient id="linear-gradient-13" x1="349.34" y1="-52.41" x2="837.69" y2="435.94" xlink:href="#linear-gradient"/><linearGradient id="linear-gradient-14" x1="6.49" y1="290.43" x2="494.85" y2="778.79" xlink:href="#linear-gradient"/><linearGradient id="linear-gradient-15" x1="394.54" y1="-97.62" x2="882.9" y2="390.74" xlink:href="#linear-gradient"/><linearGradient id="linear-gradient-16" x1="74.85" y1="222.06" x2="563.21" y2="710.42" xlink:href="#linear-gradient"/><linearGradient id="linear-gradient-17" x1="422.7" y1="-125.78" x2="911.06" y2="362.58" xlink:href="#linear-gradient"/><linearGradient id="linear-gradient-18" x1="148.23" y1="148.68" x2="636.59" y2="637.04" xlink:href="#linear-gradient"/><linearGradient id="linear-gradient-19" x1="432.17" y1="-135.26" x2="920.53" y2="353.1" xlink:href="#linear-gradient"/><linearGradient id="linear-gradient-20" x1="221.62" y1="75.28" x2="709.98" y2="563.64" xlink:href="#linear-gradient"/><linearGradient id="linear-gradient-21" x1="422.42" y1="-125.51" x2="910.79" y2="362.86" xlink:href="#linear-gradient"/><linearGradient id="linear-gradient-22" x1="290.06" y1="6.86" x2="778.42" y2="495.22" xlink:href="#linear-gradient"/><linearGradient id="linear-gradient-23" x1="394" y1="-97.09" x2="882.37" y2="391.28" xlink:href="#linear-gradient"/><linearGradient id="linear-gradient-24" x1="348.8" y1="-51.89" x2="837.16" y2="436.48" xlink:href="#linear-gradient"/></defs><g id="Layer_2" data-name="Layer 2"><g id="КОЛЕСО"><circle class="cls-1" cx="418.46" cy="418.46" r="418.46"/><path class="cls-2" d="M412.72,819.16a6,6,0,0,1,5.94-5.94h0a5.94,5.94,0,0,1,5.94,5.94h0a5.94,5.94,0,0,1-5.94,6h0A6,6,0,0,1,412.72,819.16Z"/><path class="cls-3" d="M313.35,811.4h0a5.89,5.89,0,0,1-4.2-7.24h0a5.89,5.89,0,0,1,7.25-4.2h0a5.94,5.94,0,0,1,4.24,7.24h0a6,6,0,0,1-5.74,4.4h0A5.16,5.16,0,0,1,313.35,811.4Z"/><path class="cls-4" d="M516.71,807.09a5.89,5.89,0,0,1,4.2-7.25h0a5.94,5.94,0,0,1,7.28,4.2h0a6,6,0,0,1-4.23,7.28h0v0h0a5.22,5.22,0,0,1-1.55.24h0A5.94,5.94,0,0,1,516.71,807.09Z"/><path class="cls-5" d="M215.18,770.81a6,6,0,0,1-2.18-8.12h0a5.93,5.93,0,0,1,8.12-2.18h0a6,6,0,0,1,2.18,8.12h0a6,6,0,0,1-5.15,3h0A6.12,6.12,0,0,1,215.18,770.81Z"/><path class="cls-6" d="M614,768.43a5.93,5.93,0,0,1,2.14-8.11h0a5.92,5.92,0,0,1,8.12,2.14h0a5.93,5.93,0,0,1-2.14,8.11h0a5.86,5.86,0,0,1-3,.83h0A5.93,5.93,0,0,1,614,768.43Z"/><path class="cls-7" d="M130.91,706.14a5.9,5.9,0,0,1,0-8.4h0a5.91,5.91,0,0,1,8.39,0h0a5.94,5.94,0,0,1,0,8.4h0a6,6,0,0,1-4.2,1.74h0A5.87,5.87,0,0,1,130.91,706.14Z"/><path class="cls-8" d="M697.89,705.86a5.89,5.89,0,0,1,0-8.39h0a5.9,5.9,0,0,1,8.4,0h0a6,6,0,0,1,0,8.39h0a6,6,0,0,1-4.2,1.75h0A5.91,5.91,0,0,1,697.89,705.86Z"/><path class="cls-9" d="M66.12,622a5.91,5.91,0,0,1,2.17-8.12h0A5.94,5.94,0,0,1,76.41,616h0a5.92,5.92,0,0,1-2.18,8.11h0a5.71,5.71,0,0,1-3,.84h0A6,6,0,0,1,66.12,622Z"/><path class="cls-10" d="M762.88,623.77a6,6,0,0,1-2.18-8.12h0a6,6,0,0,1,8.12-2.14h0a6,6,0,0,1,2.18,8.12h0a6,6,0,0,1-5.15,3h0A6.15,6.15,0,0,1,762.88,623.77Z"/><path class="cls-11" d="M25.37,523.89a5.94,5.94,0,0,1,4.19-7.29h0a5.92,5.92,0,0,1,7.25,4.2h0a5.92,5.92,0,0,1-4.16,7.29h0a7.08,7.08,0,0,1-1.54.2h0A5.92,5.92,0,0,1,25.37,523.89Z"/><path class="cls-12" d="M804.38,527.65a5.91,5.91,0,0,1-4.2-7.24h0a6,6,0,0,1,7.29-4.24h0a6,6,0,0,1,4.2,7.29h0a6,6,0,0,1-5.75,4.39h0A5.14,5.14,0,0,1,804.38,527.65Z"/><path class="cls-13" d="M11.51,418.59a5.86,5.86,0,0,1,5.9-5.94h0a5.93,5.93,0,0,1,5.94,5.94h0a5.93,5.93,0,0,1-5.9,5.94h0A5.93,5.93,0,0,1,11.51,418.59Z"/><path class="cls-14" d="M813.53,418.15a1.43,1.43,0,0,1,0-.39h0a1.64,1.64,0,0,1,0-.44h0a6,6,0,0,1,5.94-6h0a5.93,5.93,0,0,1,5.94,5.94h0v.44h0v.43h0a5.93,5.93,0,0,1-5.94,5.94h0A5.93,5.93,0,0,1,813.53,418.15Z"/><path class="cls-15" d="M29.33,320.53a5.91,5.91,0,0,1-4.2-7.24h0a5.91,5.91,0,0,1,7.25-4.24h0a6,6,0,0,1,4.23,7.28h0a6,6,0,0,1-5.74,4.4h0A5.1,5.1,0,0,1,29.33,320.53Z"/><path class="cls-16" d="M800,315.07h0a5.9,5.9,0,0,1,4.19-7.25h0a5.92,5.92,0,0,1,7.29,4.16h0a6,6,0,0,1-4.2,7.29h0a5.42,5.42,0,0,1-1.54.19h0A5.94,5.94,0,0,1,800,315.07Z"/><path class="cls-17" d="M67.86,223.19a6,6,0,0,1-2.18-8.12h0a6,6,0,0,1,8.12-2.18h0A6,6,0,0,1,76,221h0a6,6,0,0,1-5.15,3h0A6.23,6.23,0,0,1,67.86,223.19Z"/><path class="cls-18" d="M760.26,219.9a6,6,0,0,1,2.18-8.11h0a6,6,0,0,1,8.12,2.17h0a6,6,0,0,1-2.18,8.12h0a6,6,0,0,1-3,.79h0A6,6,0,0,1,760.26,219.9Z"/><path class="cls-19" d="M130.31,139.16a6,6,0,0,1,0-8.4h0a5.9,5.9,0,0,1,8.4,0h0a5.92,5.92,0,0,1,0,8.4h0a6,6,0,0,1-4.2,1.74h0A6,6,0,0,1,130.31,139.16Z"/><path class="cls-20" d="M697.3,138.28a5.93,5.93,0,0,1,0-8.39h0a5.93,5.93,0,0,1,8.39,0h0a5.89,5.89,0,0,1,0,8.39h0A5.74,5.74,0,0,1,701.5,140h0A5.93,5.93,0,0,1,697.3,138.28Z"/><path class="cls-21" d="M212.29,74.05a6,6,0,0,1,2.14-8.12h0a6,6,0,0,1,8.12,2.18h0a6,6,0,0,1-2.14,8.12h0a6.35,6.35,0,0,1-3,.79h0A6,6,0,0,1,212.29,74.05Z"/><path class="cls-22" d="M615.4,75.59a6,6,0,0,1-2.18-8.12h0a5.91,5.91,0,0,1,8.12-2.17h0a5.91,5.91,0,0,1,2.18,8.12h0a6,6,0,0,1-5.15,3h0A6.25,6.25,0,0,1,615.4,75.59Z"/><path class="cls-23" d="M308.32,32.39a6,6,0,0,1,4.16-7.29h0a6,6,0,0,1,7.29,4.2h0a6,6,0,0,1-4.2,7.29h0a5.42,5.42,0,0,1-1.54.19h0A5.92,5.92,0,0,1,308.32,32.39Z"/><path class="cls-24" d="M520.08,36.27A6,6,0,0,1,515.84,29h0a6,6,0,0,1,7.29-4.2h0A5.89,5.89,0,0,1,527.32,32h0a5.92,5.92,0,0,1-5.74,4.44h0A6.73,6.73,0,0,1,520.08,36.27Z"/><path class="cls-25" d="M411.88,17.14a5.88,5.88,0,0,1,5.9-5.94h0a5.87,5.87,0,0,1,5.94,5.9h0a6,6,0,0,1-5.9,6h0A5.93,5.93,0,0,1,411.88,17.14Z"/></g></g></svg>