<svg xmlns="http://www.w3.org/2000/svg" viewBox="0 0 88.65 84.67"><g id="Layer_2" data-name="Layer 2"><g id="Layer_1-2" data-name="Layer 1"><path d="M47.61,2.12,58.41,24a3.75,3.75,0,0,0,2.83,2l24.24,3.53a3.64,3.64,0,0,1,2,6.26L69.93,52.93a3.6,3.6,0,0,0-1.11,3.23L73,80.3a3.71,3.71,0,0,1-5.35,3.94L46,72.83a3.44,3.44,0,0,0-3.43,0L20.94,84.24a3.71,3.71,0,0,1-5.35-3.94l4.14-24.14a3.53,3.53,0,0,0-1.11-3.23L1.14,35.86a3.65,3.65,0,0,1,2-6.26L27.4,26.06a3.89,3.89,0,0,0,2.83-2L41,2.12a3.6,3.6,0,0,1,6.57,0Z"/></g></g></svg>