<?xml version="1.0" ?><svg id="Lag_1" style="enable-background:new 0 0 204 204;" version="1.1" viewBox="0 0 204 204" xml:space="preserve" xmlns="http://www.w3.org/2000/svg" xmlns:xlink="http://www.w3.org/1999/xlink"><style type="text/css">
	.st0{fill:url(#SVGID_1_);}
	.st1{fill:#FFFFFF;}
	.st2{fill:#7091BE;}
</style><g><linearGradient gradientUnits="userSpaceOnUse" id="SVGID_1_" x1="102.0005" x2="102.0005" y1="204.0009" y2="-2.670276e-09"><stop offset="0" style="stop-color:#263B74"/><stop offset="1" style="stop-color:#4D78BF"/></linearGradient><path class="st0" d="M161.5,204h-119C19.1,204,0,184.9,0,161.5v-119C0,19.1,19.1,0,42.5,0h119C184.9,0,204,19.1,204,42.5v119   C204,184.9,184.9,204,161.5,204z"/><g><rect class="st1" height="7.3" width="68.7" x="13.5" y="98.3"/><rect class="st1" height="7.3" width="68.7" x="121.8" y="98.3"/><rect class="st1" height="68" width="6.7" x="98.8" y="13.6"/><rect class="st1" height="68" width="6.7" x="98.8" y="122.4"/><circle class="st1" cx="102.1" cy="101.6" r="12.5"/><g><path class="st1" d="M109.6,35.8c30.5,3.4,54.8,27.4,58.5,57.8h9.1c-3.9-35.3-32.2-63.4-67.6-66.9V35.8z"/><path class="st1" d="M36.2,93.7C39.9,63.4,64,39.4,94.3,35.9v-9.1c-35.3,3.6-63.4,31.6-67.2,66.8H36.2z"/><path class="st1" d="M94.3,167.9c-30.6-3.6-54.8-27.9-58.3-58.5H27c3.5,35.6,31.8,63.9,67.3,67.6V167.9z"/><path class="st1" d="M168.2,109.4c-3.5,30.7-27.9,55.1-58.6,58.6v9.1c35.7-3.5,64.1-32,67.7-67.6H168.2z"/></g><g><path class="st2" d="M109.6,65.9c14,2.9,25,13.8,28.1,27.8h9.2c-3.3-18.9-18.3-33.8-37.3-36.9V65.9z"/><path class="st2" d="M66.6,93.7C69.6,79.9,80.5,69,94.3,66v-9.2c-18.8,3.3-33.6,18.1-36.9,36.8H66.6z"/><path class="st2" d="M94.3,137.2c-13.8-3-24.7-13.9-27.8-27.8h-9.2c3.3,18.8,18.1,33.7,36.9,36.9V137.2z"/><path class="st2" d="M137.7,109.4c-3.1,14-14.1,24.9-28.1,27.8v9.1c19-3.1,34-18.1,37.3-37H137.7z"/></g></g></g></svg>