<svg xmlns="http://www.w3.org/2000/svg" width="256" height="256" viewBox="0 0 256 256">
  <path id="Контур_2" data-name="Контур 2" d="M128,23.064c34.178,0,38.226.13,51.723.746,12.48.57,19.257,2.655,23.768,4.407a39.663,39.663,0,0,1,14.718,9.575,39.656,39.656,0,0,1,9.575,14.718c1.753,4.511,3.838,11.288,4.408,23.768.616,13.5.746,17.546.746,51.723s-.13,38.226-.746,51.723c-.57,12.48-2.655,19.257-4.408,23.768a42.385,42.385,0,0,1-24.292,24.292c-4.511,1.753-11.288,3.838-23.768,4.408-13.5.616-17.543.746-51.723.746s-38.228-.13-51.723-.746c-12.48-.57-19.257-2.655-23.768-4.408a39.654,39.654,0,0,1-14.718-9.575,39.656,39.656,0,0,1-9.575-14.718c-1.753-4.511-3.838-11.288-4.408-23.768-.616-13.5-.746-17.546-.746-51.723s.13-38.226.746-51.723c.57-12.48,2.655-19.257,4.408-23.768a39.656,39.656,0,0,1,9.575-14.718,39.661,39.661,0,0,1,14.718-9.575c4.51-1.752,11.288-3.838,23.767-4.407,13.5-.616,17.546-.746,51.723-.746M128,0C93.237,0,88.878.147,75.226.77,61.6,1.392,52.3,3.556,44.155,6.72A62.742,62.742,0,0,0,21.483,21.484,62.742,62.742,0,0,0,6.72,44.155C3.555,52.3,1.392,61.6.77,75.226.147,88.878,0,93.237,0,128s.147,39.122.77,52.774C1.392,194.4,3.555,203.7,6.72,211.845a62.747,62.747,0,0,0,14.764,22.671A62.742,62.742,0,0,0,44.155,249.28c8.142,3.164,17.447,5.328,31.071,5.95,13.653.623,18.011.77,52.774.77s39.122-.147,52.774-.77c13.625-.622,22.929-2.785,31.071-5.95a65.453,65.453,0,0,0,37.435-37.435c3.164-8.142,5.328-17.447,5.95-31.071.623-13.652.77-18.011.77-52.774s-.147-39.122-.77-52.774c-.622-13.625-2.785-22.929-5.95-31.071a62.742,62.742,0,0,0-14.764-22.671A62.742,62.742,0,0,0,211.845,6.72C203.7,3.556,194.4,1.392,180.774.77,167.122.147,162.763,0,128,0Zm0,62.27A65.73,65.73,0,1,0,193.73,128,65.73,65.73,0,0,0,128,62.27Zm0,108.4A42.667,42.667,0,1,1,170.667,128,42.667,42.667,0,0,1,128,170.667ZM211.686,59.673a15.36,15.36,0,1,1-15.36-15.36A15.36,15.36,0,0,1,211.686,59.673Z" fill="#285b4d"/>
</svg>
