<svg xmlns="http://www.w3.org/2000/svg" width="130.412" height="108.048" viewBox="0 0 130.412 108.048">
  <path id="Path-3" d="M54.3,118.8q52.5-22.8,70-30.2c33.3-13.9,40.3-16.3,44.8-16.4a8.027,8.027,0,0,1,4.7,1.4,5.292,5.292,0,0,1,1.7,3.3,17.283,17.283,0,0,1,.2,4.7c-1.8,19-9.6,65.1-13.6,86.3-1.7,9-5,12-8.2,12.3-7,.6-12.3-4.6-19-9-10.6-6.9-16.5-11.2-26.8-18-11.9-7.8-4.2-12.1,2.6-19.1,1.8-1.8,32.5-29.8,33.1-32.3a2.381,2.381,0,0,0-.6-2.1,2.754,2.754,0,0,0-2.5-.2c-1.1.2-17.9,11.4-50.6,33.5-4.8,3.3-9.1,4.9-13,4.8-4.3-.1-12.5-2.4-18.7-4.4-7.5-2.4-13.5-3.7-13-7.9C45.7,123.3,48.7,121.1,54.3,118.8Z" transform="translate(-45.371 -72.2)" fill="#285b4d" fill-rule="evenodd"/>
</svg>
