<svg xmlns="http://www.w3.org/2000/svg" width="127.97" height="76" viewBox="0 0 127.97 76">
  <path id="path4" d="M157.234,66.146c.89-2.966,0-5.146-4.234-5.146H139a6.046,6.046,0,0,0-6.091,3.959S125.79,82.313,115.7,93.585c-3.263,3.263-4.746,4.3-6.526,4.3-.89,0-2.178-1.038-2.178-4V66.146c0-3.56-1.033-5.146-4-5.146H81a3.375,3.375,0,0,0-3.562,3.218c0,3.375,5.043,4.153,5.562,13.645V98.48c0,4.52-.816,5.34-2.6,5.34-4.746,0-16.291-17.431-23.138-37.377C55.924,62.566,54.578,61,51,61H37c-4,0-4.8,1.883-4.8,3.959,0,3.708,4.746,22.1,22.1,46.424C65.869,128,82.168,137,97,137c8.9,0,10-2,10-5.445V119c0-4,.843-4.8,3.661-4.8,2.076,0,5.636,1.038,13.942,9.047C134.1,132.742,135.661,137,141,137h14c4,0,6-2,4.846-5.947-1.263-3.934-5.795-9.641-11.808-16.407-3.263-3.856-8.158-8.009-9.641-10.086-2.076-2.669-1.483-3.856,0-6.229,0,0,17.057-24.028,18.837-32.185Z" transform="translate(-32.2 -61)" fill="#285b4d" fill-rule="evenodd"/>
</svg>
