<svg xmlns="http://www.w3.org/2000/svg" width="208.745" height="209.748" viewBox="0 0 208.745 209.748">
  <g id="WA_Logo" transform="translate(-45.447 -40.497)">
    <g id="Сгруппировать_1" data-name="Сгруппировать 1">
      <path id="Контур_1" data-name="Контур 1" d="M223.777,70.979A103.96,103.96,0,0,0,60.192,196.387L45.447,250.245l55.1-14.453a103.848,103.848,0,0,0,49.668,12.651h.043A103.979,103.979,0,0,0,223.777,70.979ZM150.256,230.89h-.035a86.252,86.252,0,0,1-43.968-12.042l-3.155-1.871-32.7,8.576,8.727-31.878-2.054-3.27a86.385,86.385,0,1,1,73.181,40.485Zm47.385-64.7c-2.6-1.3-15.364-7.582-17.745-8.449s-4.112-1.3-5.843,1.3-6.709,8.449-8.224,10.183-3.03,1.95-5.626.649-10.965-4.042-20.885-12.89a78.25,78.25,0,0,1-14.447-17.991c-1.515-2.6-.162-4.005,1.139-5.3,1.168-1.164,2.6-3.034,3.9-4.55a17.7,17.7,0,0,0,2.6-4.333,4.778,4.778,0,0,0-.217-4.549c-.649-1.3-5.843-14.084-8.007-19.284-2.108-5.063-4.249-4.378-5.843-4.458-1.513-.075-3.246-.092-4.978-.092a9.541,9.541,0,0,0-6.925,3.25c-2.38,2.6-9.089,8.883-9.089,21.666s9.305,25.131,10.6,26.865,18.313,27.964,44.364,39.214a149.4,149.4,0,0,0,14.805,5.471,35.6,35.6,0,0,0,16.357,1.029c4.99-.746,15.365-6.283,17.529-12.349s2.164-11.267,1.515-12.35S200.238,167.49,197.641,166.189Z" fill="#285b4d" fill-rule="evenodd"/>
    </g>
  </g>
</svg>
