<svg width="25" height="24" viewBox="0 0 25 24" fill="none" xmlns="http://www.w3.org/2000/svg">
<path d="M15.5 17V18C15.5 19.6569 14.1569 21 12.5 21C10.8431 21 9.5 19.6569 9.5 18V17.0001M15.5 17L9.5 17.0001M15.5 17H19.5C20.0523 17 20.5 16.5523 20.5 16V15.4141C20.5 15.1489 20.3945 14.8946 20.207 14.707L19.6963 14.1963C19.5706 14.0706 19.5 13.9 19.5 13.7222V10C19.5 9.82357 19.4936 9.64855 19.4805 9.4761M9.5 17.0001L5.5 17.0001C4.94772 17.0001 4.5 16.5521 4.5 15.9998V15.4141C4.5 15.1489 4.60544 14.8949 4.79297 14.7073L5.30371 14.1958C5.42939 14.0701 5.5 13.9002 5.5 13.7224V9.99998C5.5 6.13401 8.634 3 12.5 3C13.2116 3 13.8984 3.10618 14.5454 3.30357M19.4805 9.4761C20.6868 8.7873 21.5 7.48861 21.5 6C21.5 3.79086 19.7091 2 17.5 2C16.3298 2 15.2769 2.50253 14.5454 3.30357M19.4805 9.4761C18.8966 9.80949 18.2205 10 17.5 10C15.2909 10 13.5 8.20914 13.5 6C13.5 4.9611 13.8961 4.0147 14.5454 3.30357M19.4805 9.4761C19.4805 9.47609 19.4805 9.4761 19.4805 9.4761ZM14.5454 3.30357C14.5459 3.30371 14.5464 3.30385 14.5468 3.304" stroke="#2D2D2D" stroke-width="1.5" stroke-linecap="round" stroke-linejoin="round"/>
</svg>
