<svg width="25" height="25" viewBox="0 0 25 25" fill="none" xmlns="http://www.w3.org/2000/svg">
<path d="M8.90625 8.67773H7.68359C6.38397 8.67773 5.7347 8.67773 5.27246 8.94288C4.86683 9.17555 4.55502 9.54308 4.3922 9.98145C4.20678 10.4807 4.31351 11.1211 4.5269 12.4014L4.52734 12.4038L5.46068 18.0038C5.61901 18.9538 5.69869 19.429 5.93572 19.7854C6.14466 20.0996 6.43795 20.348 6.78223 20.5024C7.17278 20.6776 7.65412 20.6777 8.61719 20.6777H17.1956C18.1586 20.6777 18.6397 20.6776 19.0302 20.5024C19.3745 20.348 19.668 20.0996 19.877 19.7854C20.114 19.429 20.1932 18.9538 20.3516 18.0038L21.2849 12.4038L21.2858 12.3999C21.499 11.1206 21.6057 10.4805 21.4204 9.98145C21.2575 9.54308 20.9465 9.17555 20.5408 8.94288C20.0786 8.67773 19.4283 8.67773 18.1286 8.67773H16.9062M8.90625 8.67773H16.9062M8.90625 8.67773C8.90625 6.4686 10.6971 4.67773 12.9062 4.67773C15.1154 4.67773 16.9062 6.4686 16.9062 8.67773" stroke="#2D2D2D" stroke-width="2" stroke-linecap="round" stroke-linejoin="round"/>
</svg>
