<svg width="125" height="44" viewBox="0 0 125 44" fill="none" xmlns="http://www.w3.org/2000/svg">
<rect width="125" height="44" rx="8" fill="#F5F5F7"/>
<path d="M18.6665 28.6663H37.3332M18.6665 21.9997H37.3332M18.6665 15.333H37.3332" stroke="#285B4D" stroke-width="2" stroke-linecap="round" stroke-linejoin="round"/>
<path d="M50.958 28H49.479V15.981H50.958V21.523H52.743L56.653 15.981H58.353L54.035 21.948L58.387 28H56.636L52.862 22.866H50.958V28ZM65.497 26.861C65.3043 27.1217 65.0833 27.3313 64.834 27.49C64.5847 27.6487 64.324 27.7733 64.052 27.864C63.7913 27.9547 63.525 28.017 63.253 28.051C62.9923 28.085 62.7317 28.102 62.471 28.102C62.0517 28.102 61.655 28.051 61.281 27.949C60.907 27.847 60.567 27.6827 60.261 27.456C59.9663 27.2293 59.7283 26.946 59.547 26.606C59.377 26.266 59.292 25.8807 59.292 25.45C59.292 24.94 59.3827 24.515 59.564 24.175C59.7567 23.8237 60.0117 23.5403 60.329 23.325C60.6463 23.1097 61.009 22.9623 61.417 22.883C61.8363 22.7923 62.2783 22.747 62.743 22.747H65.378C65.378 21.9877 65.2137 21.387 64.885 20.945C64.5563 20.4917 64.001 20.2537 63.219 20.231C62.743 20.231 62.3237 20.3103 61.961 20.469C61.5983 20.6277 61.349 20.8883 61.213 21.251H59.666C59.7453 20.843 59.904 20.4973 60.142 20.214C60.38 19.9193 60.6633 19.6813 60.992 19.5C61.3207 19.3073 61.6777 19.1657 62.063 19.075C62.4483 18.9843 62.8337 18.939 63.219 18.939C63.8877 18.939 64.4487 19.0523 64.902 19.279C65.3667 19.4943 65.7407 19.7833 66.024 20.146C66.3073 20.4973 66.5057 20.928 66.619 21.438C66.7323 21.948 66.789 22.5203 66.789 23.155V28H65.582L65.497 26.861ZM63.797 23.954C63.525 23.954 63.2077 23.954 62.845 23.954C62.4937 23.954 62.1537 23.9937 61.825 24.073C61.4963 24.141 61.23 24.2827 61.026 24.498C60.8333 24.7133 60.737 24.9967 60.737 25.348C60.737 25.6087 60.788 25.8297 60.89 26.011C60.992 26.1923 61.128 26.3453 61.298 26.47C61.4793 26.5947 61.6833 26.6853 61.91 26.742C62.1367 26.7987 62.369 26.827 62.607 26.827C63.457 26.827 64.1257 26.623 64.613 26.215C65.1117 25.7957 65.3667 25.1893 65.378 24.396V23.954H63.797ZM75.6407 19.041V20.316H72.5637V28H71.1187V20.316H68.0417V19.041H75.6407ZM82.829 26.861C82.6363 27.1217 82.4153 27.3313 82.166 27.49C81.9167 27.6487 81.656 27.7733 81.384 27.864C81.1233 27.9547 80.857 28.017 80.585 28.051C80.3243 28.085 80.0637 28.102 79.803 28.102C79.3837 28.102 78.987 28.051 78.613 27.949C78.239 27.847 77.899 27.6827 77.593 27.456C77.2983 27.2293 77.0603 26.946 76.879 26.606C76.709 26.266 76.624 25.8807 76.624 25.45C76.624 24.94 76.7147 24.515 76.896 24.175C77.0887 23.8237 77.3437 23.5403 77.661 23.325C77.9783 23.1097 78.341 22.9623 78.749 22.883C79.1683 22.7923 79.6103 22.747 80.075 22.747H82.71C82.71 21.9877 82.5457 21.387 82.217 20.945C81.8883 20.4917 81.333 20.2537 80.551 20.231C80.075 20.231 79.6557 20.3103 79.293 20.469C78.9303 20.6277 78.681 20.8883 78.545 21.251H76.998C77.0773 20.843 77.236 20.4973 77.474 20.214C77.712 19.9193 77.9953 19.6813 78.324 19.5C78.6527 19.3073 79.0097 19.1657 79.395 19.075C79.7803 18.9843 80.1657 18.939 80.551 18.939C81.2197 18.939 81.7807 19.0523 82.234 19.279C82.6987 19.4943 83.0727 19.7833 83.356 20.146C83.6393 20.4973 83.8377 20.928 83.951 21.438C84.0643 21.948 84.121 22.5203 84.121 23.155V28H82.914L82.829 26.861ZM81.129 23.954C80.857 23.954 80.5397 23.954 80.177 23.954C79.8257 23.954 79.4857 23.9937 79.157 24.073C78.8283 24.141 78.562 24.2827 78.358 24.498C78.1653 24.7133 78.069 24.9967 78.069 25.348C78.069 25.6087 78.12 25.8297 78.222 26.011C78.324 26.1923 78.46 26.3453 78.63 26.47C78.8113 26.5947 79.0153 26.6853 79.242 26.742C79.4687 26.7987 79.701 26.827 79.939 26.827C80.789 26.827 81.4577 26.623 81.945 26.215C82.4437 25.7957 82.6987 25.1893 82.71 24.396V23.954H81.129ZM87.1927 23.801C87.2494 22.985 87.289 22.1917 87.3117 21.421C87.3457 20.6503 87.3684 19.857 87.3797 19.041H93.6017V28H92.1567V20.316H88.7907L88.6377 23.835C88.615 24.2883 88.564 24.7983 88.4847 25.365C88.4054 25.9317 88.241 26.4473 87.9917 26.912C87.799 27.2407 87.5384 27.507 87.2097 27.711C86.881 27.915 86.5014 28.017 86.0707 28.017H85.5437V26.742C85.997 26.742 86.3597 26.5493 86.6317 26.164C86.7904 25.9373 86.915 25.6087 87.0057 25.178C87.0964 24.7473 87.1587 24.2883 87.1927 23.801ZM99.8164 18.939C100.53 18.939 101.148 19.0523 101.669 19.279C102.191 19.5057 102.627 19.823 102.978 20.231C103.341 20.639 103.607 21.1263 103.777 21.693C103.959 22.2483 104.049 22.8603 104.049 23.529C104.049 24.1977 103.959 24.8153 103.777 25.382C103.607 25.9373 103.341 26.419 102.978 26.827C102.627 27.2237 102.185 27.5353 101.652 27.762C101.12 27.9887 100.496 28.102 99.7824 28.102C99.0684 28.102 98.4451 27.9887 97.9124 27.762C97.3911 27.5353 96.9491 27.2237 96.5864 26.827C96.2351 26.419 95.9687 25.9373 95.7874 25.382C95.6174 24.8153 95.5324 24.1977 95.5324 23.529C95.5324 22.8603 95.6174 22.2483 95.7874 21.693C95.9687 21.1263 96.2351 20.639 96.5864 20.231C96.9491 19.823 97.3967 19.5057 97.9294 19.279C98.4621 19.0523 99.0911 18.939 99.8164 18.939ZM99.7824 26.827C100.27 26.827 100.689 26.742 101.04 26.572C101.403 26.402 101.698 26.1697 101.924 25.875C102.162 25.569 102.332 25.2177 102.434 24.821C102.548 24.4243 102.604 23.9937 102.604 23.529C102.604 23.0757 102.548 22.6507 102.434 22.254C102.332 21.846 102.162 21.4947 101.924 21.2C101.698 20.894 101.403 20.656 101.04 20.486C100.689 20.316 100.27 20.231 99.7824 20.231C99.2951 20.231 98.8757 20.316 98.5244 20.486C98.1731 20.656 97.8784 20.894 97.6404 21.2C97.4137 21.4947 97.2437 21.846 97.1304 22.254C97.0284 22.6507 96.9774 23.0757 96.9774 23.529C96.9774 23.9937 97.0284 24.4243 97.1304 24.821C97.2437 25.2177 97.4137 25.569 97.6404 25.875C97.8784 26.1697 98.1731 26.402 98.5244 26.572C98.8757 26.742 99.2951 26.827 99.7824 26.827ZM105.983 28V19.041H112.171V20.316H107.428V28H105.983Z" fill="#285B4D"/>
</svg>
