<svg xmlns="http://www.w3.org/2000/svg" viewBox="0 0 134.49 15.41"><defs><style>.cls-1,.cls-2{fill:#fff;}.cls-1{fill-rule:evenodd;}</style></defs><g id="Layer_2" data-name="Layer 2"><g id="Layer_1-2" data-name="Layer 1"><path class="cls-1" d="M7.06,3.53A3.53,3.53,0,1,1,3.53,0,3.53,3.53,0,0,1,7.06,3.53Zm.06,8.33A3.53,3.53,0,1,1,3.59,8.33,3.53,3.53,0,0,1,7.12,11.86Zm4.74,3.55a3.53,3.53,0,1,0-3.52-3.53A3.53,3.53,0,0,0,11.86,15.41Z"/><path class="cls-2" d="M15.33,3.58A3.53,3.53,0,1,1,11.81.05,3.53,3.53,0,0,1,15.33,3.58Zm-5.69,0a2.17,2.17,0,1,0,2.17-2.17A2.17,2.17,0,0,0,9.64,3.58Z"/><path class="cls-2" d="M32.26,3.41H26.44v9.13h-2V1.61h9.72V12.54h-2Zm9.53,2.93H39.27l-.05,1a15.7,15.7,0,0,1-.33,2.89,5.06,5.06,0,0,1-.59,1.61,1.6,1.6,0,0,1-.8.67,3,3,0,0,1-.89.14,3.11,3.11,0,0,1-.43,0,1.94,1.94,0,0,1-.33,0V10.66a1.17,1.17,0,0,0,.87,0,.94.94,0,0,0,.41-.53,5.54,5.54,0,0,0,.28-1.28,23,23,0,0,0,.17-2.39l.06-1.7h6v7.81H41.79ZM46,5.28a3.4,3.4,0,0,1,1.08-.5,6.5,6.5,0,0,1,1.72-.2,4.2,4.2,0,0,1,2.56.64,2.55,2.55,0,0,1,.84,2.17v5.15H50.5V11.13a2.29,2.29,0,0,1-1,1.11,3,3,0,0,1-1.61.42A2.66,2.66,0,0,1,46.07,12a2.4,2.4,0,0,1-.66-1.8,2.34,2.34,0,0,1,.24-1.11,1.64,1.64,0,0,1,.65-.68,2.93,2.93,0,0,1,1-.38A7.45,7.45,0,0,1,48.63,8h1.76V7.62A1.37,1.37,0,0,0,50,6.48a1.84,1.84,0,0,0-1.17-.31,3.4,3.4,0,0,0-1.74.39,3.08,3.08,0,0,0-1.06,1ZM48.5,11a2.34,2.34,0,0,0,.8-.11,2.41,2.41,0,0,0,.58-.29,1.71,1.71,0,0,0,.36-.41,1.18,1.18,0,0,0,.15-.42V9.15H48.85a2.82,2.82,0,0,0-1.2.19.71.71,0,0,0-.39.72.86.86,0,0,0,.31.71A1.49,1.49,0,0,0,48.5,11Zm7.61-4.68h-2.5V4.73h6.83V6.34H57.92v6.2H56.11ZM62,4.73h1.81V10l3.75-5.29h1.73v7.81H67.44V7.18l-3.75,5.36H62ZM79.24,9.79a2.91,2.91,0,0,1-.94.34,4.8,4.8,0,0,1-1.07.11A3.39,3.39,0,0,1,75,9.59a2.53,2.53,0,0,1-.8-2.06V4.73h1.83V7.25a1.35,1.35,0,0,0,.37,1,1.71,1.71,0,0,0,1.13.33,3.71,3.71,0,0,0,1.68-.36V4.73h1.83v7.81H79.24Zm4.22-4.51a3.4,3.4,0,0,1,1.08-.5,6.5,6.5,0,0,1,1.72-.2,4.2,4.2,0,0,1,2.56.64,2.55,2.55,0,0,1,.84,2.17v5.15H87.94V11.13a2.29,2.29,0,0,1-1,1.11,3,3,0,0,1-1.61.42A2.66,2.66,0,0,1,83.51,12a2.4,2.4,0,0,1-.66-1.8,2.34,2.34,0,0,1,.24-1.11,1.64,1.64,0,0,1,.65-.68,2.93,2.93,0,0,1,1-.38A7.45,7.45,0,0,1,86.07,8h1.76V7.62a1.37,1.37,0,0,0-.4-1.14,1.84,1.84,0,0,0-1.17-.31,3.4,3.4,0,0,0-1.74.39,3.08,3.08,0,0,0-1.06,1ZM86,11a2.32,2.32,0,0,0,.79-.11,2.41,2.41,0,0,0,.58-.29,1.71,1.71,0,0,0,.36-.41,1.18,1.18,0,0,0,.15-.42V9.15H86.29a2.82,2.82,0,0,0-1.2.19.71.71,0,0,0-.39.72.86.86,0,0,0,.31.71A1.5,1.5,0,0,0,86,11Zm12,.74a2.68,2.68,0,0,1-1,.64,4,4,0,0,1-1.63.31,5.43,5.43,0,0,1-1.71-.25,3.84,3.84,0,0,1-1.31-.78,3.48,3.48,0,0,1-.84-1.28,4.93,4.93,0,0,1-.29-1.8,4.67,4.67,0,0,1,.29-1.74,3.4,3.4,0,0,1,.86-1.27,3.35,3.35,0,0,1,1.31-.76,5.09,5.09,0,0,1,1.7-.27,5.38,5.38,0,0,1,1.45.22,3.43,3.43,0,0,1,1.05.5V7.56a3.08,3.08,0,0,0-1-1,2.78,2.78,0,0,0-1.47-.41,2.32,2.32,0,0,0-1.72.6,2.43,2.43,0,0,0-.59,1.78v.23a2.38,2.38,0,0,0,.61,1.8,2.52,2.52,0,0,0,1.73.56A3.2,3.2,0,0,0,97,10.76,2.37,2.37,0,0,0,98,9.88Zm3.61-5.42H99.1V4.73h6.83V6.34H103.4v6.2h-1.81ZM112.18,10h-1.81l-1.58,2.58h-2l1.81-2.83a2.22,2.22,0,0,1-1.06-.82,2.43,2.43,0,0,1-.36-1.33A2.58,2.58,0,0,1,108,5.42a4.19,4.19,0,0,1,2.67-.69H114v7.81h-1.82Zm-1.45-3.62a2.47,2.47,0,0,0-1.33.27,1,1,0,0,0-.41.95,1,1,0,0,0,.35.75,1.77,1.77,0,0,0,1,.25h1.8V6.34Zm12.41,1-2.25,3.31h-.57l-2.27-3.32v5.26h-1.82V4.73h1.89l2.54,3.66,2.47-3.66H125v7.81h-1.83Zm4.06-2.56H129V10l3.75-5.29h1.73v7.81h-1.81V7.18l-3.75,5.36H127.2Z"/></g></g></svg>