<svg xmlns="http://www.w3.org/2000/svg" viewBox="0 0 525.05 524.86"><defs><style>.cls-1{fill:#e5e5e5;}</style></defs><g id="Layer_2" data-name="Layer 2"><g id="Layer_1-2" data-name="Layer 1"><path d="M157.52,244.86v140a8.74,8.74,0,0,0,8.75,8.75h210a8.74,8.74,0,0,0,8.75-8.75v-140a8.74,8.74,0,0,0-8.75-8.75h-210A8.75,8.75,0,0,0,157.52,244.86Zm107.84,102.7a8.75,8.75,0,0,0,11.83,0l15.64-14.32L350,376.11H192.52l57.2-42.87ZM306,321.19l61.56-56.44V367.36Zm-34.69,8.06-82.5-75.64h165Zm-34.68-8.06L175,367.36V264.75Z"/><path class="cls-1" d="M52.52,148.61h105a8.75,8.75,0,0,0,8.63-7.32l8.75-52.5a8.75,8.75,0,0,0-8.63-10.18H140V69.86a26.25,26.25,0,0,0-52.5,0v8.75h-35a8.75,8.75,0,0,0-8.75,8.75v52.5a8.74,8.74,0,0,0,8.75,8.75ZM105,87.36V69.86a8.75,8.75,0,0,1,17.5,0v17.5a8.74,8.74,0,0,0,8.75,8.75h24.67l-5.83,35H96.27v-35A8.74,8.74,0,0,0,105,87.36ZM61.27,96.11h17.5v35H61.27Z"/><path class="cls-1" d="M105,209.86a104,104,0,0,0,38.62-7.37l55.22,15.75a9.38,9.38,0,0,0,2.41.37,8.74,8.74,0,0,0,8.49-10.87l-13-52A104.93,104.93,0,1,0,105,209.86Zm0-192.5a87.36,87.36,0,0,1,74.9,132.55,8.77,8.77,0,0,0-1,6.64l10.19,40.73-43.6-12.46h0a8.78,8.78,0,0,0-5.87.39A87.5,87.5,0,1,1,105,17.36Z"/><path class="cls-1" d="M484.63,420l-50.26-41.9A8.75,8.75,0,0,0,420,384.86v35h-52.5a35,35,0,0,0-35,35v35a35,35,0,0,0,35,35H481.27a35,35,0,0,0,35-35v-35A35,35,0,0,0,484.63,420Zm14.14,69.83a17.48,17.48,0,0,1-17.5,17.5H367.52a17.5,17.5,0,0,1-17.5-17.5v-35a17.51,17.51,0,0,1,17.5-17.5h61.25a8.74,8.74,0,0,0,8.75-8.75V403.54l38.15,31.8h0a8.73,8.73,0,0,0,5.6,2,17.5,17.5,0,0,1,17.5,17.5Z"/><path class="cls-1" d="M468.14,459.24a13.12,13.12,0,1,0,13.13,13.13,13.12,13.12,0,0,0-13.13-13.13Zm0,17.5a4.39,4.39,0,1,1,3.09-1.28,4.38,4.38,0,0,1-3.09,1.28Z"/><path class="cls-1" d="M424.4,459.24a13.12,13.12,0,1,0,13.13,13.13,13.12,13.12,0,0,0-13.13-13.13Zm0,17.5a4.39,4.39,0,1,1,3.09-1.28,4.38,4.38,0,0,1-3.09,1.28Z"/><path class="cls-1" d="M380.64,459.24a13.12,13.12,0,1,0,13.13,13.13,13.12,13.12,0,0,0-13.13-13.13Zm0,17.5a4.39,4.39,0,1,1,3.09-1.28,4.38,4.38,0,0,1-3.09,1.28Z"/><path class="cls-1" d="M428.77,17.36A96.11,96.11,0,0,0,344.52,160l-11.74,47a8.75,8.75,0,0,0,8.49,10.86,9,9,0,0,0,2.41-.33l49.94-14.28A96.25,96.25,0,1,0,428.77,17.36Zm0,175a78,78,0,0,1-31.16-6.43,8.78,8.78,0,0,0-5.87-.39l-38.31,11,8.93-35.7h0a8.77,8.77,0,0,0-1-6.64,78.68,78.68,0,1,1,67.41,38.21Z"/><path class="cls-1" d="M469.52,68.71a35.33,35.33,0,0,0-37.91,4.9L428.77,76l-2.84-2.36a35.64,35.64,0,0,0-45.6,54.79L423.2,164.1a8.74,8.74,0,0,0,11.21,0l42.87-35.69a35.68,35.68,0,0,0-7.69-59.67ZM466,114.94l-37.25,31-37.23-31A18.05,18.05,0,0,1,385,101a17.73,17.73,0,0,1,10.43-16.39,18.14,18.14,0,0,1,7.8-1.75,17.86,17.86,0,0,1,11.48,4.26l8.44,7h0a8.76,8.76,0,0,0,11.2,0l8.45-7h0A18.12,18.12,0,1,1,466,114.94Z"/><path class="cls-1" d="M145.44,488a8.86,8.86,0,0,0,1-.88L204,425.86a8.75,8.75,0,0,0-6.38-14.75H149.3A78.75,78.75,0,1,0,145.44,488ZM17.52,446.11a61.25,61.25,0,0,1,118-23,8.76,8.76,0,0,0,8.11,5.46h33.73l-40.93,43.54a8.76,8.76,0,0,0-4.18,3.77A61.25,61.25,0,0,1,17.52,446.11Z"/><path class="cls-1" d="M87.52,472.36v-17.5H105v-17.5H87.52v-17.5H70v17.5H52.52v17.5H70v17.5Z"/><path d="M87.52,253.61H140v17.5H87.52Z"/><path d="M52.52,288.61H140v17.5H52.52Z"/><path d="M87.52,323.61H140v17.5H87.52Z"/></g></g></svg>