<svg xmlns="http://www.w3.org/2000/svg" viewBox="0 0 181.47 26.51"><defs><style>.cls-1{fill:#fff;}</style></defs><g id="Layer_2" data-name="Layer 2"><g id="Layer_1-2" data-name="Layer 1"><path class="cls-1" d="M146.23,12.05l-7-7.77h-4.1v18h4.28V10.79l6.4,6.8h.79l6.29-6.8V22.26h4.28v-18h-4.1l-6.83,7.77Zm31.32-7.77L166.94,16V4.28h-4.28v18h3.93l10.6-11.68V22.26h4.28v-18Zm-65.49,6.58a6.29,6.29,0,0,0,4,6.06l-4.52,5.34h5.23l4.12-4.85h4.45v4.85h4.28v-18H118.72a6.29,6.29,0,0,0-6.66,6.58Zm13.27-2.62v5.32h-5.82c-2,0-3-1.08-3-2.66s1.08-2.66,3-2.66ZM92.18,7.88C91.91,14.06,90.6,18.05,88,18.05H87.4v4.32l.68,0c5.14.28,8-4.21,8.45-14h6.76V22.26h4.28v-18H92.32ZM76.07,4c-5.79,0-10,4-10,9.24,0,5.43,4.53,9.28,10,9.28,5.64,0,10-4.06,10-9.28S81.71,4,76.07,4Zm0,14.21c-3.28,0-5.5-2.13-5.5-5s2.23-5,5.5-5,5.57,2.16,5.57,5S79.3,18.24,76.07,18.24ZM61.57,4.32H46.47l-.15,3.59c-.21,5.18-1.57,10.11-4.13,10.18l-1.19,0v8.38h4.32V22.26h15V26.5h4.36V18.09h-3.1ZM57.29,18.09H48.16c1.54-2.34,2.37-5.72,2.52-9.67h6.61v9.67ZM31,0H27V22h4ZM4,4.5H0v22H4ZM13,3H9V25h4Zm9-1.5H18v22h4Z"/></g></g></svg>