<svg xmlns="http://www.w3.org/2000/svg" viewBox="0 0 23 20.01"><defs><style>.cls-1{fill:#fff;fill-rule:evenodd;}</style></defs><title>Ресурс 1sort_icons</title><g id="Слой_2" data-name="Слой 2"><g id="Слой_1-2" data-name="Слой 1"><path class="cls-1" d="M19.73.69a6.08,6.08,0,0,0-8.2,2.58A6.08,6.08,0,0,0,1.59,2.06a6.19,6.19,0,0,0,.46,8.74L11.31,20h.38L21,10.69a6.15,6.15,0,0,0,2-4.53A6.08,6.08,0,0,0,19.73.69Zm.1,8.49-8.18,8.16h-.31l-8.09-8h0a4.28,4.28,0,0,1,3-7.3A4.22,4.22,0,0,1,9.6,3.68h0l.07.1a3.79,3.79,0,0,1,.2.34l1.7,2.71,1.47-2.46a5.32,5.32,0,0,1,.39-.65l0-.06h0A4.13,4.13,0,0,1,16.81,2a4.24,4.24,0,0,1,3,7.19Z"/></g></g></svg>