<svg width="49" height="48" viewBox="0 0 49 48" fill="none" xmlns="http://www.w3.org/2000/svg">
<rect x="0.8125" width="48" height="48" rx="24" fill="#285B4D"/>
<path d="M16.4958 22.8972C21.6734 20.6594 25.1251 19.184 26.851 18.4712C31.7844 16.4358 32.8082 16.0823 33.4769 16.0704C33.624 16.068 33.9514 16.104 34.165 16.2755C34.3426 16.4201 34.3926 16.6156 34.4176 16.7527C34.4398 16.8898 34.4703 17.2023 34.4454 17.4462C34.179 20.2324 33.0219 26.9937 32.4337 30.1144C32.1868 31.4349 31.6956 31.8776 31.2211 31.9209C30.1889 32.015 29.4064 31.2447 28.4075 30.5951C26.8454 29.5784 25.9631 28.9457 24.4453 27.9537C22.6917 26.8073 23.8293 26.1771 24.8282 25.1474C25.089 24.8779 29.634 20.777 29.72 20.405C29.7311 20.3585 29.7422 20.1851 29.6368 20.0937C29.5341 20.002 29.3814 20.0334 29.2704 20.0581C29.1123 20.0934 26.6178 21.731 21.7788 24.9707C21.0712 25.4536 20.4303 25.689 19.8531 25.6766C19.2205 25.6631 17.9997 25.3209 17.0924 25.0285C15.9825 24.6697 15.0973 24.48 15.175 23.8708C15.2139 23.5536 15.6551 23.229 16.4958 22.8972Z" fill="white"/>
</svg>
