<svg width="25" height="24" viewBox="0 0 25 24" fill="none" xmlns="http://www.w3.org/2000/svg">
<path d="M8.8125 8H7.58984C6.29022 8 5.64095 8 5.17871 8.26514C4.77308 8.49781 4.46127 8.86535 4.29845 9.30371C4.11303 9.80294 4.21976 10.4433 4.43315 11.7237L4.43359 11.7261L5.36693 17.3261C5.52526 18.276 5.60494 18.7512 5.84197 19.1077C6.05091 19.4219 6.3442 19.6703 6.68848 19.8247C7.07903 19.9999 7.56037 20 8.52344 20H17.1018C18.0649 20 18.5459 19.9999 18.9365 19.8247C19.2807 19.6703 19.5743 19.4219 19.7832 19.1077C20.0202 18.7512 20.0995 18.276 20.2578 17.3261L21.1911 11.7261L21.1921 11.7222C21.4053 10.4428 21.512 9.80274 21.3266 9.30371C21.1638 8.86535 20.8527 8.49781 20.4471 8.26514C19.9849 8 19.3345 8 18.0349 8H16.8125M8.8125 8H16.8125M8.8125 8C8.8125 5.79086 10.6034 4 12.8125 4C15.0216 4 16.8125 5.79086 16.8125 8" stroke="white" stroke-width="2" stroke-linecap="round" stroke-linejoin="round"/>
</svg>
