<svg xmlns="http://www.w3.org/2000/svg" viewBox="0 0 51.05 45.76"><title>Ресурс 1</title><g id="Слой_2" data-name="Слой 2"><g id="Слой_1-2" data-name="Слой 1"><path d="M46.69,4.36a14.9,14.9,0,0,0-21.06,0l-.11.11-.1-.11A14.9,14.9,0,0,0,4.36,25.43L24.11,45.18a2,2,0,0,0,1.41.58,2,2,0,0,0,1.42-.58L46.69,25.42A14.9,14.9,0,0,0,46.69,4.36ZM43.86,22.6,25.52,40.94,7.18,22.6A10.9,10.9,0,0,1,14.89,4a10.81,10.81,0,0,1,7.7,3.19l1.52,1.52a2.06,2.06,0,0,0,2.83,0l1.52-1.52A10.89,10.89,0,0,1,43.86,22.6Z"/></g></g></svg>