<svg xmlns="http://www.w3.org/2000/svg" width="194.597" height="248.426" viewBox="0 0 194.597 248.426">
  <path id="Path_87" data-name="Path 87" d="M438.9,198.48H400.349a51.033,51.033,0,0,0-100.7,0H261.1a8.4,8.4,0,0,0-8.4,8.4v188.93a8.4,8.4,0,0,0,8.4,8.4H438.9a8.4,8.4,0,0,0,8.4-8.4V206.878a8.4,8.4,0,0,0-8.4-8.4Zm-88.9-25.9a34.34,34.34,0,0,1,33.219,25.9H316.783A34.333,34.333,0,0,1,350,172.582Zm80.5,214.84h-161V215.282h161Zm-123.17-135.03a9.784,9.784,0,0,0,6.887-16.746,10.124,10.124,0,0,0-13.832,0,9.8,9.8,0,0,0,6.945,16.746Zm85.4,0a10.024,10.024,0,0,0,6.883-2.855,9.9,9.9,0,0,0,2.918-6.945,9.774,9.774,0,0,0-2.918-6.945,10.124,10.124,0,0,0-13.832,0,9.648,9.648,0,0,0-2.855,6.945,9.841,9.841,0,0,0,2.855,6.945A10,10,0,0,0,392.73,252.392Z" transform="translate(-252.704 -155.781)" fill="#285b4d"/>
</svg>
