<svg xmlns="http://www.w3.org/2000/svg" width="548.8" height="411.04" viewBox="0 0 548.8 411.04">
  <g id="noun-barcode-2801264" transform="translate(-75.602 -74.48)">
    <path id="Path_4" data-name="Path 4" d="M75.6,74.48h68.879V417.76H75.6Zm103.04,0H212.8V417.76h-34.16Zm68.32,0h34.16V417.76h-34.16Zm103.04,0h34.16V417.76H350Zm137.2,0h34.16V417.76H487.2Zm103.04,0H624.4V417.76h-34.16Zm-171.36,0h17.359V417.76H418.882Zm-103.04,0H333.2V417.76H315.842Zm222.88,0h17.359V417.76H538.722ZM75.6,451.36h34.16v34.16H75.6Zm103.04,0H212.8v34.16h-34.16Zm68.32,0h34.16v34.16h-34.16Zm171.92,0h34.16v34.16h-34.16Zm171.36,0H624.4v34.16h-34.16Zm-103.04,0h68.879v34.16H487.2Zm-171.36,0h68.879v34.16H315.842Z"/>
  </g>
</svg>
