<svg xmlns="http://www.w3.org/2000/svg" width="77" height="88" viewBox="0 0 77 88">
  <g id="Слой_2" data-name="Слой 2" transform="translate(0)">
    <g id="Слой_1" data-name="Слой 1">
      <path id="Path_130" data-name="Path 130" d="M38.5,42.4A21.2,21.2,0,1,1,59.7,21.2,21.2,21.2,0,0,1,38.5,42.4ZM38.5,5A16.2,16.2,0,1,0,54.7,21.2,16.2,16.2,0,0,0,38.5,5Z" fill="#285b4d"/>
      <path id="Path_131" data-name="Path 131" d="M74.5,88H2.5A2.48,2.48,0,0,1,0,85.5a38.5,38.5,0,0,1,77-.3v.3A2.54,2.54,0,0,1,74.5,88ZM5.1,83H71.9A33.49,33.49,0,0,0,5.1,83Z" fill="#285b4d"/>
    </g>
  </g>
</svg>
