<svg xmlns="http://www.w3.org/2000/svg" width="559.998" height="536.28" viewBox="0 0 559.998 536.28">
  <path id="noun-sale-4634308" d="M600.93,332.5A80.12,80.12,0,0,0,630,280a80.171,80.171,0,0,0-29.066-52.5,81.269,81.269,0,0,1-17.867-23.188,84.556,84.556,0,0,1,.629-30.711,78.856,78.856,0,0,0-7.176-58.152,79.319,79.319,0,0,0-53.445-24.973,83.533,83.533,0,0,1-29.066-8.75A82.667,82.667,0,0,1,477.1,57.085a79.648,79.648,0,0,0-40.562-43.453,78.206,78.206,0,0,0-56.875,11.113A85.093,85.093,0,0,1,350,35a85.068,85.068,0,0,1-29.75-10.254,78.459,78.459,0,0,0-56.875-11.113A79.693,79.693,0,0,0,222.9,57.155,82.474,82.474,0,0,1,205.99,81.776a82.97,82.97,0,0,1-29.051,8.75,79.331,79.331,0,0,0-53.461,24.867,78.856,78.856,0,0,0-7.176,58.152,84.579,84.579,0,0,1,.629,30.715A81.484,81.484,0,0,1,99.064,227.5,80.12,80.12,0,0,0,70,280a80.171,80.171,0,0,0,29.066,52.5,81.269,81.269,0,0,1,17.867,23.188A84.557,84.557,0,0,1,116.3,386.4a78.856,78.856,0,0,0,7.176,58.152,79.319,79.319,0,0,0,53.445,24.973,83.532,83.532,0,0,1,29.066,8.75A82.667,82.667,0,0,1,222.9,502.913a79.676,79.676,0,0,0,40.562,43.508,44.544,44.544,0,0,0,13.793,2.133,105.042,105.042,0,0,0,43.082-13.246A85.062,85.062,0,0,1,350,525a85.068,85.068,0,0,1,29.75,10.254,78.182,78.182,0,0,0,56.875,11.113,79.692,79.692,0,0,0,40.566-43.523,82.464,82.464,0,0,1,16.9-24.621,83.02,83.02,0,0,1,29.051-8.75,79.347,79.347,0,0,0,53.465-24.938,78.854,78.854,0,0,0,7.172-58.152,84.56,84.56,0,0,1-.629-30.711A81.551,81.551,0,0,1,600.929,332.5Zm-25.391-24.078h0a102.267,102.267,0,0,0-25.758,36.449,105.88,105.88,0,0,0-.789,45.957,60.472,60.472,0,0,1-.77,33.125c-4.359,6-18.848,8.75-31.641,11.129v0a104.648,104.648,0,0,0-43.172,14.785,103.469,103.469,0,0,0-27.055,36.207c-6.281,11.531-13.387,24.586-20.613,26.934-6.648,2.152-19.617-4.023-31.133-9.449A107.185,107.185,0,0,0,350,490a107.166,107.166,0,0,0-44.609,13.613c-11.516,5.441-24.605,11.621-31.113,9.449-7.246-2.344-14.352-15.4-20.633-26.934v0a103.647,103.647,0,0,0-27.07-36.207,104.57,104.57,0,0,0-43.176-14.8c-12.773-2.4-27.266-5.129-31.621-11.113a60.487,60.487,0,0,1-.77-33.129,105.86,105.86,0,0,0-.789-45.953,102.23,102.23,0,0,0-25.758-36.473C115.34,298.847,105,287.945,105,280s10.344-18.848,19.461-28.473a102.281,102.281,0,0,0,25.758-36.453A105.861,105.861,0,0,0,151,169.121a60.487,60.487,0,0,1,.77-33.129c4.359-6,18.848-8.75,31.641-11.129a104.653,104.653,0,0,0,43.172-14.789,103.4,103.4,0,0,0,27.055-36.207c6.281-11.516,13.387-24.586,20.613-26.934h0a10.238,10.238,0,0,1,3.113-.437,84.643,84.643,0,0,1,28,9.891A107.217,107.217,0,0,0,350,70a107.166,107.166,0,0,0,44.609-13.613c11.516-5.426,24.641-11.6,31.113-9.449,7.246,2.344,14.352,15.418,20.633,26.934v0a103.647,103.647,0,0,0,27.07,36.207A104.57,104.57,0,0,0,516.6,124.879c12.773,2.4,27.266,5.129,31.621,11.113a60.487,60.487,0,0,1,.77,33.129,105.86,105.86,0,0,0,.789,45.953,102.231,102.231,0,0,0,25.758,36.473C584.653,261.152,595,272.055,595,280s-10.344,18.848-19.461,28.473Zm-89.25-135.54h0a17.505,17.505,0,0,1-2.937,24.5l-245,192.5a17.5,17.5,0,0,1-21.633-27.512l245-192.5a17.5,17.5,0,0,1,24.535,3.063ZM280,262.5a52.494,52.494,0,1,0-37.125-15.375A52.511,52.511,0,0,0,280,262.5Zm0-70a17.5,17.5,0,1,1-12.375,5.125A17.5,17.5,0,0,1,280,192.5Zm140,105a52.494,52.494,0,1,0,37.125,15.375A52.511,52.511,0,0,0,420,297.5Zm0,70a17.5,17.5,0,1,1,12.375-5.125A17.5,17.5,0,0,1,420,367.5Z" transform="translate(-69.998 -12.275)" fill="#285b4d"/>
</svg>
