<svg xmlns="http://www.w3.org/2000/svg" viewBox="0 0 541.64 486.2"><defs><style>.cls-1{fill:#235c4e;fill-rule:evenodd;}</style></defs><g id="Layer_2" data-name="Layer 2"><g id="Layer_1-2" data-name="Layer 1"><path class="cls-1" d="M541.54,150.67A155.48,155.48,0,0,0,271.13,51.55,155.49,155.49,0,1,0,42.78,262.6h0c.26.22.54.52.81.75,74.63,68.81,147,141.93,215,217.32a17.08,17.08,0,0,0,25.15,0c68-75.38,140.35-148.51,215-217.32.29-.23.56-.53.82-.75A155.48,155.48,0,0,0,541.54,150.67Zm-66.27,88.17C404.64,304,336,373,271.14,444.07,206.25,373,137.64,304,67,238.84A121,121,0,0,1,41.28,114.32h0A121.6,121.6,0,0,1,257,88.52a17,17,0,0,0,28.24,0,121.58,121.58,0,1,1,190,150.32Z"/></g></g></svg>