<svg xmlns="http://www.w3.org/2000/svg" width="515.199" height="448.002" viewBox="0 0 515.199 448.002">
  <path id="Path_49" data-name="Path 49" d="M109.2,56a16.8,16.8,0,0,0,0,33.6h67.023c27.8,68.867,55.191,137.86,82.773,206.85l-25.375,61.074A16.8,16.8,0,0,0,249.2,380.8h280c8.875.125,17.039-7.922,17.039-16.8s-8.164-16.926-17.039-16.8H274.4l14.523-34.648L558.6,291.026a17.278,17.278,0,0,0,15.051-12.949l33.6-145.6c2.2-9.809-6.4-20.508-16.449-20.477H221.372l-18.2-45.5A17.223,17.223,0,0,0,187.6,56Zm125.65,89.6H569.62l-26.074,113.05-255.32,20.3ZM305.2,392a56,56,0,1,0,56,56A56.255,56.255,0,0,0,305.2,392Zm168,0a56,56,0,1,0,56,56,56.255,56.255,0,0,0-56-56Zm-168,33.6A22.4,22.4,0,1,1,282.8,448,22.147,22.147,0,0,1,305.2,425.6Zm168,0A22.4,22.4,0,1,1,450.8,448,22.149,22.149,0,0,1,473.2,425.6Z" transform="translate(-92.399 -56)" fill="#285b4d"/>
</svg>
