<svg xmlns="http://www.w3.org/2000/svg" width="504.129" height="503.997" viewBox="0 0 504.129 503.997">
  <path id="Path_4" data-name="Path 4" d="M184.36,364.8h-9.605c-42.012,0-76.82-33.605-76.82-75.738V103.742C97.935,61.734,132.743,28,174.872,28h186.89c42.129,0,76.938,33.73,76.938,75.738v6.719c53.895,0,85.941,28.688,85.941,84.738,42.609,0,77.422,33.129,77.422,75.738v184.72A76.382,76.382,0,0,1,525.724,532H337.034C295.5,532,261.3,497.79,261.3,455.661v-9c-43.809-3.961-76.938-28.688-76.938-75.258,0,0,0-6.6,0-6.6ZM495.95,195.32v-9c0-26.4-21.844-47.168-47.773-47.168l-187.48,0c-26.4,0-48.25,20.766-48.25,47.168v185.2c0,30.367,20.766,43.809,48.855,46.57V271.052c0-41.531,34.211-75.738,75.738-75.738l158.91,0ZM525.72,223.4H337.03c-25.8,0-47.168,21.363-47.168,47.773v184.72c0,26.4,21.363,47.773,47.168,47.773H525.59a47.745,47.745,0,0,0,47.773-47.773V271.055A47.538,47.538,0,0,0,525.715,223.4ZM410.01,110.572v-6.719c0-26.4-21.844-47.168-48.25-47.168l-186.89,0c-26.4,0-48.25,20.766-48.25,47.168v185.2c0,26.4,21.844,47.168,48.25,47.168h9.605V186.307c0-42.129,34.809-75.738,76.34-75.738h149.2Z" transform="translate(-97.935 -28.004)" fill="#285b4d"/>
</svg>
