<svg width="25" height="24" viewBox="0 0 25 24" fill="none" xmlns="http://www.w3.org/2000/svg">
<path d="M20.5 7H18.3486C17.8511 7 17.5 6.49751 17.5 6C17.5 4.34315 16.1569 3 14.5 3C12.8431 3 11.5 4.34315 11.5 6C11.5 6.49751 11.1488 7 10.6513 7H8.5C7.94771 7 7.5 7.44772 7.5 8V10.1513C7.5 10.6488 6.99751 11 6.5 11C4.84315 11 3.5 12.3431 3.5 14C3.5 15.6569 4.84315 17 6.5 17C6.99751 17 7.5 17.3511 7.5 17.8486V20C7.5 20.5523 7.94771 21 8.5 21L20.5 21C21.0523 21 21.5 20.5523 21.5 20V17.8486C21.5 17.3511 20.9975 17 20.5 17C18.8431 17 17.5 15.6569 17.5 14C17.5 12.3431 18.8431 11 20.5 11C20.9975 11 21.5 10.6488 21.5 10.1513L21.5 8C21.5 7.44772 21.0523 7 20.5 7Z" stroke="#2D2D2D" stroke-width="1.5" stroke-linecap="round" stroke-linejoin="round"/>
</svg>
