<svg xmlns="http://www.w3.org/2000/svg" width="383.666" height="490.63" viewBox="0 0 383.666 490.63">
  <path id="noun-review-3267232" d="M166.88,34.684a8.751,8.751,0,0,0-8.715,8.785v473.06a8.751,8.751,0,0,0,8.715,8.785H533.05a8.749,8.749,0,0,0,8.781-8.785V43.469a8.749,8.749,0,0,0-8.781-8.785ZM183.888,62.1h331.8V496.751h-331.8Zm165.977,38.846a8.755,8.755,0,0,0-8,5.5l-15.637,38.879-41.852,2.836A8.751,8.751,0,0,0,279.4,163.61l32.164,26.867-10.273,40.688a8.75,8.75,0,0,0,13.176,9.555L350,218.435l35.512,22.285a8.75,8.75,0,0,0,13.125-9.555l-10.2-40.688L420.6,163.61a8.751,8.751,0,0,0-5.039-15.449l-41.855-2.836-15.637-38.879a8.753,8.753,0,0,0-8.2-5.5Zm.137,32.18,9.555,23.824a8.754,8.754,0,0,0,7.5,5.5l25.566,1.672L372.986,180.6a8.746,8.746,0,0,0-2.9,8.836l6.27,24.812-21.7-13.57a8.755,8.755,0,0,0-9.3,0L323.58,214.3l6.273-24.863A8.751,8.751,0,0,0,327,180.6l-19.7-16.477,25.582-1.672a8.757,8.757,0,0,0,7.555-5.5Zm-100.57,179.5a8.752,8.752,0,0,0,0,17.5h201.08a8.752,8.752,0,1,0,0-17.5Zm202.04,72.512a8.71,8.71,0,0,0-.957.016H249.435c-.277-.012-.559-.012-.836,0a8.751,8.751,0,0,0,.836,17.449h201.08a8.751,8.751,0,1,0,.957-17.465Z" transform="translate(-158.165 -34.684)" fill="#5f806a"/>
</svg>
