<svg id="Слой_2" data-name="Слой 2" xmlns="http://www.w3.org/2000/svg" width="51.28" height="145.768" viewBox="0 0 51.28 145.768">
  <g id="Слой_1" data-name="Слой 1">
    <path id="Контур_127" data-name="Контур 127" d="M13.74,81.11a.31.31,0,0,0-.29-.22H8.89L7.48,76.57a.32.32,0,0,0-.29-.22.3.3,0,0,0-.3.22l-1.4,4.32H.92a.31.31,0,0,0-.17.57l3.68,2.67L3,88.45a.29.29,0,0,0,.11.35.32.32,0,0,0,.37,0l3.68-2.65,3.67,2.67a.33.33,0,0,0,.38,0,.3.3,0,0,0,.12-.35L10,84.15l3.68-2.68a.34.34,0,0,0,.06-.36Z"/>
    <path id="Контур_128" data-name="Контур 128" d="M31.81,81.11a.33.33,0,0,0-.3-.22H27l-1.42-4.32a.31.31,0,0,0-.29-.22.3.3,0,0,0-.29.22l-1.4,4.32H19a.318.318,0,0,0-.18.57l3.68,2.67-1.4,4.32a.31.31,0,0,0,.48.35l3.68-2.65,3.68,2.67a.33.33,0,0,0,.19.06.35.35,0,0,0,.19-.06.3.3,0,0,0,.12-.35L28,84.15l3.68-2.68a.33.33,0,0,0,.13-.36Z" fill="#a5a3a3"/>
    <path id="Контур_129" data-name="Контур 129" d="M12.83,106.59H10.31l-1-2.8H4.67l-.95,2.8H1.24l4.5-12.36H8.21ZM8.54,101.7,7,97.12,5.39,101.7Z"/>
    <path id="Контур_130" data-name="Контур 130" d="M31.05,106.59H28.52l-1-2.8H22.89l-1,2.8H19.46L24,94.23h2.47Zm-4.29-4.89-1.6-4.58L23.6,101.7Z" fill="#a5a3a3"/>
    <path id="Контур_131" data-name="Контур 131" d="M8.81,120.62a3.91,3.91,0,1,0,0-7.81H5.45a.85.85,0,0,0-.84.84v5.28H3.42a.85.85,0,0,0,0,1.69H4.61V122H3.42a.84.84,0,1,0,0,1.68H4.61v1.55a.84.84,0,0,0,1.68,0v-1.55h3a.84.84,0,1,0,0-1.68h-3v-1.41ZM6.3,114.5H8.82a2.21,2.21,0,0,1,0,4.42H6.3Z"/>
    <path id="Контур_132" data-name="Контур 132" d="M26.34,120.62a3.91,3.91,0,1,0,0-7.81H23a.85.85,0,0,0-.84.84v5.28H21a.85.85,0,0,0,0,1.69h1.19V122H21a.84.84,0,1,0,0,1.68h1.19v1.55a.84.84,0,1,0,1.68,0v-1.55h3a.84.84,0,0,0,0-1.68h-3v-1.41Zm-2.51-6.12h2.53a2.21,2.21,0,0,1,0,4.42H23.83Z" fill="#a5a3a3"/>
    <path id="Контур_133" data-name="Контур 133" d="M7,72a.54.54,0,0,0,.32.47l1.09.43a.21.21,0,0,0,.32-.21V67.44a1.15,1.15,0,0,1,.21-.62l3.55-4.56c.12-.16.06-.28-.13-.28h-9c-.19,0-.25.12-.13.28l3.55,4.56a1.24,1.24,0,0,1,.21.62ZM6,67.45,2.4,62.89a1.18,1.18,0,0,1,1-2h9a1.18,1.18,0,0,1,.95,2S9.8,67.45,9.8,67.44V72.7A1.25,1.25,0,0,1,8,73.88l-1.09-.44a1.58,1.58,0,0,1-1-1.43S5.94,67.44,6,67.45Z"/>
    <path id="Контур_134" data-name="Контур 134" d="M24.39,72a.54.54,0,0,0,.32.47l1.08.43a.21.21,0,0,0,.32-.21V67.44a1.16,1.16,0,0,1,.22-.62l3.55-4.56c.12-.16.06-.28-.13-.28h-9c-.19,0-.24.12-.13.28l3.55,4.56a1.16,1.16,0,0,1,.22.62Zm-1-4.56-3.54-4.56a1.18,1.18,0,0,1,.94-2h9a1.18,1.18,0,0,1,.94,2s-3.54,4.56-3.54,4.55V72.7a1.25,1.25,0,0,1-1.74,1.18l-1.09-.44a1.58,1.58,0,0,1-1-1.43Z" fill="#a5a3a3"/>
    <path id="Контур_135" data-name="Контур 135" d="M2.27,5.45.6,3.78,0,4.39,2.68,7.08l.61-.61h0l2.1-2.1-.61-.6L3.11,5.43V0H2.27Z" fill-rule="evenodd"/>
    <path id="Контур_136" data-name="Контур 136" d="M16.41,5.45,14.74,3.78l-.6.61,2.68,2.69.61-.61h0l2.1-2.1-.61-.6L17.25,5.43V0h-.84Z" fill="#a5a3a3" fill-rule="evenodd"/>
    <path id="Контур_137" data-name="Контур 137" d="M31.37,7.08h.84V1.64l1.67,1.67.6-.6L32.39.61h0L31.78,0,29.1,2.69l.6.6,1.67-1.67Z" fill-rule="evenodd"/>
    <path id="Контур_138" data-name="Контур 138" d="M48.2,7.08H49V1.64l1.67,1.67.61-.6L49.22.61h0L48.62,0,45.93,2.69l.61.6L48.2,1.62Z" fill="#a5a3a3" fill-rule="evenodd"/>
    <rect id="Прямоугольник_40" data-name="Прямоугольник 40" width="2.88" height="2.88" transform="translate(0.27 22.04)"/>
    <rect id="Прямоугольник_41" data-name="Прямоугольник 41" width="2.88" height="2.88" transform="translate(5.27 22.04)"/>
    <rect id="Прямоугольник_42" data-name="Прямоугольник 42" width="2.88" height="2.88" transform="translate(10.31 22.04)"/>
    <rect id="Прямоугольник_43" data-name="Прямоугольник 43" width="2.88" height="2.88" transform="translate(0.27 27.01)"/>
    <rect id="Прямоугольник_44" data-name="Прямоугольник 44" width="2.88" height="2.88" transform="translate(5.27 27.01)"/>
    <rect id="Прямоугольник_45" data-name="Прямоугольник 45" width="2.88" height="2.88" transform="translate(10.31 27.01)"/>
    <rect id="Прямоугольник_46" data-name="Прямоугольник 46" width="2.88" height="2.88" transform="translate(0.27 31.98)"/>
    <rect id="Прямоугольник_47" data-name="Прямоугольник 47" width="2.88" height="2.88" transform="translate(5.27 31.98)"/>
    <rect id="Прямоугольник_48" data-name="Прямоугольник 48" width="2.88" height="2.88" transform="translate(10.31 31.98)"/>
    <rect id="Прямоугольник_49" data-name="Прямоугольник 49" width="2.88" height="2.88" transform="translate(0.27 39.98)" fill="#a5a3a3"/>
    <rect id="Прямоугольник_50" data-name="Прямоугольник 50" width="2.88" height="2.88" transform="translate(5.27 39.98)" fill="#a5a3a3"/>
    <rect id="Прямоугольник_51" data-name="Прямоугольник 51" width="2.88" height="2.88" transform="translate(10.31 39.98)" fill="#a5a3a3"/>
    <rect id="Прямоугольник_52" data-name="Прямоугольник 52" width="2.88" height="2.88" transform="translate(0.27 44.94)" fill="#a5a3a3"/>
    <rect id="Прямоугольник_53" data-name="Прямоугольник 53" width="2.88" height="2.88" transform="translate(5.27 44.94)" fill="#a5a3a3"/>
    <rect id="Прямоугольник_54" data-name="Прямоугольник 54" width="2.88" height="2.88" transform="translate(10.31 44.94)" fill="#a5a3a3"/>
    <rect id="Прямоугольник_55" data-name="Прямоугольник 55" width="2.88" height="2.88" transform="translate(0.27 49.91)" fill="#a5a3a3"/>
    <rect id="Прямоугольник_56" data-name="Прямоугольник 56" width="2.88" height="2.88" transform="translate(5.27 49.91)" fill="#a5a3a3"/>
    <rect id="Прямоугольник_57" data-name="Прямоугольник 57" width="2.88" height="2.88" transform="translate(10.31 49.91)" fill="#a5a3a3"/>
    <rect id="Прямоугольник_58" data-name="Прямоугольник 58" width="2.88" height="2.88" transform="translate(18.34 22.04)"/>
    <rect id="Прямоугольник_59" data-name="Прямоугольник 59" width="2.88" height="2.88" transform="translate(18.34 27.01)"/>
    <rect id="Прямоугольник_60" data-name="Прямоугольник 60" width="2.88" height="2.88" transform="translate(18.34 31.98)"/>
    <rect id="Прямоугольник_61" data-name="Прямоугольник 61" width="2.88" height="2.88" transform="translate(18.34 39.98)" fill="#a5a3a3"/>
    <rect id="Прямоугольник_62" data-name="Прямоугольник 62" width="2.88" height="2.88" transform="translate(18.34 44.94)" fill="#a5a3a3"/>
    <rect id="Прямоугольник_63" data-name="Прямоугольник 63" width="2.88" height="2.88" transform="translate(18.34 49.91)" fill="#a5a3a3"/>
    <rect id="Прямоугольник_64" data-name="Прямоугольник 64" width="7.95" height="2.88" transform="translate(23.24 22.04)"/>
    <rect id="Прямоугольник_65" data-name="Прямоугольник 65" width="7.95" height="2.88" transform="translate(23.24 27.01)"/>
    <rect id="Прямоугольник_66" data-name="Прямоугольник 66" width="7.95" height="2.88" transform="translate(23.24 31.98)"/>
    <rect id="Прямоугольник_67" data-name="Прямоугольник 67" width="12.95" height="0.88" transform="translate(36.25 22.04)"/>
    <path id="Контур_139" data-name="Контур 139" d="M36.25,24.04H49.2v.88H36.25" fill-rule="evenodd"/>
    <rect id="Прямоугольник_68" data-name="Прямоугольник 68" width="12.95" height="0.88" transform="translate(36.25 26.04)"/>
    <path id="Контур_140" data-name="Контур 140" d="M36.25,28.04H49.2v.88H36.25" fill-rule="evenodd"/>
    <rect id="Прямоугольник_69" data-name="Прямоугольник 69" width="12.95" height="0.88" transform="translate(36.25 30.04)"/>
    <path id="Контур_141" data-name="Контур 141" d="M36.25,32.04H49.2v.88H36.25" fill-rule="evenodd"/>
    <path id="Контур_142" data-name="Контур 142" d="M36.25,33.98H49.2v.88H36.25" fill-rule="evenodd"/>
    <rect id="Прямоугольник_70" data-name="Прямоугольник 70" width="12.95" height="0.88" transform="translate(36.25 39.98)" fill="#a5a3a3"/>
    <path id="Контур_143" data-name="Контур 143" d="M36.25,41.98H49.2v.88H36.25" fill="#a5a3a3" fill-rule="evenodd"/>
    <rect id="Прямоугольник_71" data-name="Прямоугольник 71" width="12.95" height="0.88" transform="translate(36.25 43.98)" fill="#a5a3a3"/>
    <path id="Контур_144" data-name="Контур 144" d="M36.25,45.98H49.2v.88H36.25" fill="#a5a3a3" fill-rule="evenodd"/>
    <rect id="Прямоугольник_72" data-name="Прямоугольник 72" width="12.95" height="0.88" transform="translate(36.25 47.98)" fill="#a5a3a3"/>
    <path id="Контур_145" data-name="Контур 145" d="M36.25,49.98H49.2v.88H36.25" fill="#a5a3a3" fill-rule="evenodd"/>
    <path id="Контур_146" data-name="Контур 146" d="M36.25,51.91H49.2v.88H36.25" fill="#a5a3a3" fill-rule="evenodd"/>
    <rect id="Прямоугольник_73" data-name="Прямоугольник 73" width="7.95" height="2.88" transform="translate(23.24 40.01)" fill="#a5a3a3"/>
    <rect id="Прямоугольник_74" data-name="Прямоугольник 74" width="7.95" height="2.88" transform="translate(23.24 44.98)" fill="#a5a3a3"/>
    <rect id="Прямоугольник_75" data-name="Прямоугольник 75" width="7.95" height="2.88" transform="translate(23.24 49.94)" fill="#a5a3a3"/>
    <path id="Контур_147" data-name="Контур 147" d="M1.45,138.49a.62.62,0,0,1,1,0l4.36,5.38,8.31-10.2a.61.61,0,0,1,1,0,1,1,0,0,1,0,1.25L7.58,145.4a1,1,0,0,1-1.55,0l-4.58-5.66a1,1,0,0,1,0-1.25Z" fill-rule="evenodd"/>
    <path id="Контур_148" data-name="Контур 148" d="M20.66,138.49a.62.62,0,0,1,1,0L26,143.88l8.31-10.2a.61.61,0,0,1,1,0,1,1,0,0,1,0,1.25L26.79,145.4a1,1,0,0,1-1.55,0l-4.58-5.66a1,1,0,0,1,0-1.25Z" fill="#a5a3a3" fill-rule="evenodd"/>
  </g>
</svg>
