<svg width="25" height="24" viewBox="0 0 25 24" fill="none" xmlns="http://www.w3.org/2000/svg">
<path d="M5.24693 7.64356L4.91571 11.287C4.86665 11.8266 4.84192 12.0987 4.88682 12.3569C4.92695 12.5877 5.00708 12.8097 5.12398 13.0127C5.25532 13.2407 5.44945 13.4348 5.83549 13.8209L11.011 18.9964C11.798 19.7834 12.1918 20.1772 12.647 20.3251C13.0487 20.4556 13.4821 20.4559 13.8837 20.3254C14.3404 20.177 14.7372 19.7806 15.5293 18.9886L19.4891 15.0288C20.2811 14.2368 20.6765 13.8409 20.8248 13.3843C20.9553 12.9826 20.9546 12.5497 20.824 12.148C20.6757 11.6913 20.2809 11.2956 19.4889 10.5036L14.3261 5.34082C13.9366 4.95126 13.7417 4.75645 13.5127 4.62451C13.3097 4.50761 13.0876 4.42714 12.8569 4.38702C12.5965 4.34173 12.322 4.36663 11.7733 4.41651L8.14351 4.74649C7.19875 4.83238 6.72608 4.87551 6.3564 5.08108C6.03048 5.26232 5.76179 5.53101 5.58055 5.85694C5.376 6.22476 5.33334 6.69409 5.24831 7.62945L5.24693 7.64356Z" stroke="#2D2D2D" stroke-width="1.5" stroke-linecap="round" stroke-linejoin="round"/>
<path d="M10.2116 9.7115C10.6021 9.32098 10.6021 8.68781 10.2116 8.29729C9.82109 7.90677 9.18747 7.90677 8.79695 8.29729C8.40642 8.68781 8.40605 9.32083 8.79657 9.71135C9.1871 10.1019 9.82109 10.102 10.2116 9.7115Z" stroke="#2D2D2D" stroke-width="1.5" stroke-linecap="round" stroke-linejoin="round"/>
</svg>
