<svg width="50" height="44" viewBox="0 0 50 44" fill="none" xmlns="http://www.w3.org/2000/svg">
<path fill-rule="evenodd" clip-rule="evenodd" d="M49.076 18.5344L48.4389 20.5818C48.1011 21.6434 46.9923 23.3905 44.9288 23.5675C45.1546 24.5239 45.6576 25.5983 46.7682 26.0609L48.3673 26.7207L47.5044 28.2282C47.3098 28.5489 46.3056 30.0287 44.211 30.0287C43.853 30.0287 43.506 29.9919 43.1737 29.9218C43.0892 30.296 42.9846 30.6719 42.8598 31.0461C42.3696 32.5111 42.7918 33.5303 42.8101 33.5727L43.5812 35.2019L41.8115 35.6718L41.8097 35.6723C41.7723 35.6821 41.2439 35.8211 40.6036 35.8211C40.3006 35.8211 40.0123 35.7897 39.7425 35.7252C39.5369 35.6774 39.3386 35.6129 39.1496 35.5354C38.9201 35.9464 38.6428 36.3206 38.3215 36.6541C37.1943 37.8188 35.5935 38.4086 33.5648 38.4086L32.1126 38.3902L35.0922 39.6378L32.8654 40.7233C32.0759 41.1102 31.0626 41.6061 30.0382 41.982L30.3245 42.7616L29.5407 43.1209C29.4709 43.1541 27.9784 43.8231 25.4944 43.9706C25.4944 43.9706 24.8978 44 24.5656 44C24.2333 44 23.6293 43.9724 23.6293 43.9724C21.1335 43.8289 19.631 43.1548 19.5559 43.1211L19.5555 43.1209L18.7734 42.7634L19.0562 41.9857C18.0611 41.6207 17.0826 41.1435 16.2584 40.7399L13.9891 39.6396L16.978 38.3938L15.5313 38.4122H15.524C13.4972 38.4122 11.8982 37.8225 10.7691 36.6596C10.446 36.3242 10.1688 35.9501 9.94117 35.5391C9.75209 35.6165 9.55557 35.681 9.35005 35.729C9.07831 35.7935 8.79013 35.8247 8.48719 35.8247C7.82072 35.8247 7.28839 35.6792 7.26632 35.6718L5.50388 35.2055L6.29332 33.5451C6.29884 33.5339 6.72103 32.513 6.23093 31.0497C6.10603 30.6775 5.99961 30.3016 5.91515 29.9256C5.58474 29.9955 5.24137 30.0306 4.88516 30.0324C3.2403 30.0324 2.08553 29.0704 1.59351 28.2484L0.721532 26.7244L2.32057 26.0627C3.42938 25.6002 3.93424 24.5276 4.16195 23.5693C2.06898 23.3813 0.97672 21.6342 0.649906 20.58L0 18.5344L2.14792 18.6044C2.30401 18.6025 3.5983 18.5657 4.85037 17.6516C4.82854 17.6537 4.80681 17.656 4.78511 17.6583L4.78503 17.6583H4.78501H4.78498H4.78495H4.78492H4.7849H4.78487H4.78484H4.78481L4.78479 17.6583L4.78471 17.6583H4.78468L4.78466 17.6583L4.78458 17.6583H4.78455L4.78452 17.6583L4.78434 17.6584C4.71138 17.6661 4.63879 17.6738 4.56399 17.6738C3.27329 17.6738 2.02135 16.8942 1.52009 15.7756L0.618713 13.7575C1.95152 13.7815 2.81259 13.6267 2.81259 13.6267C2.8123 13.6267 2.81323 13.6265 2.81534 13.6262C2.868 13.6171 3.65665 13.4808 4.56399 12.5504C5.24509 11.8538 6.08588 11.4852 6.99649 11.4852C7.39481 11.4852 7.75102 11.5571 8.05575 11.6548C8.00801 11.4907 7.96397 11.3249 7.93638 11.1553C7.67207 9.45247 8.64316 8.09782 8.83968 7.84173L10.4496 5.85866L11.4337 8.1863C11.4337 8.1863 11.6797 8.72079 12.1203 8.98245C12.2561 8.30241 12.5848 7.53582 13.2897 6.80595C14.6116 5.42925 16.2253 5.22285 17.0698 5.22285C17.4627 5.22285 17.7398 5.26527 17.8316 5.28005L17.8941 5.29108L19.7189 5.65226C19.6106 5.22285 19.3756 4.47832 18.9459 3.80566L17.8886 2.15444L20.5432 2.45853L21.3877 0.654235L23.0307 1.50203L24.5417 0L26.0563 1.50203L27.6938 0.654235L28.5401 2.45853L31.1966 2.15444L30.141 3.80566C29.7115 4.47832 29.4764 5.22479 29.3663 5.65408L31.2792 5.2763C31.3472 5.26527 31.6263 5.22285 32.0173 5.22285C32.8618 5.22285 34.4754 5.42743 35.8009 6.80595C36.5041 7.53764 36.8327 8.30241 36.9667 8.98245C37.3995 8.72388 37.6458 8.20304 37.6617 8.1695L37.6625 8.16787L38.6447 5.85321L40.229 7.8233C40.229 7.82136 41.4406 9.26255 41.1506 11.1516C41.1249 11.3229 41.079 11.4889 41.0313 11.6528C41.3378 11.5552 41.694 11.4833 42.0923 11.4833C43.0029 11.4833 43.8437 11.852 44.523 12.5485C45.4468 13.4956 46.2484 13.619 46.2961 13.6263L46.2983 13.6267C46.2983 13.6267 47.3374 13.7704 48.4738 13.7557L47.5669 15.7736C47.0657 16.8905 45.8155 17.6718 44.523 17.6718C44.4483 17.6718 44.3748 17.664 44.3015 17.6562L44.3015 17.6562C44.2811 17.654 44.2607 17.6518 44.2404 17.6498C45.496 18.5639 46.7903 18.6007 46.9684 18.6007L49.076 18.5344ZM19.8364 6.3637L19.8585 6.35812L19.8547 6.3397L19.8364 6.3637Z" fill="white"/>
<path fill-rule="evenodd" clip-rule="evenodd" d="M28.5906 26.6012H17.2652V20.0348C17.2652 19.399 17.0798 18.7594 16.8613 18.1698H21.965C22.4497 18.6527 22.9251 18.9548 23.3767 19.1207C23.3199 19.3548 23.2427 19.8358 23.4594 20.3167C23.6374 20.7057 23.9587 21.0042 24.4251 21.2032C24.4764 21.6824 24.7794 22.4048 25.6128 22.7218C25.2475 23.0922 24.8913 23.4423 24.7482 23.5824L21.3591 23.529C21.2821 23.4922 21.1517 23.4037 21.093 23.282C21.089 23.2722 21.084 23.2649 21.0792 23.2578C21.0749 23.2516 21.0707 23.2455 21.0672 23.2378L21.6198 23.3282C21.6308 23.33 21.6437 23.33 21.6547 23.33C21.7631 23.33 21.8548 23.2544 21.8732 23.1456C21.8915 23.0221 21.8089 22.9098 21.6896 22.8914L21.0103 22.7845L21.7648 20.1675L21.0508 18.6581L19.9051 19.8745L19.8354 22.5947L19.0661 22.473C18.9469 22.449 18.833 22.5356 18.8128 22.6573C18.7945 22.7771 18.8752 22.8896 18.9964 22.9116L19.3195 22.9614C19.2057 23.0277 19.1286 23.0793 19.1194 23.0867L19.0552 23.1328L19.0368 23.2139C18.8496 23.9768 19.2718 24.7011 19.7308 25.0254L19.7142 25.1213C19.6941 25.2392 19.7215 25.3535 19.7914 25.4493C19.8593 25.547 19.9602 25.606 20.0758 25.6262C20.0997 25.6318 20.1255 25.6336 20.1475 25.6336C20.3458 25.6336 20.5183 25.4955 20.5661 25.2945C20.7368 25.3148 20.8929 25.3185 20.9993 25.3185H21.0893L25.5339 26.1257L25.6091 26.0741C25.9616 25.8272 27.3128 24.8393 27.7552 24.5113C27.8764 24.6145 28.0122 24.7103 28.1775 24.7896C28.0325 25.2725 28.0252 26.0152 28.5906 26.6012ZM17.2653 27.0435H31.8291L31.8273 32.5448C31.8273 34.3655 30.7606 35.639 29.0809 36.0536L29.3617 34.583C29.3783 34.4964 29.3948 34.395 29.4077 34.3103C29.4884 34.3434 29.5711 34.3711 29.6629 34.3876C29.7675 34.408 29.8648 34.4172 29.9528 34.4172C30.3825 34.4172 30.6321 34.1904 30.7991 33.997L31.0158 33.7445L30.8396 33.4681C30.8383 33.4661 30.835 33.4609 30.8298 33.4526C30.7651 33.3506 30.4097 32.7895 30.1328 32.3973C30.074 32.3144 30.0171 32.2295 29.9603 32.1412L29.957 32.1363C29.616 31.6247 29.1901 30.9857 28.3354 30.9857L28.2584 30.9875C28.1189 30.9967 27.9977 31.0243 27.8986 31.0612C27.6305 30.9358 27.3515 30.8695 27.0632 30.8695C26.7089 30.8695 26.4097 30.9672 26.2114 31.0353C26.1934 31.0406 26.1759 31.046 26.1592 31.0513C26.1231 31.0625 26.0903 31.0727 26.0628 31.0778L24.4618 30.9192C24.4416 30.9156 24.3755 30.8768 24.2966 30.7829V30.7737L24.6436 30.6336C24.5463 29.4744 23.4392 28.7612 22.8207 28.5197C22.7931 28.4036 22.738 28.2875 22.6407 28.1936L22.2973 27.8655L21.9945 28.2286L21.8457 28.4147L19.6023 27.4895L21.0618 29.3289L20.4855 30.2042C20.2743 30.429 20.5074 30.6539 20.5074 30.6539L21.1022 31.0667L21.719 30.8363C21.7312 30.8363 21.7433 30.8383 21.7553 30.8403C21.7634 30.8417 21.7715 30.843 21.7796 30.8437C21.7621 30.8964 21.7424 31.0352 21.7238 31.1653C21.7093 31.2674 21.6955 31.3641 21.6842 31.4095L20.6139 31.1975L19.4886 31.8351C18.9103 32.2609 18.8313 32.9668 19.0461 33.4496L19.1709 33.7242L19.349 34.1113L19.7438 33.9472C19.7492 33.9472 19.7547 33.9453 19.7584 33.9417C19.6171 34.395 19.6757 34.8282 19.9273 35.1101L20.166 35.4105L20.4835 35.8141L20.8324 35.4382C20.9333 35.3349 21.2675 34.9608 21.3703 34.6402L21.4455 34.395L21.2748 34.207L21.2455 34.1739L21.4364 33.8569L22.8335 34.1868L23.1473 34.2586L23.3145 33.9822L23.4063 33.8311C23.4228 33.7998 23.4282 33.7942 23.4925 33.7942C23.5421 33.7942 23.5916 33.798 23.6449 33.8108C24.1718 33.9103 24.6583 33.9601 25.0898 33.9601C25.5101 33.9601 25.7598 33.9435 26.0572 33.844C26.0572 33.844 26.808 34.7009 26.8337 34.7323L26.3748 36.1569L26.3547 36.2416C25.4845 36.3135 25.0604 36.5052 24.5482 37.0175C23.8046 36.2766 23.2778 36.1993 21.2785 36.1993C18.8864 36.1993 17.2653 34.7912 17.2653 32.5428V27.0435Z" fill="#FFDD2D"/>
<path fill-rule="evenodd" clip-rule="evenodd" d="M28.3752 5.84991C27.6206 5.24355 26.2548 4.67585 24.5475 4.67585C22.842 4.67585 21.4798 5.24355 20.7234 5.84991C20.7234 5.84991 20.4994 4.49527 19.7338 3.29927L21.109 3.45586L21.8268 1.92075L23.2109 2.63582L24.5475 1.30518L25.8876 2.63582L27.2701 1.92075L27.9897 3.45586L29.3647 3.29927C28.5992 4.49527 28.3752 5.84991 28.3752 5.84991ZM21.4283 4.03459L21.0465 3.99399L20.6811 3.94975C20.8483 4.32571 20.9694 4.68506 21.0593 4.98188C22.025 4.44376 23.2752 4.13773 24.5457 4.13773C25.8215 4.13773 27.0735 4.44376 28.0355 4.98188C28.1237 4.68506 28.2467 4.32765 28.4138 3.94975L28.0503 3.99399L27.6684 4.03459L27.5069 3.68626L27.0204 2.65425L26.1337 3.11674L25.7885 3.29369L25.5131 3.021L24.5493 2.06267L23.5873 3.021L23.312 3.29369L22.9668 3.11674L22.0745 2.65425L21.5935 3.68626L21.4283 4.03459ZM21.9316 29.4246C21.8491 29.4172 21.7793 29.4817 21.7737 29.5628C21.7682 29.6475 21.8307 29.7194 21.9151 29.7212C21.9958 29.7286 22.0674 29.6659 22.0748 29.583C22.0748 29.5019 22.0161 29.4264 21.9316 29.4246ZM31.8099 39.3966L30.9709 39.0741L31.2022 38.2042L31.4574 37.2551C31.4574 37.2551 29.9703 38.0643 27.8756 38.6723C27.2808 38.8438 26.831 38.9211 26.831 38.9211V39.5662C26.831 39.5662 25.7112 39.7615 24.5785 39.7615H24.5656H24.5491H24.527H24.5142C23.3815 39.7615 22.2616 39.5662 22.2616 39.5662V38.9211C22.2616 38.9211 21.8099 38.8438 21.217 38.6723C19.1222 38.0643 17.6371 37.2551 17.6371 37.2551L17.8886 38.2042L18.1255 39.0741L17.2846 39.3966L16.352 39.7468C16.4629 39.8004 16.5783 39.8566 16.6974 39.9147C17.728 40.4171 19.0445 41.0589 20.2606 41.3925L19.9411 42.2698C19.9411 42.2698 21.6613 43.0567 24.527 43.0641V43.0659H24.5363H24.5491H24.5601H24.5674V43.0641C27.4369 43.0567 29.1552 42.2698 29.1552 42.2698L28.8339 41.3925C30.067 41.0542 31.4064 40.3991 32.4397 39.8937L32.4398 39.8936L32.4408 39.8931C32.544 39.8427 32.644 39.7937 32.7407 39.7468L31.8099 39.3966ZM17.3471 39.8058L18.7276 39.3451L18.3201 38.0089C18.9276 38.3554 20.2918 38.8751 21.0812 39.1165L20.4147 40.9539C19.1958 40.6167 18.1805 40.2242 17.3471 39.8058ZM24.5491 42.6033C22.9463 42.6033 21.116 42.2329 20.5781 42.0413L21.397 39.8168C22.0762 40.0158 23.4898 40.2278 24.516 40.2204H24.5179H24.5491H24.5766H24.5803C25.6066 40.2278 27.0165 40.0158 27.6994 39.8168L28.5163 42.0413C27.9785 42.2347 26.1499 42.6033 24.5491 42.6033ZM28.6797 40.9539L28.0152 39.1165C28.8064 38.8751 30.1668 38.3554 30.7763 38.0089L30.3705 39.3451L31.7493 39.8058C30.9139 40.2242 29.9042 40.6167 28.6797 40.9539ZM44.5782 22.6499C46.7868 22.6499 47.5248 20.3942 47.556 20.2984L47.8021 19.504L46.974 19.5298H46.9704C46.6785 19.5298 44.2423 19.4654 42.5148 17.2612L42.3513 17.0566L42.3457 17.0495C41.2188 15.6109 40.1489 14.2451 38.2391 13.6214C38.2941 13.5717 38.3731 13.509 38.4814 13.439C39.4967 12.7681 40.0878 11.9535 40.2365 11.0082C40.4531 9.58543 39.5499 8.45197 39.5095 8.40592L38.8945 7.64296L38.5108 8.54784L38.5105 8.54849C38.4806 8.61502 37.8341 10.0535 36.4804 10.0535H36.3793C36.3509 10.0518 36.3231 10.0503 36.2955 10.0488L36.2952 10.0488C36.2321 10.0454 36.1708 10.042 36.1095 10.0369C36.1573 9.39005 36.0397 8.38931 35.1365 7.45123C34.0516 6.32153 32.7186 6.15197 32.0211 6.15197C31.6785 6.15197 31.4415 6.19086 31.3854 6.20008L31.3851 6.20012L31.3806 6.20086C31.3781 6.20127 31.3761 6.20159 31.3748 6.20178L30.4459 6.38601L31.0187 7.1435C31.4685 7.72768 31.8761 8.80587 31.3932 9.36981C31.247 9.53925 30.9541 9.67885 30.6645 9.8169L30.6167 9.8397C29.9906 10.129 29.1369 10.5308 29.1369 11.5555C29.1369 12.219 29.6492 12.9119 30.578 13.5016C33.3282 15.2377 35.0246 17.0493 35.757 19.0488C36.8897 22.1247 35.4118 23.8792 33.9762 24.8025L33.3318 25.2189L33.8955 25.7386L33.8956 25.7388C33.9715 25.8058 34.6617 26.4151 35.6799 26.5035C35.8727 26.5164 36.058 26.5274 36.2307 26.5274C36.8842 26.5274 37.4405 26.4243 37.8921 26.286C37.7673 26.5054 37.6148 26.7284 37.4222 26.9532C36.6015 27.9078 35.5918 28.3427 34.1396 28.3649L33.5999 28.3741L33.5576 28.9177C33.5521 29.0264 33.5118 30.0346 34.4627 30.8916C34.6078 31.0242 34.784 31.133 34.9676 31.2233C34.3232 31.8056 33.6678 32.8192 33.5412 34.5571C33.4347 36.0075 33.0895 36.5438 33.0859 36.5493L32.4892 37.4634L33.5669 37.4781C35.3477 37.4781 36.7117 36.9843 37.6571 36.0075C38.2152 35.4288 38.5347 34.7764 38.7238 34.1978C39.034 34.4631 39.4343 34.6953 39.9556 34.8188C40.1539 34.8648 40.3706 34.8907 40.6037 34.8907C41.0805 34.8907 41.4831 34.7946 41.5644 34.7752C41.5689 34.7741 41.5724 34.7733 41.5749 34.7727L42.2633 34.5884L41.9585 33.9434L41.9576 33.9412C41.924 33.8634 41.3687 32.5778 41.9805 30.7515C42.2467 29.9535 42.3825 29.2384 42.4487 28.6819C42.882 28.9085 43.4621 29.0965 44.2129 29.0983C45.8687 29.0983 46.6245 27.8921 46.6977 27.7751C46.6999 27.7717 46.7014 27.7693 46.7024 27.7678L47.0383 27.1816L46.416 26.9237C44.3855 26.0778 43.9357 23.8054 43.8458 22.5744C44.0293 22.6094 44.2387 22.6426 44.4755 22.6499H44.5782ZM46.1883 27.4673C46.1883 27.4673 45.5934 28.5049 44.2295 28.5049H44.2129C42.5753 28.4957 41.9144 27.4931 41.9144 27.4931C41.9144 27.4931 42.0099 28.798 41.4188 30.5579C40.7083 32.6791 41.4243 34.1959 41.4243 34.1959C41.4243 34.1959 41.0424 34.2991 40.6019 34.2991C40.4329 34.2991 40.2567 34.2825 40.0915 34.2382C38.7238 33.9121 38.3823 32.6625 38.3823 32.6625C38.3823 32.6625 38.5089 36.8848 33.6054 36.8848H33.5669C33.5669 36.8848 33.9983 36.295 34.1268 34.5976C34.3599 31.4647 36.473 31.0353 36.473 31.0353C36.473 31.0353 35.3457 30.8934 34.8574 30.4529C34.0937 29.7581 34.1469 28.9546 34.1469 28.9546C35.8727 28.9307 37.0018 28.3409 37.8627 27.3402C38.7954 26.2565 38.9496 25.09 38.9496 25.09C38.9496 25.09 38.0224 25.934 36.2289 25.934C36.071 25.934 35.9021 25.9266 35.7294 25.91C34.8813 25.8419 34.2938 25.3 34.2938 25.3C36.1609 24.0985 37.4717 22.0012 36.3096 18.8424C35.3789 16.3121 33.1428 14.4213 30.892 12.9967C30.143 12.5267 29.7262 12.0052 29.7262 11.5555C29.7262 10.9075 30.2884 10.644 30.8653 10.3736C31.2302 10.2025 31.6011 10.0287 31.8393 9.75305C32.5479 8.92744 32.1036 7.5877 31.4886 6.78233C31.4886 6.78233 31.6961 6.73991 32.0229 6.73991C32.671 6.73991 33.7927 6.90389 34.7142 7.86221C35.9388 9.13384 35.4302 10.5179 35.4302 10.5179L35.7588 10.5824C35.9473 10.6231 36.134 10.6316 36.3272 10.6403L36.3519 10.6414C36.3739 10.6414 36.3959 10.6419 36.4179 10.6423C36.4399 10.6428 36.462 10.6433 36.4841 10.6433C38.2629 10.6433 39.0579 8.7763 39.0579 8.7763C39.0579 8.7763 40.9488 11.1113 38.1656 12.9395C37.6865 13.2528 37.4754 13.5421 37.5305 13.8518L37.5745 14.0545L37.7727 14.0896C39.7022 14.6147 40.72 15.9152 41.8955 17.4172C41.9492 17.4858 42.0032 17.5548 42.0576 17.6242C43.9504 20.0403 46.629 20.1178 46.9594 20.1178H46.9943C46.9943 20.1178 46.3829 22.0547 44.5819 22.0547C44.5525 22.0547 44.5269 22.0547 44.4957 22.0529C43.6677 22.0233 43.2436 21.7045 43.2436 21.7045C43.2436 21.7045 42.9187 26.1036 46.1883 27.4673ZM42.4233 15.4183C42.0029 14.8949 41.5237 14.3052 40.6995 13.8647L39.8513 13.4059L40.637 12.8512C40.6402 12.8492 40.6446 12.8464 40.6502 12.8428C40.7609 12.7726 41.3348 12.4088 42.0965 12.4088C42.7519 12.4088 43.3596 12.6798 43.8626 13.1939C45.0853 14.4489 46.1831 14.5484 46.2235 14.5502L47.0772 14.6019L46.7247 15.387C46.3741 16.1702 45.4487 16.7361 44.5272 16.7361C44.2922 16.7361 44.0608 16.7011 43.8424 16.6254C43.2363 16.4232 42.8454 15.94 42.4375 15.4358L42.4233 15.4183ZM43.4423 13.6123C42.9887 13.1423 42.5096 13.0023 42.0984 13.0023C41.4595 13.0023 40.9784 13.3413 40.9784 13.3413C41.9076 13.837 42.4372 14.4952 42.8819 15.0479C43.2606 15.5185 43.5779 15.9127 44.0279 16.0652C44.1949 16.1223 44.362 16.1481 44.529 16.1481C45.2505 16.1481 45.9482 15.6781 46.1886 15.1438C46.1886 15.1438 44.865 15.0627 43.4423 13.6123ZM41.0847 21.6954V21.725C40.5891 17.711 37.6847 14.8122 34.4537 13.0485C34.1545 12.8881 33.8791 12.7518 33.6111 12.6209C34.595 12.7738 36.1794 12.7922 37.4021 11.727C37.4021 11.727 35.5313 13.1093 31.6981 11.8543C32.0057 12.0546 32.3973 12.2788 32.8443 12.5346L32.8444 12.5346C33.9394 13.1614 35.3664 13.9781 36.7026 15.0996C41.4079 19.2499 38.041 23.2988 38.041 23.2988C39.7318 21.5278 39.8015 19.6296 39.3041 18.0797C40.1944 19.5669 40.7636 21.3729 40.6754 23.5992C40.5451 26.7893 38.7992 29.5482 36.9615 31.7653C36.0784 32.8415 35.8802 34.1629 35.8802 34.1629C35.8802 34.1629 36.2363 32.9963 37.2588 31.7966C39.2287 29.4819 40.9122 27.0768 41.1325 23.6121C41.3363 24.2406 42.1753 25.9895 43.5063 26.6474L43.5058 26.6471C43.4727 26.6263 41.8291 25.5935 41.0847 21.6954ZM16.0067 36.5438C16.0079 36.546 16.0086 36.5471 16.0087 36.5474L16.6073 37.4596L15.5277 37.4743C13.7469 37.4743 12.3847 36.9804 11.4375 36.0037C10.8812 35.425 10.5599 34.7725 10.3726 34.1939C10.0661 34.4594 9.66224 34.6915 9.13903 34.815C8.94443 34.861 8.72775 34.8868 8.49272 34.8868C8.00657 34.8868 7.59291 34.7862 7.52676 34.7701L7.52164 34.7689L6.8313 34.5847L7.13603 33.9395L7.13704 33.9372C7.17153 33.8575 7.7273 32.5725 7.11588 30.7476C6.84965 29.9496 6.71384 29.2346 6.64773 28.678C6.21258 28.9047 5.6325 29.0926 4.88721 29.0946C3.20555 29.0946 2.45 27.8556 2.3961 27.7672L2.39412 27.7639L2.05807 27.1779L2.67858 26.9199C4.71097 26.0721 5.16064 23.7997 5.25254 22.5705C5.06526 22.6074 4.8559 22.6388 4.62279 22.6462L4.51637 22.6498C2.30594 22.6498 1.56977 20.394 1.54038 20.2982L1.28711 19.504L2.11866 19.5298C2.41056 19.5298 4.8523 19.4652 6.57803 17.261L6.74132 17.0565L6.75523 17.0387C7.8792 15.6041 8.94676 14.2416 10.85 13.6195C10.7949 13.5697 10.7178 13.507 10.6076 13.437C9.59241 12.7661 9.00129 11.9515 8.85444 11.0062C8.63926 9.61806 9.49976 8.50257 9.57207 8.40883L9.57586 8.4039L10.1965 7.64095L10.5802 8.54583L10.5805 8.54654C10.6108 8.61404 11.2554 10.0515 12.6124 10.0515H12.7115C12.7381 10.0499 12.7644 10.0485 12.7905 10.047L12.791 10.047L12.7914 10.047C12.855 10.0435 12.9173 10.0401 12.9796 10.0349C12.9337 9.38986 13.053 8.38924 13.9581 7.44933C15.0449 6.31963 16.374 6.15008 17.0717 6.15008C17.408 6.15008 17.6392 6.18721 17.7028 6.19743C17.71 6.19859 17.7151 6.1994 17.7179 6.19977L18.6506 6.38411L18.0741 7.14149C17.6261 7.72579 17.2167 8.80568 17.7014 9.3678C17.8476 9.53724 18.1405 9.67684 18.4301 9.81489L18.4779 9.83769C19.104 10.1253 19.9558 10.5289 19.9558 11.5535C19.9558 12.217 19.4473 12.9099 18.5183 13.4996C15.7646 15.2357 14.07 17.0472 13.3376 19.0469C12.2067 22.1209 13.679 23.8754 15.1202 24.8005L15.7646 25.2171L15.2009 25.7368C15.1239 25.8049 14.4335 26.413 13.4147 26.5015C13.2219 26.5144 13.0401 26.5255 12.8639 26.5255C12.2085 26.5255 11.6559 26.4223 11.2043 26.2841C11.3292 26.5033 11.4833 26.7263 11.6743 26.9512C12.4949 27.904 13.5065 28.3389 14.955 28.3629L15.4983 28.3721L15.535 28.9158C15.5406 29.0245 15.581 30.0325 14.6319 30.8896C14.4868 31.0241 14.3143 31.1328 14.127 31.2213C14.7732 31.8036 15.4268 32.8172 15.5553 34.5551C15.6608 35.9442 15.9785 36.4949 16.0067 36.5438ZM10.7087 32.6625C10.7087 32.6625 10.5838 36.8846 15.4874 36.8846H15.5222C15.5222 36.8846 15.0945 36.2948 14.9678 34.5975C14.7365 31.4645 12.6216 31.0351 12.6216 31.0351C12.6216 31.0351 13.7488 30.8914 14.2389 30.4527C15.0027 29.758 14.9476 28.9545 14.9476 28.9545C13.2219 28.9305 12.0928 28.3407 11.2264 27.3401C10.2992 26.2565 10.145 25.0898 10.145 25.0898C10.145 25.0898 11.0722 25.9339 12.8639 25.9339C13.0255 25.9339 13.1925 25.9266 13.3652 25.91C14.2151 25.8417 14.8026 25.3 14.8026 25.3C12.9318 24.0964 11.6229 22.0011 12.7832 18.8423C13.7121 16.3119 15.9481 14.4211 18.2008 12.9965C18.9498 12.5266 19.3665 12.0032 19.3665 11.5553C19.3665 10.9069 18.8042 10.6427 18.2278 10.372C17.8639 10.2011 17.4944 10.0275 17.2572 9.75297C16.5485 8.92736 16.9927 7.58932 17.6059 6.78213C17.6059 6.78213 17.4021 6.73983 17.0735 6.73983C16.4273 6.73983 15.3056 6.902 14.384 7.86214C13.1576 9.13377 13.6662 10.5177 13.6662 10.5177L13.3376 10.5823C13.1608 10.6208 12.981 10.6304 12.7997 10.6401H12.7997C12.7813 10.6411 12.763 10.6421 12.7446 10.6431C12.7215 10.6431 12.6997 10.6436 12.6782 10.644H12.6782H12.6782H12.6781H12.6781H12.6781H12.678C12.6569 10.6445 12.636 10.645 12.6142 10.645C10.8316 10.645 10.0404 8.77986 10.0404 8.77986C10.0404 8.77986 8.14947 11.1131 10.9327 12.9431C11.4117 13.2564 11.6211 13.5457 11.566 13.8553L11.5219 14.0581L11.3199 14.0931C9.39078 14.6209 8.3713 15.9233 7.19321 17.4283C7.14145 17.4944 7.08939 17.5609 7.03694 17.6278C5.1442 20.0439 2.46935 20.1213 2.13702 20.1213H2.1003C2.1003 20.1213 2.70978 22.0582 4.51265 22.0582C4.54204 22.0582 4.56952 22.0582 4.59891 22.0564C5.42878 22.025 5.85278 21.7081 5.85278 21.7081C5.85278 21.7081 6.17407 26.1053 2.9063 27.4672C2.9063 27.4672 3.50114 28.5048 4.86514 28.5048H4.8817C6.52104 28.4956 7.18019 27.4931 7.18019 27.4931C7.18019 27.4931 7.08469 28.7978 7.67208 30.5578C8.38258 32.6791 7.67029 34.1957 7.67029 34.1957C7.67029 34.1957 8.05037 34.299 8.49092 34.299C8.66164 34.299 8.83609 34.2824 8.99949 34.2382C10.3672 33.9119 10.7087 32.6625 10.7087 32.6625ZM4.56598 16.738C4.80281 16.738 5.03412 16.703 5.2526 16.6274C5.85989 16.426 6.24829 15.9458 6.65439 15.4438L6.67346 15.4202L6.67467 15.4187L6.67468 15.4187C7.09669 14.8958 7.57203 14.3067 8.39547 13.8667L9.2437 13.4097L8.45606 12.8549L8.44869 12.8502C8.35424 12.7888 7.77484 12.4127 7.00028 12.4127C6.34305 12.4127 5.73358 12.6817 5.23232 13.1977C4.00965 14.4509 2.91367 14.5522 2.87324 14.5542L2.01962 14.6038L2.3703 15.3908C2.72279 16.1703 3.64612 16.738 4.56598 16.738ZM5.65271 13.6143C6.10802 13.1442 6.5872 13.0043 7.00028 13.0043C7.63543 13.0043 8.11653 13.3432 8.11653 13.3432C7.19039 13.8389 6.66101 14.4952 6.21597 15.0469C5.83525 15.5188 5.51625 15.9143 5.06339 16.0672C4.90191 16.1243 4.73298 16.1501 4.56598 16.1501C3.84444 16.1501 3.14679 15.682 2.90816 15.1457C2.90816 15.1457 2.90986 15.1455 2.91322 15.1452C3.00328 15.1363 4.28105 15.0107 5.65271 13.6143ZM9.78881 18.0815C8.89667 19.5687 8.32751 21.3748 8.41929 23.601C8.54778 26.7912 10.2937 29.5519 12.1277 31.7653C13.0145 32.8415 13.2146 34.1629 13.2146 34.1629C13.2146 34.1629 12.8548 32.9963 11.8321 31.7966C9.86223 29.4818 8.17886 27.0769 7.95666 23.6122C7.75294 24.2424 6.91575 25.9895 5.58654 26.6475C5.58654 26.6475 7.2572 25.6357 8.00813 21.6937V21.725C8.50555 17.7111 11.4081 14.8121 14.6429 13.0484C14.9255 12.8951 15.193 12.7637 15.4487 12.6381L15.4837 12.6209C14.4996 12.7757 12.9152 12.7941 11.6926 11.7289C11.6926 11.7289 13.5634 13.1111 17.3948 11.8561C17.0866 12.0571 16.6938 12.2821 16.2453 12.5391L16.2453 12.5391C15.152 13.1655 13.7277 13.9815 12.392 15.1015C7.68491 19.2518 11.0519 23.3007 11.0519 23.3007C9.35929 21.5296 9.29139 19.6314 9.78881 18.0815ZM23.4404 15.4792V16.2754C23.7139 15.9419 24.2427 16.0101 24.2427 16.0101V17.1582C24.2427 17.1582 24.2243 17.7222 24.0242 17.9672H24.597H25.1679C24.9715 17.724 24.9512 17.1582 24.9512 17.1582V16.0101C24.9512 16.0101 25.48 15.9419 25.7517 16.2754V15.4792H24.597H23.4404ZM23.5209 11.0981C23.4721 11.0818 23.2699 11.014 22.9484 10.7576C22.3444 10.2858 22.3316 9.85274 22.3316 9.85092L23.6754 10.4185V11.1686L23.5322 11.1023C23.5313 11.1016 23.5275 11.1004 23.5209 11.0981ZM26.1447 10.7576C26.7523 10.2858 26.7634 9.85092 26.7634 9.85092L25.4195 10.4185V11.1686L25.5609 11.1023C25.5619 11.1017 25.5652 11.1006 25.5709 11.0987C25.6174 11.0835 25.819 11.0172 26.1447 10.7576ZM24.5528 5.54396C26.6586 5.54396 28.566 6.56676 28.566 7.70386L28.5257 7.98395L27.6848 12.829L28.5257 13.3211L30.7103 14.6019H30.703C30.703 14.6019 31.1949 14.8544 31.4189 15.0111C32.2561 15.5916 32.4305 16.4375 31.9476 16.7876C31.8264 16.0966 31.2849 15.376 30.2678 15.376C29.5354 15.376 28.9791 15.7538 28.5238 16.3251C28.4099 16.4689 28.3017 16.6218 28.1969 16.7876C28.0704 16.9959 27.9437 17.1802 27.8188 17.3553H33.4476C33.0327 18.1902 32.6398 19.0748 32.6398 20.0349V32.5374C32.6398 35.5635 30.3247 37.0083 27.8152 37.0083C27.6663 37.0083 27.5274 37.0078 27.3972 37.0073C25.83 37.0013 25.5323 37.0001 24.5492 37.9887C23.5596 37.0004 23.2621 37.0015 21.6906 37.0073C21.5624 37.0078 21.4257 37.0083 21.2795 37.0083C18.7718 37.0083 16.453 35.5635 16.453 32.5374V20.0349C16.453 19.0748 16.0602 18.1902 15.6471 17.3553H21.274C21.1473 17.1784 21.0206 16.9959 20.894 16.7876C20.7912 16.6218 20.6811 16.4689 20.5654 16.3251C20.1137 15.7556 19.5557 15.376 18.8231 15.376C17.8061 15.376 17.2627 16.0984 17.1434 16.7876C16.6606 16.4375 16.8368 15.5916 17.6684 15.0111C17.8961 14.8544 18.3881 14.6019 18.3881 14.6019H18.3807L20.5654 13.3211L21.4098 12.829L20.569 7.98395L20.5268 7.70386C20.5268 6.56676 22.4343 5.54396 24.54 5.54396H24.5455H24.551H24.5528ZM24.3105 9.27399L21.3547 8.2678L22.1351 12.783L24.3105 13.9348V9.27399ZM23.3779 19.1189C22.9263 18.9531 22.4508 18.6526 21.9661 18.168V18.1717H16.8625C17.081 18.7615 17.2663 19.4009 17.2663 20.0367V26.5995H28.5936C28.0262 26.0133 28.0355 25.2706 28.1786 24.7878C28.0134 24.7086 27.8776 24.6128 27.7564 24.5077C27.3139 24.8339 25.9646 25.8217 25.6103 26.0705L25.535 26.1202L21.0904 25.3149H21.0005C20.894 25.3149 20.7379 25.3112 20.5672 25.291C20.5177 25.4918 20.345 25.63 20.1468 25.63C20.1248 25.63 20.0991 25.6282 20.0752 25.6245C19.9613 25.6043 19.8585 25.5453 19.7925 25.4476C19.7227 25.3517 19.697 25.2375 19.7154 25.1195L19.732 25.0237C19.2747 24.6994 18.8507 23.9751 19.0379 23.212L19.0564 23.131L19.1224 23.0849C19.1316 23.0775 19.2068 23.026 19.3225 22.9596L18.9994 22.9099C18.8782 22.8877 18.7975 22.7754 18.8158 22.6555C18.836 22.5358 18.9498 22.4473 19.0692 22.4713L19.8384 22.5928L19.9082 19.8728L21.0537 18.6564L21.7678 20.1657L21.0133 22.7808L21.6926 22.8877C21.812 22.9061 21.8945 23.0186 21.8762 23.1421C21.8578 23.2527 21.7642 23.3263 21.6577 23.3263C21.6466 23.3263 21.6357 23.3263 21.6228 23.3245L21.0703 23.2342C21.0735 23.2449 21.0785 23.2525 21.0836 23.2602C21.0873 23.2658 21.091 23.2715 21.0942 23.2785C21.1528 23.402 21.2832 23.4885 21.3603 23.5273L24.7474 23.5807L24.7538 23.5744C24.9028 23.4287 25.2539 23.0851 25.614 22.7201C24.7786 22.4012 24.4776 21.6806 24.4261 21.2015C23.9617 21.0025 23.6386 20.7038 23.4606 20.3168C23.2421 19.8359 23.3191 19.3531 23.3779 19.1189ZM25.434 25.6466C25.8526 25.3517 27.0092 24.504 27.459 24.1723C27.1322 23.6931 27.101 23.1255 27.1744 22.7274C26.9614 22.5892 26.798 22.4325 26.6677 22.2685C26.1846 22.7973 25.2934 23.6687 25.0515 23.9052C25.0186 23.9374 24.9977 23.9578 24.9916 23.964L24.9274 24.0304L21.5329 23.9751C21.5292 24.3123 21.4759 24.5998 21.4228 24.8099C21.4178 24.8297 21.4129 24.8489 21.408 24.8681C21.4037 24.8848 21.3995 24.9015 21.3952 24.9187L25.434 25.6466ZM21.0849 23.8811C20.9655 23.8056 20.793 23.671 20.6975 23.4701C20.5874 23.2379 20.4314 23.1292 20.2019 23.131C19.9045 23.131 19.5869 23.3097 19.4492 23.3946C19.339 24.0378 19.8127 24.622 20.1303 24.7399C20.4167 24.845 20.7673 24.867 20.9454 24.867C20.9527 24.845 20.9619 24.8173 20.9711 24.7841C20.9876 24.7307 21.0022 24.6772 21.0133 24.6201C21.0628 24.3621 21.0812 24.0691 21.0849 23.8811ZM20.345 20.0496L20.2771 22.6611L20.5727 22.7053L21.2961 20.1989L20.9288 19.4286L20.345 20.0496ZM26.8146 36.2103C26.9981 36.2029 27.202 36.1993 27.4223 36.1993C27.4223 36.1993 27.9492 34.653 27.9804 34.6052C27.6848 34.4743 27.0716 34.1481 26.8347 33.9988C26.8855 34.0749 26.96 34.1546 27.0348 34.2345C27.1899 34.4005 27.3464 34.5678 27.2956 34.7083L26.8146 36.2103ZM28.6175 36.1366L28.9313 34.4927C28.9662 34.3121 28.9992 34.0725 28.9992 34.0689C28.9815 34.0508 28.96 34.0297 28.9358 34.0059C28.7947 33.8675 28.5601 33.6372 28.4191 33.3666C28.3032 33.1417 28.2813 32.9728 28.2567 32.7825C28.2344 32.6111 28.21 32.4224 28.1126 32.1596C28.1126 32.1596 28.1768 32.0305 28.3218 32.0305C28.3439 32.0305 28.3696 32.0323 28.3935 32.0397C28.5844 32.0945 28.7148 32.4198 28.8621 32.787C29.0616 33.2847 29.2922 33.8597 29.7464 33.9435C29.8236 33.9582 29.8952 33.9638 29.9576 33.9638C30.1852 33.9638 30.3211 33.8679 30.468 33.6929C30.468 33.6929 30.0714 33.0663 29.774 32.6443C29.7115 32.5564 29.6512 32.4657 29.5911 32.3752C29.2719 31.8948 28.9579 31.4223 28.3384 31.4223C28.32 31.4223 28.2998 31.4223 28.2814 31.4242C28.0392 31.4371 27.8904 31.5551 27.8904 31.5551C27.593 31.3671 27.3139 31.3026 27.0643 31.3026C26.7821 31.3026 26.538 31.3828 26.3501 31.4445C26.2324 31.4831 26.1367 31.5146 26.0674 31.5146H26.0601L24.4188 31.3523C24.1618 31.3284 23.9599 31.0686 23.8865 30.9671C23.8681 30.9395 23.8589 30.9229 23.8589 30.9229C23.8589 30.8788 23.8589 30.8326 23.8553 30.7921C23.8002 29.4468 22.7611 28.8699 22.3902 28.8607C22.3902 28.8607 22.4325 28.6046 22.3333 28.5069L21.9717 28.9473L20.7839 28.3484L21.632 29.3417L20.9142 30.1489C20.8224 30.241 20.8352 30.3645 20.872 30.418L21.1822 30.6926L21.5751 30.453C21.5953 30.4382 21.632 30.4346 21.6742 30.4346C21.7243 30.4346 21.7861 30.4405 21.8526 30.4468C21.93 30.4542 22.0138 30.4622 22.0928 30.4622C22.2543 30.4622 22.392 30.429 22.4086 30.2779C22.3937 30.4283 22.3414 30.6123 22.2839 30.8145C22.1507 31.2835 21.9895 31.8508 22.2012 32.3272L22.427 32.8433L20.9766 32.6331L20.2974 33.785C20.0862 34.1684 20.0531 34.5812 20.2552 34.8078L20.5104 35.1267C20.5104 35.1267 20.8664 34.7489 20.9454 34.4983L20.8297 34.371C20.7324 34.2642 20.7361 34.1665 20.7967 34.0523L21.2226 33.3446L22.9354 33.75L23.0272 33.5952C23.1429 33.3998 23.31 33.3428 23.4935 33.3428C23.5688 33.3428 23.6459 33.352 23.7267 33.3648C24.0443 33.4275 24.5676 33.5123 25.0908 33.5123C25.6635 33.5123 26.2345 33.4109 26.5374 33.0681C26.8553 33.5411 27.3404 33.81 27.7246 34.023C28.0903 34.2257 28.3646 34.3778 28.3163 34.607L27.9859 36.1881C28.2044 36.1789 28.4173 36.1643 28.6175 36.1366ZM20.1927 33.1271L20.1174 32.9372C20.0624 32.8138 20.0697 32.6793 20.1725 32.6074L20.7857 32.1817L21.81 32.3789C21.81 32.3789 21.6247 32.1466 21.643 31.8351L20.6663 31.6269L19.7448 32.1909C19.3483 32.4876 19.3207 32.9722 19.451 33.2597L19.5741 33.5288C19.5741 33.5288 20.1431 33.2929 20.1927 33.1271ZM29.3665 34.5756L29.0856 36.0463C30.7654 35.6316 31.832 34.36 31.8302 32.5356L31.8264 27.0381H17.2645V32.5356C17.2645 34.7839 18.8855 36.1919 21.2777 36.1919C23.2769 36.1919 23.8038 36.2692 24.5473 37.0101C25.0596 36.496 25.4836 36.3043 26.3538 36.2343L26.374 36.1477L26.8329 34.7249C26.8073 34.6917 26.0563 33.8366 26.0563 33.8366C25.7571 33.9361 25.5075 33.9527 25.0889 33.9527C24.6574 33.9527 24.1709 33.9029 23.6441 33.8034C23.5908 33.7924 23.5413 33.7868 23.4917 33.7868C23.4274 33.7868 23.4219 33.7924 23.4055 33.8237L23.3137 33.9748L23.1466 34.2513L22.8326 34.1794L21.4356 33.8495L21.2446 34.1665L21.2722 34.1996L21.4429 34.3876L21.3677 34.6328C21.2649 34.9534 20.9325 35.3275 20.8297 35.4308L20.481 35.8067L20.1634 35.4031L19.9246 35.1009C19.6714 34.817 19.6144 34.3858 19.7558 33.9324C19.7521 33.9361 19.7466 33.938 19.7411 33.9398L19.3481 34.1039L19.1701 33.7168L19.0453 33.4423C18.8305 32.9594 18.9094 32.2535 19.4877 31.8278L20.6131 31.1901L21.6834 31.4021C21.6951 31.3551 21.7094 31.2533 21.7244 31.1474C21.7423 31.0204 21.761 30.8876 21.7771 30.8363C21.7569 30.8345 21.7385 30.829 21.7165 30.829L21.0996 31.0594L20.5048 30.6484C20.5048 30.6484 20.2716 30.4235 20.4828 30.1987L21.0592 29.3233L19.5997 27.484L21.8432 28.4092L21.9918 28.223L22.2947 27.8581L22.6399 28.1862C22.7372 28.2801 22.7923 28.3962 22.8198 28.5123C23.4385 28.7538 24.5473 29.467 24.6446 30.6262L24.2976 30.7663V30.7737C24.3766 30.8694 24.4427 30.9082 24.4628 30.9119L26.0656 31.0704C26.0932 31.0653 26.1259 31.0551 26.162 31.0439C26.1787 31.0387 26.1962 31.0332 26.2142 31.028C26.4125 30.9598 26.7118 30.8622 27.0662 30.8622C27.3544 30.8622 27.6315 30.9266 27.9014 31.0538C27.9987 31.0169 28.1199 30.9893 28.2613 30.9801L28.3384 30.9783C29.1949 30.9783 29.6227 31.6202 29.9639 32.1324L29.9649 32.1338C30.0219 32.2241 30.0788 32.307 30.1375 32.3899C30.4386 32.8138 30.8278 33.433 30.8443 33.4607L31.0206 33.7371L30.8039 33.9896C30.6369 34.183 30.3872 34.4098 29.9576 34.4098C29.8694 34.4098 29.7721 34.4006 29.6675 34.3802C29.5757 34.3637 29.4912 34.3361 29.4123 34.3029C29.4033 34.362 29.3917 34.4292 29.3805 34.4939C29.3757 34.5219 29.3709 34.5494 29.3665 34.5756ZM31.8264 20.0331C31.8264 19.3973 32.0119 18.7577 32.234 18.168V18.1662H27.1359C26.3538 18.9439 25.603 19.2332 24.9329 19.2996C24.8117 19.3125 24.6887 19.3199 24.5638 19.3199H24.5547H24.5473C24.4225 19.3199 24.2976 19.3125 24.1764 19.2996C24.059 19.2904 23.936 19.27 23.813 19.2424C23.7689 19.4175 23.712 19.7825 23.8717 20.1307C24.0132 20.4459 24.3013 20.68 24.7217 20.8365L24.8631 20.8918L24.865 21.0448C24.865 21.0909 24.898 22.0843 25.9738 22.3588C26.1482 22.1782 26.3079 22.0124 26.4272 21.8759C26.2069 21.3562 26.3226 20.8255 26.6421 20.5657C26.6292 20.6191 26.4878 21.922 27.5269 22.4049L27.6976 22.4859L27.6463 22.6703C27.6279 22.7237 27.2827 23.9843 28.5403 24.4524L28.7624 24.5371L28.6633 24.7547C28.6394 24.8026 28.1474 25.9452 29.3095 26.5939H31.8284V24.5851C30.9324 24.4745 30.5524 23.7521 30.4551 23.2398C30.0383 23.1679 29.717 22.9872 29.495 22.6924C29.0235 22.0696 29.3344 21.4937 29.4112 21.3514C29.4206 21.3341 29.4265 21.3232 29.427 21.3194C29.4251 21.325 29.427 22.0068 29.8456 22.427C30.0531 22.6297 30.299 22.7882 30.6699 22.8232L30.8534 22.8398L30.87 23.0278C30.8737 23.0683 30.9746 23.9917 31.8284 24.1355L31.8264 20.0331ZM29.304 14.6019L28.309 14.0214L27.2845 13.4336L24.5528 14.9263L24.5455 14.9208L24.54 14.9263L21.8082 13.4336L20.7857 14.0214L19.7906 14.6019H19.7796L19.5263 14.7475C20.0898 14.9024 20.5177 15.1825 20.8793 15.5529C20.8867 15.5595 20.893 15.5665 20.8992 15.5734C20.9068 15.5818 20.9142 15.59 20.9233 15.5971C21.0022 15.6837 21.0812 15.7777 21.1583 15.8717C21.1767 15.8938 21.1933 15.9141 21.2116 15.9398C21.2832 16.0339 21.3529 16.1334 21.4228 16.2347C21.4309 16.246 21.439 16.2585 21.4475 16.2714C21.4543 16.2817 21.4612 16.2923 21.4686 16.303C21.5513 16.4283 21.6283 16.5572 21.7054 16.6899C22.4141 17.9155 23.545 18.6472 24.5492 18.649C25.5552 18.6472 26.6861 17.9155 27.3948 16.6899C27.4737 16.5536 27.5527 16.4209 27.6352 16.2974C27.6481 16.2809 27.6609 16.2625 27.6719 16.2439C27.7418 16.1372 27.8133 16.0357 27.8904 15.9362C27.8997 15.9249 27.9083 15.9135 27.9168 15.9025C27.9234 15.8939 27.9299 15.8854 27.9364 15.8773C28.0134 15.7796 28.096 15.6837 28.1786 15.5953C28.1832 15.5907 28.1878 15.5859 28.1923 15.5811C28.2006 15.5724 28.2089 15.5637 28.2172 15.5566C28.577 15.1861 29.0067 14.9042 29.5684 14.7475L29.3187 14.6019H29.304ZM24.7841 13.9367L26.9614 12.7848L27.738 8.2678L24.7841 9.27399V13.9367ZM21.3089 7.47721L24.5473 8.76168L27.7858 7.47721C27.5122 6.82298 26.2418 6.26631 24.5473 6.26449C22.8547 6.26631 21.5843 6.82298 21.3089 7.47721Z" fill="#333333"/>
</svg>
