<svg width="33" height="33" viewBox="0 0 33 33" fill="none" xmlns="http://www.w3.org/2000/svg">
<path d="M8.8444 8.10742V23.8408C8.8444 25.3342 8.8444 26.0804 9.13505 26.6509C9.39071 27.1526 9.79836 27.5614 10.3001 27.8171C10.87 28.1074 11.6164 28.1074 13.1069 28.1074H20.5819C22.0724 28.1074 22.8177 28.1074 23.3876 27.8171C23.8894 27.5614 24.2984 27.1526 24.554 26.6509C24.8444 26.081 24.8444 25.3354 24.8444 23.8449V8.10742M8.8444 8.10742H11.5111M8.8444 8.10742H6.17773M11.5111 8.10742H22.1777M11.5111 8.10742C11.5111 6.86491 11.5111 6.24396 11.7141 5.75391C11.9847 5.1005 12.5035 4.58106 13.1569 4.31041C13.647 4.10742 14.2686 4.10742 15.5111 4.10742H18.1777C19.4202 4.10742 20.0415 4.10742 20.5316 4.31041C21.185 4.58106 21.704 5.1005 21.9746 5.75391C22.1776 6.24396 22.1777 6.86491 22.1777 8.10742M22.1777 8.10742H24.8444M24.8444 8.10742H27.5111" stroke="#285B4D" stroke-width="2" stroke-linecap="round" stroke-linejoin="round"/>
</svg>
